<svg xmlns="http://www.w3.org/2000/svg" width="43" height="50" viewBox="0 0 43 50"><g><g><g><g><path fill="#fff" d="M2.902 11.855a2.38 2.38 0 0 1 1.725-.73c.626 0 1.217.24 1.667.672l2.528 2.468-3.367 3.405-2.498-2.422a2.404 2.404 0 0 1-.055-3.393zm1.855 7.99a1.018 1.018 0 0 0 1.44-.014l4.806-4.86a1.024 1.024 0 0 0-.015-1.452l-3.268-3.19a4.42 4.42 0 0 0-3.093-1.252c-1.216 0-2.35.481-3.197 1.355a4.456 4.456 0 0 0 .102 6.286z"/></g></g><g><g><path fill="#fff" d="M18.144 35.043l-2.149-2.27c1.087-1.504 4.16-5.577 8.317-9.524 4.049-3.847 10.58-7.945 14.412-10.21-2.414 3.779-6.792 10.242-10.813 14.144-4.065 3.944-8.186 6.81-9.767 7.86zm18.423 6.248c.004.008.002.016.006.025l.965 2.098-2.066 2.123-2.14-.891c-.007-.004-.017-.002-.025-.005L22.598 34.329c.346-.26.701-.533 1.074-.824l9.707 9.344c.194.187.445.28.696.28a.998.998 0 0 0 .719-.303.99.99 0 0 0-.024-1.407l-9.53-9.175c.337-.28.681-.569 1.03-.868zm.885 5.07l.979-1.004.805 1.748zm-25.729-6.277l-1.39-1.47 3.875-4.826 2.592 2.738zm-3.13 4.638c-1.34 1.257-4.184 2.185-6.17 2.686.623-1.942 1.727-4.707 3.068-5.965.969-.907 2.335-1.268 3.443-1.404l1.275 1.348c-.203 1.094-.648 2.429-1.615 3.335zm1.214-22.71l3.26-3.349 6.66 6.411a67.86 67.86 0 0 0-.895.992l-2.962-2.841a1.002 1.002 0 0 0-1.412.025.99.99 0 0 0 .024 1.407l3.043 2.92c-.3.359-.585.704-.852 1.033zm32.505-10.968a.977.977 0 0 0-.199-1.221.988.988 0 0 0-1.27-.293c-.476.26-11.744 6.42-17.913 12.28a66.145 66.145 0 0 0-1.833 1.815L13.74 16.54a1.006 1.006 0 0 0-1.415.023l-4.651 4.78a.99.99 0 0 0 .023 1.406l7.734 7.433c-.356.465-.649.859-.884 1.183a.987.987 0 0 0-1.181.285l-5.14 6.396c-.021.029-.03.064-.05.095-1.325.224-2.862.733-4.057 1.853-2.581 2.417-4.03 8.263-4.091 8.51a.988.988 0 0 0 .244.917 1.006 1.006 0 0 0 .905.297c.252-.045 6.208-1.13 8.788-3.548.997-.934 1.694-2.281 2.079-3.903.042-.02.086-.033.123-.06l6.727-4.716a.994.994 0 0 0 .42-.713c.002-.038-.013-.073-.013-.11.416-.276.982-.66 1.664-1.144l11.162 10.748a.962.962 0 0 0 .529.248l8.169 3.402a1.009 1.009 0 0 0 1.105-.226.996.996 0 0 0 .191-1.106l-3.686-8.01a.981.981 0 0 0-.266-.518L27.767 30.049a59.736 59.736 0 0 0 1.54-1.442c6.112-5.928 12.728-17.09 13.005-17.563z"/></g></g><g><g><path fill="#fff" d="M21.225 10.748a1.154 1.154 0 0 1-1.152-1.151 1.153 1.153 0 1 1 1.152 1.152zm-5.707.82a1.02 1.02 0 0 0 1.332-.562A4.756 4.756 0 0 1 18.06 9.28c-.011.106-.033.209-.033.318a3.204 3.204 0 0 0 3.199 3.198 3.202 3.202 0 0 0 3.199-3.198c0-.108-.02-.211-.032-.317.515.467.933 1.05 1.21 1.726a1.021 1.021 0 1 0 1.893-.772 6.745 6.745 0 0 0-6.27-4.22 6.744 6.744 0 0 0-6.27 4.22c-.213.524.038 1.121.563 1.334z"/></g></g><g><g><path fill="#fff" d="M21.225 3.455c.566 0 1.023-.458 1.023-1.024V1.024a1.023 1.023 0 1 0-2.047 0V2.43c0 .566.458 1.024 1.024 1.024z"/></g></g><g><g><path fill="#fff" d="M14.574 5.38a1.019 1.019 0 0 0 1.446 0c.399-.4.399-1.047 0-1.447l-.996-.996a1.022 1.022 0 1 0-1.447 1.448z"/></g></g><g><g><path fill="#fff" d="M27.154 5.68c.262 0 .524-.1.724-.3l.996-.996a1.023 1.023 0 1 0-1.448-1.447l-.996.996a1.023 1.023 0 0 0 .724 1.747z"/></g></g></g></g></svg>