<svg xmlns="http://www.w3.org/2000/svg" width="37" height="37" viewBox="0 0 37 37"><g><g><g><g><path fill="#49d6cb" d="M18.331 36.082C8.5 36.082.5 28.083.5 18.252.5 8.418 8.5.42 18.331.42c9.832 0 17.83 8 17.83 17.831 0 9.832-7.998 17.831-17.83 17.831z"/></g></g><g><g><path fill="#fff" d="M15.535 18.336V28.67c0 .148.12.27.27.27h3.837a.27.27 0 0 0 .269-.27V18.167h2.783c.14 0 .256-.107.267-.246l.268-3.165a.27.27 0 0 0-.268-.292h-3.05v-2.245c0-.526.427-.953.953-.953h2.144a.27.27 0 0 0 .27-.27V7.834a.27.27 0 0 0-.27-.27h-3.623a3.85 3.85 0 0 0-3.85 3.85v3.051h-1.919a.27.27 0 0 0-.269.27v3.164c0 .149.12.269.27.269h1.918z"/></g></g></g></g></svg>