<svg xmlns="http://www.w3.org/2000/svg" width="37" height="37" viewBox="0 0 37 37"><g><g><g><g><g><path fill="#49d6cb" d="M18.473 36.87C8.563 36.87.5 28.806.5 18.895.5 8.986 8.563.924 18.473.924c9.91 0 17.972 8.063 17.972 17.972 0 9.91-8.062 17.973-17.972 17.973z"/></g></g><g><g><g><path fill="#fff" d="M10.214 27.276h3.464a.3.3 0 0 0 .3-.3V15.35a.3.3 0 0 0-.3-.3h-3.464a.3.3 0 0 0-.3.3v11.625a.3.3 0 0 0 .3.3zm18.42-7.01c0-3.755-2.005-5.503-4.68-5.503-2.16 0-3.123 1.189-3.663 2.02v.04h-.027c.007-.013.02-.026.027-.04v-1.432a.3.3 0 0 0-.3-.3h-3.457a.299.299 0 0 0-.3.303c.036 1.895 0 9.96-.007 11.622a.3.3 0 0 0 .3.3h3.463a.3.3 0 0 0 .3-.3v-6.528c0-.367.028-.73.136-.99.294-.732.961-1.487 2.084-1.487 1.472 0 2.059 1.121 2.059 2.764v6.24a.3.3 0 0 0 .3.3h3.464a.3.3 0 0 0 .301-.3z"/></g></g></g></g><g><g><path fill="#fff" d="M9.649 11.32a2.176 2.176 0 1 1 4.351 0 2.176 2.176 0 0 1-4.351 0z"/></g></g></g></g></svg>