<svg xmlns="http://www.w3.org/2000/svg" width="36" height="36" viewBox="0 0 36 36"><g><g><g><path fill="#fff" d="M2.685 17.432c0-8.57 6.947-15.517 15.516-15.517 8.57 0 15.517 6.947 15.517 15.517S26.77 32.948 18.2 32.948 2.685 26.001 2.685 17.432z"/></g><g><g><path fill="#49d6cb" d="M27.367 13.006a4.613 4.613 0 0 0-4.613-4.613H13.89a4.613 4.613 0 0 0-4.613 4.613v8.865a4.613 4.613 0 0 0 4.613 4.612h8.864a4.613 4.613 0 0 0 4.613-4.612zm2.103 8.865a6.716 6.716 0 0 1-6.716 6.716H13.89a6.717 6.717 0 0 1-6.716-6.716v-8.865a6.717 6.717 0 0 1 6.716-6.717h8.864a6.716 6.716 0 0 1 6.716 6.717zm-7.583-4.289a3.531 3.531 0 0 0-3.527-3.527 3.531 3.531 0 0 0-3.527 3.527 3.531 3.531 0 0 0 3.527 3.528 3.531 3.531 0 0 0 3.527-3.528zm1.98 0a5.513 5.513 0 0 1-5.507 5.507 5.513 5.513 0 0 1-5.506-5.507 5.513 5.513 0 0 1 5.506-5.507 5.513 5.513 0 0 1 5.506 5.507zm1.632-5.876a1.311 1.311 0 1 1-2.622-.001 1.311 1.311 0 0 1 2.622 0zm10.43 5.876c0-9.768-7.947-17.715-17.714-17.715C8.447-.133.5 7.814.5 17.582s7.947 17.715 17.715 17.715c9.767 0 17.714-7.947 17.714-17.715z"/></g></g></g></g></svg>