<svg xmlns="http://www.w3.org/2000/svg" width="132.299" height="49.148" viewBox="0 0 132.299 49.148">
  <g id="Group_35" data-name="Group 35" transform="translate(-166.943 -411.341)">
    <g id="Group_33" data-name="Group 33" transform="translate(166.943 411.341)">
      <circle id="Ellipse_47" data-name="Ellipse 47" cx="2.501" cy="2.501" r="2.501" transform="translate(23.375 1.963)" fill="#49d6cb"/>
      <circle id="Ellipse_48" data-name="Ellipse 48" cx="2.501" cy="2.501" r="2.501" transform="translate(8.151 7.897)" fill="#49d6cb"/>
      <circle id="Ellipse_49" data-name="Ellipse 49" cx="2.501" cy="2.501" r="2.501" transform="translate(2.782 23.362)" fill="#49d6cb"/>
      <circle id="Ellipse_50" data-name="Ellipse 50" cx="2.501" cy="2.501" r="2.501" transform="translate(10.997 37.663)" fill="#49d6cb"/>
      <circle id="Ellipse_51" data-name="Ellipse 51" cx="2.501" cy="2.501" r="2.501" transform="translate(27.279 39.671)" fill="#49d6cb"/>
      <circle id="Ellipse_52" data-name="Ellipse 52" cx="2.501" cy="2.501" r="2.501" transform="translate(39.04 27.648)" fill="#49d6cb"/>
      <circle id="Ellipse_53" data-name="Ellipse 53" cx="2.501" cy="2.501" r="2.501" transform="translate(38.753 20.059)" fill="#49d6cb"/>
      <circle id="Ellipse_54" data-name="Ellipse 54" cx="1.647" cy="1.647" r="1.647" transform="translate(38.881 39.83)" fill="#49d6cb"/>
      <circle id="Ellipse_55" data-name="Ellipse 55" cx="1.647" cy="1.647" r="1.647" transform="translate(18.055 45.854)" fill="#49d6cb"/>
      <circle id="Ellipse_56" data-name="Ellipse 56" cx="1.647" cy="1.647" r="1.647" transform="translate(1.647 34.369)" fill="#49d6cb"/>
      <circle id="Ellipse_57" data-name="Ellipse 57" cx="1.647" cy="1.647" r="1.647" transform="translate(0 13.425)" fill="#49d6cb"/>
      <circle id="Ellipse_58" data-name="Ellipse 58" cx="1.647" cy="1.647" r="1.647" transform="translate(15.605 0)" fill="#49d6cb"/>
      <circle id="Ellipse_59" data-name="Ellipse 59" cx="1.647" cy="1.647" r="1.647" transform="translate(35.614 1.647)" fill="#49d6cb"/>
      <circle id="Ellipse_60" data-name="Ellipse 60" cx="2.501" cy="2.501" r="2.501" transform="translate(37.261 11.332)" fill="#49d6cb"/>
      <circle id="Ellipse_61" data-name="Ellipse 61" cx="2.908" cy="2.908" r="2.908" transform="translate(29.24 20.7)" fill="#49d6cb"/>
      <path id="Path_687" data-name="Path 687" d="M351.956,527.694s3.747,2.79,6.058-.346a18.89,18.89,0,0,1,.489,4.063s-3.381-2.226-5.6.594C350.055,529.891,351.956,527.694,351.956,527.694Z" transform="translate(-318.432 -506.648)" fill="#49d6cb"/>
      <g id="Group_27" data-name="Group 27" transform="translate(26.081 27.215)">
        <circle id="Ellipse_62" data-name="Ellipse 62" cx="2.501" cy="2.501" r="2.501" transform="translate(7.018 6.757)" fill="#49d6cb"/>
        <circle id="Ellipse_63" data-name="Ellipse 63" cx="2.908" cy="2.908" r="2.908" fill="#49d6cb"/>
        <path id="Path_688" data-name="Path 688" d="M332.828,576.946s.237,4.666,4.126,4.448a18.893,18.893,0,0,1-2.82,2.966s-.439-4.024-4.026-3.937C329.922,576.881,332.828,576.946,332.828,576.946Z" transform="translate(-327.067 -574.61)" fill="#49d6cb"/>
      </g>
      <g id="Group_28" data-name="Group 28" transform="translate(17.49 28.678)">
        <circle id="Ellipse_64" data-name="Ellipse 64" cx="2.501" cy="2.501" r="2.501" transform="translate(0 9.341)" fill="#49d6cb"/>
        <circle id="Ellipse_65" data-name="Ellipse 65" cx="2.908" cy="2.908" r="2.908" transform="translate(1.641)" fill="#49d6cb"/>
        <path id="Path_689" data-name="Path 689" d="M275.226,594.413s-3.881,2.6-1.695,5.826a18.9,18.9,0,0,1-3.994-.894s3.226-2.445,1.308-5.477C273.788,591.887,275.226,594.413,275.226,594.413Z" transform="translate(-268.72 -589.352)" fill="#49d6cb"/>
      </g>
      <g id="Group_29" data-name="Group 29" transform="translate(5.954 24.558)">
        <circle id="Ellipse_66" data-name="Ellipse 66" cx="2.501" cy="2.501" r="2.501" transform="translate(0 4.984)" fill="#49d6cb"/>
        <circle id="Ellipse_67" data-name="Ellipse 67" cx="2.908" cy="2.908" r="2.908" transform="translate(7.534)" fill="#49d6cb"/>
        <path id="Path_690" data-name="Path 690" d="M222.988,565.019s-4.547-1.074-5.423,2.721A18.89,18.89,0,0,1,215.5,564.2s3.987.7,4.9-2.767C223.861,562.247,222.988,565.019,222.988,565.019Z" transform="translate(-212.792 -559.212)" fill="#49d6cb"/>
      </g>
      <g id="Group_30" data-name="Group 30" transform="translate(5.522 14.248)">
        <circle id="Ellipse_68" data-name="Ellipse 68" cx="2.501" cy="2.501" r="2.501" fill="#49d6cb"/>
        <circle id="Ellipse_69" data-name="Ellipse 69" cx="2.908" cy="2.908" r="2.908" transform="translate(8.053 3.117)" fill="#49d6cb"/>
        <path id="Path_691" data-name="Path 691" d="M220.455,504.088s-1.91-4.263-5.457-2.652a18.9,18.9,0,0,1,1.554-3.786s1.867,3.592,5.178,2.212C223.187,503.1,220.455,504.088,220.455,504.088Z" transform="translate(-211.945 -496.497)" fill="#49d6cb"/>
      </g>
      <g id="Group_31" data-name="Group 31" transform="translate(25.765 6.898)">
        <circle id="Ellipse_70" data-name="Ellipse 70" cx="2.501" cy="2.501" r="2.501" transform="translate(5.621)" fill="#49d6cb"/>
        <circle id="Ellipse_71" data-name="Ellipse 71" cx="2.908" cy="2.908" r="2.908" transform="translate(0 7.13)" fill="#49d6cb"/>
        <path id="Path_692" data-name="Path 692" d="M321.914,468.968s4.568-.978,3.733-4.783a18.894,18.894,0,0,1,3.378,2.311s-3.9,1.075-3.245,4.6C322.313,471.846,321.914,468.968,321.914,468.968Z" transform="translate(-320.025 -461.653)" fill="#49d6cb"/>
      </g>
      <g id="Group_32" data-name="Group 32" transform="translate(16.381 5.585)">
        <circle id="Ellipse_72" data-name="Ellipse 72" cx="2.385" cy="2.385" r="2.385" fill="#49d6cb"/>
        <circle id="Ellipse_73" data-name="Ellipse 73" cx="2.774" cy="2.774" r="2.774" transform="translate(2.704 7.787)" fill="#49d6cb"/>
        <path id="Path_693" data-name="Path 693" d="M266.387,466.174s1.707-4.116-1.732-5.522a18.023,18.023,0,0,1,3.644-1.4s-1.27,3.646,1.855,5.04C268.863,467.42,266.387,466.174,266.387,466.174Z" transform="translate(-263.6 -456.288)" fill="#49d6cb"/>
      </g>
      <circle id="Ellipse_74" data-name="Ellipse 74" cx="1.647" cy="1.647" r="1.647" transform="translate(45.795 20.476)" fill="#49d6cb"/>
      <circle id="Ellipse_75" data-name="Ellipse 75" cx="0.681" cy="0.681" r="0.681" transform="translate(33.075 19.164)" fill="#49d6cb"/>
      <circle id="Ellipse_76" data-name="Ellipse 76" cx="0.681" cy="0.681" r="0.681" transform="translate(7.894 21.159)" fill="#49d6cb"/>
      <circle id="Ellipse_77" data-name="Ellipse 77" cx="0.681" cy="0.681" r="0.681" transform="translate(28.673 11.218)" fill="#49d6cb"/>
      <circle id="Ellipse_78" data-name="Ellipse 78" cx="0.681" cy="0.681" r="0.681" transform="translate(22.694 36.982)" fill="#49d6cb"/>
      <circle id="Ellipse_79" data-name="Ellipse 79" cx="0.681" cy="0.681" r="0.681" transform="translate(35.287 29.725)" fill="#49d6cb"/>
      <circle id="Ellipse_80" data-name="Ellipse 80" cx="0.681" cy="0.681" r="0.681" transform="translate(15.054 12.691)" fill="#49d6cb"/>
    </g>
    <g id="Group_34" data-name="Group 34" transform="translate(221.416 423.431)">
      <path id="Path_694" data-name="Path 694" d="M586.608,486.746a1.653,1.653,0,0,1-1.211-.51,1.69,1.69,0,0,1-.51-1.243,1.59,1.59,0,0,1,.526-1.259,1.8,1.8,0,0,1,1.227-.462,1.761,1.761,0,0,1,1.2.462,1.59,1.59,0,0,1,.526,1.259,1.742,1.742,0,0,1-1.753,1.753Zm.032,20.749a1.155,1.155,0,0,1-1.243-1.243V491.3a1.155,1.155,0,0,1,1.243-1.243,1.186,1.186,0,0,1,.876.335,1.228,1.228,0,0,1,.335.908v14.948a1.228,1.228,0,0,1-.335.908A1.186,1.186,0,0,1,586.64,507.5Z" transform="translate(-564.782 -482.526)" fill="#49d6cb"/>
      <path id="Path_695" data-name="Path 695" d="M480.577,479.09a8.362,8.362,0,0,0-8.362,8.362c0,.093,0,.184.005.275v0q-.005.067-.005.139v14.948a1.157,1.157,0,0,0,1.244,1.244,1.186,1.186,0,0,0,.876-.335,1.229,1.229,0,0,0,.335-.908v-9.443a8.362,8.362,0,1,0,5.906-14.282Zm0,14.347a5.98,5.98,0,0,1-6.019-5.985c0-.055,0-.111,0-.168a6.019,6.019,0,1,1,6.017,6.153Z" transform="translate(-472.215 -479.09)" fill="#49d6cb"/>
      <path id="Path_696" data-name="Path 696" d="M628.792,538.751a1.067,1.067,0,0,1-.813-.319,1.128,1.128,0,0,1-.319-.765,1.244,1.244,0,0,1,.335-.861l5.864-7.331,1.371,1.817-5.578,7.076A1.007,1.007,0,0,1,628.792,538.751Zm12.621,0a1.314,1.314,0,0,1-.621-.128,1.674,1.674,0,0,1-.494-.446l-5.514-7.012-.956-.829-5.546-7.044a1.217,1.217,0,0,1-.032-1.642,1.032,1.032,0,0,1,.829-.334,1.259,1.259,0,0,1,.924.382l5.355,6.853.861.7,5.928,7.586a1.256,1.256,0,0,1,.35.956,1.027,1.027,0,0,1-.4.7A1.121,1.121,0,0,1,641.413,538.751Zm-5.163-8.287-1.562-1.594,5.514-6.98a1.227,1.227,0,0,1,1.052-.574,1.032,1.032,0,0,1,.828.334,1.123,1.123,0,0,1,.271.8,1.508,1.508,0,0,1-.335.876Z" transform="translate(-599.922 -513.782)" fill="#49d6cb"/>
      <path id="Path_697" data-name="Path 697" d="M729.369,504.413a1.252,1.252,0,0,1-1.243-1.243V495.2l-8.669-13.737a1.22,1.22,0,0,1,.159-1.657,1.146,1.146,0,0,1,.8-.287,1.1,1.1,0,0,1,.621.159,1.581,1.581,0,0,1,.431.446l8.605,13.865h-1.339l8.574-13.8a1.519,1.519,0,0,1,.494-.51,1.269,1.269,0,0,1,.653-.159,1.019,1.019,0,0,1,.749.3,1.21,1.21,0,0,1,.351.749,1.357,1.357,0,0,1-.239.893l-8.7,13.737v7.968a1.251,1.251,0,0,1-1.243,1.243Z" transform="translate(-675.129 -479.444)" fill="#49d6cb"/>
      <path id="Path_698" data-name="Path 698" d="M829.988,523.548a1.116,1.116,0,1,1,0-2.231h11.825a1.116,1.116,0,0,1,0,2.231Zm.127,15.2a1.115,1.115,0,0,1,0-2.231H841.94a1.115,1.115,0,1,1,0,2.231Zm1.116-.829-2.008-1.084,11.857-15.076,1.657,1.4Z" transform="translate(-765.23 -513.782)" fill="#49d6cb"/>
    </g>
  </g>
</svg>
