<svg xmlns="http://www.w3.org/2000/svg" width="42" height="50" viewBox="0 0 42 50"><g><g><g><path fill="#fff" d="M21.587 47.4H7.521c-2.382 0-4.372-1.724-4.861-4.015h23.79c-.49 2.291-2.481 4.014-4.863 4.014zM7.521 2.6h14.066c2.382 0 4.373 1.723 4.863 4.014H2.66c.489-2.29 2.48-4.013 4.861-4.013zM27.84 39.483c-.701 0-1.27.582-1.27 1.3v.002H2.54V9.215H26.57v.508c0 .718.568 1.3 1.269 1.3s1.27-.582 1.27-1.3V7.705C29.11 3.457 25.734 0 21.586 0H7.521C3.375 0 .001 3.457.001 7.705v34.59C0 46.542 3.374 50 7.52 50h14.066c4.148 0 7.522-3.457 7.522-7.706v-1.512c0-.718-.568-1.3-1.269-1.3z"/></g><g><path fill="#fff" d="M8.562 35.117V18.702h30.521v16.415zm30.521-19.934v1.058H8.564v-1.058zm1.379-2.461H7.184c-.76 0-1.378.55-1.378 1.23v22.395c0 .68.617 1.23 1.378 1.23h33.278c.76 0 1.377-.55 1.377-1.23V13.952c0-.68-.616-1.23-1.377-1.23z"/></g><g><path fill="#fff" d="M13.936 22.267h11.337v5.742H13.936zm-1.377 8.498H26.65c.761 0 1.378-.617 1.378-1.378V20.89c0-.762-.617-1.378-1.378-1.378H12.559c-.762 0-1.378.616-1.378 1.378v8.497c0 .761.616 1.378 1.378 1.378z"/></g><g><path fill="#fff" d="M35.637 19.96h-6.218a1.378 1.378 0 1 0 0 2.757h6.218a1.378 1.378 0 1 0 0-2.756z"/></g><g><path fill="#fff" d="M29.901 26.617h3.731a1.377 1.377 0 1 0 0-2.756h-3.731a1.378 1.378 0 1 0 0 2.756z"/></g><g><path fill="#fff" d="M29.42 30.515h5.595a1.378 1.378 0 1 0 0-2.756H29.42a1.378 1.378 0 1 0 0 2.756z"/></g><g><path fill="#fff" d="M35.637 31.464h-24.25a1.377 1.377 0 1 0 0 2.756h24.25a1.377 1.377 0 1 0 0-2.756z"/></g><g><path fill="#fff" d="M16.254 43.65h-2.27a1.378 1.378 0 1 0 0 2.755h2.27a1.378 1.378 0 1 0 0-2.756z"/></g></g></g></svg>