<svg xmlns="http://www.w3.org/2000/svg" width="48" height="50" viewBox="0 0 48 50"><g><g><g><path fill="#fff" d="M40.828 25.298V14.971a5.367 5.367 0 0 1 3.897 5.165 5.366 5.366 0 0 1-3.897 5.162zm-2.99 9.655c-1.772-1.146-4.467-2.69-7.894-4.107V8.527c3.448-1.414 6.131-2.955 7.894-4.101zM22.548 45.94c.006.026.053.253-.084.427-.24.298-1.022.616-2.523.616-3.515 0-4.277-1.514-4.388-1.791l-2.415-15.053c2.374.103 4.64.38 6.756.804zM2.99 22.184v-4.986c0-2.704 2.178-4.902 4.858-4.902h4.198c.059 0 .109-.03.167-.036a49.908 49.908 0 0 0 14.74-2.619v20.077c-4.026-1.382-8.822-2.455-14.2-2.623v-9.36a1.5 1.5 0 0 0-1.495-1.509c-.826 0-1.495.675-1.495 1.509v9.346H7.848c-2.68 0-4.858-2.199-4.858-4.897zm37.838-10.319V1.51c0-.583-.333-1.114-.856-1.364a1.486 1.486 0 0 0-1.588.197c-.105.089-10.85 8.807-27.085 8.93 0 0-.018.007-.026.007H7.848C3.521 9.279 0 12.832 0 17.199v4.985c0 4.363 3.521 7.914 7.848 7.914h2.254l2.537 15.786c.038.168 1.019 4.116 7.302 4.116 2.377 0 4.038-.625 4.937-1.856.879-1.202.675-2.498.575-2.92l-2.388-13.518c9.31 2.56 15.252 7.251 15.334 7.319a1.484 1.484 0 0 0 1.582.183c.517-.254.847-.781.847-1.362v-9.443c3.906-.686 6.887-4.13 6.887-8.267 0-4.143-2.98-7.584-6.887-8.27z"/></g></g></g></svg>