<svg xmlns="http://www.w3.org/2000/svg" width="54" height="46" viewBox="0 0 54 46"><g><g><g><g><path fill="#fff" d="M41.014 23.32l-7.338-4.645a1.24 1.24 0 0 0-1.326 2.093l5.767 3.651-5.692 3.985a1.238 1.238 0 1 0 1.42 2.03l7.217-5.052a1.236 1.236 0 0 0-.048-2.061z"/></g></g><g><g><path fill="#fff" d="M21.947 19.058a1.24 1.24 0 0 0-1.71-.384l-7.339 4.647a1.248 1.248 0 0 0-.576 1.017c-.007.415.19.807.53 1.044l7.217 5.051a1.24 1.24 0 0 0 1.42-2.03l-5.691-3.983 5.764-3.652c.581-.366.75-1.132.385-1.71z"/></g></g><g><g><path fill="#fff" d="M50.78 8.79H3.134V4.17c0-.697.563-1.265 1.258-1.265h45.13c.693 0 1.258.568 1.258 1.265zM4.392.428C2.34.427.67 2.107.67 4.17v5.86c0 .685.551 1.239 1.232 1.239h50.11c.682 0 1.233-.554 1.233-1.24V4.17c0-2.062-1.67-3.742-3.723-3.742z"/></g></g><g><g><path fill="#fff" d="M52.013 14.057a1.23 1.23 0 0 0-1.233 1.229v26.428c0 .692-.565 1.254-1.258 1.254H4.392a1.257 1.257 0 0 1-1.258-1.254V15.286c0-.68-.55-1.23-1.232-1.23a1.23 1.23 0 0 0-1.232 1.23v26.428a3.723 3.723 0 0 0 3.723 3.713h45.129a3.723 3.723 0 0 0 3.723-3.713V15.286c0-.68-.551-1.23-1.232-1.23z"/></g></g><g><g><path fill="#fff" d="M24.828 33.431a1.24 1.24 0 0 0 1.193-.904L30.28 17.35a1.24 1.24 0 0 0-.859-1.528 1.241 1.241 0 0 0-1.527.857l-4.26 15.179a1.238 1.238 0 0 0 1.194 1.574z"/></g></g><g><g><path fill="#fff" d="M6.601 4.396a1.297 1.297 0 1 0 .004 2.593 1.297 1.297 0 0 0-.004-2.593z"/></g></g><g><g><path fill="#fff" d="M11.348 4.396a1.297 1.297 0 1 0 .004 2.593 1.297 1.297 0 0 0-.004-2.593z"/></g></g><g><g><path fill="#fff" d="M16.122 4.396a1.297 1.297 0 0 0 0 2.592 1.297 1.297 0 0 0 0-2.592z"/></g></g><g><g><path fill="#fff" d="M7.899 36.728a1.238 1.238 0 1 0 0 2.478h4.026a1.238 1.238 0 1 0 0-2.478z"/></g></g><g><g><path fill="#fff" d="M46.326 36.728H35.794a1.238 1.238 0 1 0 0 2.478h10.532a1.238 1.238 0 1 0 0-2.478z"/></g></g><g><g><path fill="#fff" d="M46.326 31.838H41.68a1.238 1.238 0 1 0 0 2.478h4.646a1.238 1.238 0 1 0 0-2.478z"/></g></g></g></g></svg>