<svg xmlns="http://www.w3.org/2000/svg" width="37" height="37" viewBox="0 0 37 37"><g><g><g><g><path fill="#49d6cb" d="M18.331 36.587C8.5 36.587.5 28.587.5 18.755S8.499.924 18.331.924s17.83 8 17.83 17.831c0 9.832-7.998 17.832-17.83 17.832z"/></g></g><g><g><g><path fill="#fff" d="M21.514 19.115l-4.736 2.597c-.206.112-.392-.037-.392-.272v-5.332c0-.237.191-.386.398-.269l4.769 2.735c.21.12.174.425-.039.54zm7.493-3.064a4.58 4.58 0 0 0-4.579-4.58H12.551a4.58 4.58 0 0 0-4.579 4.58v5.566a4.58 4.58 0 0 0 4.58 4.58h11.876a4.58 4.58 0 0 0 4.58-4.58z"/></g></g></g></g></g></svg>