<svg xmlns="http://www.w3.org/2000/svg" width="936" height="392" viewBox="0 0 936 392"><g><g><g><path fill="#49d6cb" d="M46.594 53.982v41.635H0V62.751C0 44.954 2.572 32.072 7.729 24.1c6.758-10.62 17.46-18.655 32.107-24.1l10.62 13.942C41.601 17 35.084 21.551 30.903 27.59c-4.19 6.046-6.52 14.84-7 26.393z"/></g><g><path fill="#49d6cb" d="M110.363 53.982v41.635H63.769V62.751c0-17.797 2.572-30.679 7.725-38.65 6.758-10.62 17.46-18.655 32.106-24.1l10.62 13.942C105.37 17 98.855 21.551 94.669 27.59c-4.186 6.046-6.517 14.84-7 26.393z"/></g></g><g><g><path fill="#49d6cb" d="M889.537 337.802V296H936v32.998c0 17.868-2.565 30.801-7.707 38.804-6.74 10.663-17.412 18.73-32.017 24.198l-10.59-13.999c8.83-3.068 15.328-7.639 19.498-13.7 4.178-6.07 6.502-14.9 6.98-26.499z"/></g><g><path fill="#49d6cb" d="M824.379 337.802V296h46.463v32.998c0 17.868-2.565 30.801-7.703 38.804-6.739 10.663-17.411 18.73-32.017 24.198l-10.59-13.999c8.826-3.068 15.324-7.639 19.498-13.7 4.174-6.07 6.498-14.9 6.98-26.499z"/></g></g></g></svg>