<svg xmlns="http://www.w3.org/2000/svg" width="1042" height="836" viewBox="0 0 1042 836"><g><g><path fill="#f4f6fc" d="M2.67 831.11c-17.405-78.324 58.573-142.69 132.408-142.893 31.835-.088 63.615 6.168 95.354 3.696 43.958-3.423 86.317-24.293 115.816-57.06 0 0 20.358-38.363 72.444-127.653S571.229 358.384 671.68 380.706c100.45 22.323 137.394-3.802 137.394-3.802 34.76-20.377 63.727-55.737 64.406-96.024.655-38.803-24.186-73.433-30.676-111.696-10.672-62.906 32.953-126.665 91.285-152.52C967.26 1.962 1003.734-2.225 1040 1.047l1.256 834.764z"/></g></g></svg>