<svg xmlns="http://www.w3.org/2000/svg" width="314" height="563" viewBox="0 0 314 563"><g><g><g opacity=".59"><path fill="none" stroke="#707070" stroke-dasharray="5 5" stroke-miterlimit="20" stroke-width="3" d="M70.281 397.526v0s-93.188-70.083 7.541-86.781c100.73-16.699 106.656-51.173 81.338-65.717-25.317-14.544-86.185 10.774-101.806 2.694"/></g><g opacity=".15"><path d="M.665 553.153c0-5.039 69.994-9.123 156.335-9.123 86.342 0 156.335 4.084 156.335 9.123s-69.993 9.124-156.335 9.124c-86.341 0-156.335-4.085-156.335-9.124z"/></g><g opacity=".7"><g opacity=".7"><g opacity=".7"><path fill="#ffd844" d="M63.03 227.623l-7.406 8.457-46.16-13.44z"/></g><g opacity=".7"><path fill="#f6af00" d="M53.606 253.741l2.018-17.66-46.16-13.44 39.338 20.827z"/></g><g opacity=".7"><path fill="#ffd844" d="M36.33 256.103l12.472-12.636L9.463 222.64z"/></g></g></g><g opacity=".8"><g opacity=".8"><path fill="#738598" d="M265.642 540.063c.006 2.682-.884 4.918-2.669 6.71-1.785 1.344-3.571 2.24-6.253 2.245l-196.659.364c-2.235.004-4.471-.886-6.262-2.223-1.791-1.785-2.689-4.018-2.694-6.7l-.242-130.957 214.537-.396.242 130.957z"/></g><g opacity=".8"><path fill="#3c415e" d="M262.973 546.772c-1.785 1.344-3.571 2.241-6.253 2.246l-196.659.364c-2.235.004-4.471-.886-6.262-2.223l104.421-90.03z"/></g><g opacity=".8"><path fill="#3c415e" d="M265.4 409.106l-30.352 21.957-70.971 51.084a10.057 10.057 0 0 1-12.068.022l-70.712-50.822-30.434-21.845 30.353-21.956 66.061-47.5 4.91-3.584a10.057 10.057 0 0 1 12.068-.022l4.923 3.566 31.776 22.736 15.663 11.145 18.35 13.374z"/></g><g opacity=".8"><path fill="#faf9f9" d="M234.93 367.596l.118 63.467-70.971 51.084a10.057 10.057 0 0 1-12.068.022l-70.712-50.822-.152-82.24c-.01-4.916 4.005-8.946 8.922-8.955l116.654-.215z"/></g><g opacity=".8"><path fill="#afb9ca" d="M207.207 360.496c.007 4.022 3.141 7.145 7.164 7.138l20.56-.038-27.763-27.66z"/></g></g><g><g><path fill="#ffda32" d="M74.199 513.409c-1.852-.282-3.858.788-5.498 1.507-.176.077-.545.28-.927.483.655-.749 1.314-1.494 1.978-2.235.44-.492.888-.98 1.335-1.47.478.075 1.483-.096 2.629.032 1.355.152 1.929.683 3.166-.347 1.167-.97 1.66-2.663-.184-2.941-1.568-.237-3.021.786-4.318 1.82 1.36-1.54 2.642-3.133 3.625-4.911 4.874-2.47 7.19-9.713 6.495-14.763-.066-.485-.172-1-.52-1.345-.751-.75-2.075-.224-2.78.57-.988 1.113-1.426 2.617-1.584 4.097-.158 1.48-.066 2.974-.141 4.46-.064 1.251-.316 2.416-.626 3.562-.013.02-.028.036-.038.06-.763 1.904-1.897 3.603-3.191 5.197.477-1.177.71-2.904.794-3.583.234-1.895-.004-3.9-.982-5.54-.182-.305-.429-.622-.78-.671-.443-.062-.814.325-1.057.7a6.31 6.31 0 0 0-.9 4.517c.362 1.98 1.414 3.792 1.857 5.757.026-.001.05-.006.074-.01-.805.914-1.647 1.8-2.486 2.675.347-1.634.31-3.596.14-4.493-.137-.71-.377-1.432-.885-1.947-.509-.514-1.34-.763-1.98-.424-.373.197-.634.563-.792.954-.507 1.252-.06 2.666.387 3.94s.843 2.595 1.344 3.852c-.1.107-.2.213-.297.32a221.935 221.935 0 0 0-4.218 4.723 23.154 23.154 0 0 0 1.059-3.396c.526-2.335.598-4.81-.113-7.065-.286-.905-.715-1.795-1.434-2.39-.291-.243-.684-.436-1.039-.292-.19.078-.335.24-.457.409-.76 1.052-.849 2.457-.689 3.738.254 2.032 1.045 3.934 1.607 5.893.322 1.123.666 2.416.601 3.64a148.91 148.91 0 0 0-4.167 5.06c.933-2.038 1.403-4.735 1.635-6.655.227-1.872.036-4.043-1.447-5.21-.216-.169-.459-.314-.728-.368-.845-.17-1.614.596-1.903 1.407-.37 1.038-.242 2.191.063 3.25.305 1.057.78 2.06 1.11 3.11.588 1.87.57 3.701.388 5.602a128.494 128.494 0 0 0-3.018 4.089c.256-1.044.378-2.171.428-2.754.163-1.9-.073-3.837-.724-5.63-.22-.607-.569-1.271-1.198-1.414-.548-.124-1.097.206-1.5.596a4.589 4.589 0 0 0-1.314 3.944c.146.921.572 1.771.993 2.604l1.305 2.584a6.16 6.16 0 0 1 .64 2.052c-1.05 1.55-2.061 3.127-3.026 4.73.2-.755.357-1.521.446-2.294.202-1.74.029-3.568-.79-5.118-.282-.534-.684-1.063-1.268-1.217-.825-.218-1.687.456-1.933 1.273-.245.818-.015 1.704.33 2.485a8.759 8.759 0 0 0 1.248 2.026c.36.438.767.849 1.011 1.36.302.634.324 1.36.34 2.061l.01.437a107.744 107.744 0 0 0-2.184 3.853c.046-1.587-.445-3.275-1.19-4.551-.468-.802-1.296-1.61-2.192-1.369a1.414 1.414 0 0 0-.718.483c-.669.824-.39 2.09.235 2.948.624.859 1.524 1.476 2.21 2.286.394.464.546 1.231.863 1.723-1.057 2.096-1.992 4.25-2.68 6.459-.203.648.666.946.966.364.817-1.58 1.605-3.167 2.4-4.75.8.387 4.153 1.055 4.669 1.193.822.22 1.843.112 2.31-.6.451-.686.157-1.676-.477-2.198s-1.507-.657-2.327-.62c-.461.02-2.48.466-3.606 1.102.822-1.62 1.664-3.23 2.56-4.817.523-.03 1.068-.089 1.597.008.84.153 1.624.55 2.468.686.844.136 1.845-.076 2.258-.825.491-.894-.187-2.085-1.14-2.448-.954-.363-2.03-.109-2.974.28-.299.122-.727.288-1.157.498.077-.127.15-.257.229-.384.424-.69.858-1.375 1.298-2.056 1.108.237 2.672-.12 3.849-.088 1.107.03 2.268.12 3.271-.35 1.003-.47 1.726-1.752 1.171-2.711-.503-.87-1.717-.996-2.702-.804-1.062.207-2.954.966-4.28 1.969a134.926 134.926 0 0 1 2.972-4.229c1.925-.228 4.418 1.258 6.484.518.835-.3 1.984-1.26 1.564-2.325-.331-.838-1.765-.901-2.516-.97-1.278-.117-2.84.262-4.193.971a163.369 163.369 0 0 1 2.855-3.682c.735-.046 2.01-.07 3.181.123 1.521.25 3.114.841 4.337-.551 1.118-1.274 1.626-3.925-.716-3.784-1.317.08-3.333.87-4.956 1.933a198.018 198.018 0 0 1 3.255-3.844c1.153.141 2.147-.057 3.796.505 1.335.456 2.945 1.724 4.18.586 1.464-1.351.765-3.344-1.076-3.625z"/></g><g><path fill="#ffda32" d="M55.464 507.571c-1.794.538-3.15 2.365-4.323 3.717-.126.145-.373.486-.63.833.27-.957.546-1.913.83-2.867.187-.633.382-1.266.576-1.9.465-.137 1.299-.722 2.39-1.097 1.29-.443 2.035-.209 2.712-1.67.639-1.376.36-3.117-1.426-2.578-1.518.458-2.393 2.004-3.122 3.494.57-1.974 1.046-3.962 1.172-5.991 3.347-4.319 2.338-11.856-.453-16.122-.268-.41-.584-.83-1.045-.993-1.001-.356-1.972.687-2.269 1.706-.416 1.429-.167 2.976.323 4.38.49 1.405 1.214 2.716 1.783 4.091.478 1.158.749 2.319.96 3.487-.004.023-.01.045-.009.071.126 2.047-.17 4.068-.658 6.062-.073-1.267-.601-2.928-.816-3.577-.6-1.814-1.674-3.522-3.26-4.586-.296-.198-.654-.379-.994-.272-.426.134-.595.642-.654 1.085a6.307 6.307 0 0 0 1.12 4.467c1.176 1.634 2.903 2.822 4.145 4.407.022-.012.042-.026.062-.04a87.064 87.064 0 0 1-1.101 3.482c-.386-1.626-1.26-3.383-1.798-4.12-.427-.584-.953-1.133-1.633-1.38-.68-.248-1.538-.116-1.971.464-.253.338-.332.78-.307 1.201.078 1.349 1.087 2.435 2.037 3.396.95.958 1.873 1.983 2.864 2.904l-.132.417a222.946 222.946 0 0 0-1.788 6.074 23.122 23.122 0 0 0-.498-3.522c-.524-2.336-1.52-4.603-3.128-6.337-.645-.695-1.414-1.315-2.319-1.546-.367-.094-.805-.1-1.064.182-.138.151-.2.36-.237.565-.237 1.276.285 2.584.978 3.673 1.1 1.728 2.628 3.108 3.975 4.637.773.877 1.637 1.898 2.103 3.032a148.22 148.22 0 0 0-1.598 6.358c-.031-2.242-.761-4.88-1.373-6.715-.597-1.79-1.7-3.67-3.539-4.088-.268-.06-.55-.087-.816-.02-.836.207-1.203 1.229-1.117 2.086.11 1.095.72 2.083 1.449 2.909.728.825 1.586 1.528 2.334 2.335 1.333 1.439 2.102 3.1 2.75 4.897a128.497 128.497 0 0 0-.976 4.987c-.215-1.053-.588-2.124-.792-2.672a13.249 13.249 0 0 0-3.066-4.778c-.458-.454-1.058-.905-1.688-.764-.548.122-.903.655-1.1 1.181a4.588 4.588 0 0 0 .501 4.126c.527.77 1.276 1.356 2.013 1.928l2.287 1.777a6.16 6.16 0 0 1 1.455 1.58 105.03 105.03 0 0 0-.707 5.57 16.381 16.381 0 0 0-.58-2.264c-.563-1.66-1.502-3.237-2.906-4.287-.483-.361-1.073-.667-1.667-.557-.839.157-1.33 1.135-1.201 1.979.128.844.716 1.546 1.362 2.104.602.52 1.275.958 1.995 1.297.512.241 1.057.438 1.497.796.544.443.875 1.09 1.19 1.716l.196.39c-.133 1.459-.25 2.935-.325 4.418-.638-1.454-1.804-2.769-3.024-3.603-.765-.525-1.86-.9-2.567-.298-.223.19-.373.459-.442.744-.25 1.03.544 2.055 1.475 2.563.932.509 2.01.681 2.977 1.119.555.25 1.02.88 1.517 1.187-.057 2.348.02 4.694.344 6.985.094.672 1.007.57 1.03-.085.061-1.777.093-3.549.134-5.319.89.006 4.204-.826 4.73-.922.837-.153 1.713-.689 1.83-1.531.114-.814-.575-1.582-1.372-1.782-.797-.2-1.643.051-2.368.436-.409.216-2.043 1.484-2.787 2.54.049-1.817.12-3.632.251-5.45.46-.25.927-.537 1.446-.676.825-.222 1.703-.2 2.524-.437.82-.238 1.635-.86 1.687-1.713.061-1.018-1.061-1.804-2.078-1.724-1.018.08-1.882.772-2.569 1.527-.217.238-.532.572-.83.945.014-.148.025-.296.041-.444.088-.806.187-1.61.293-2.414 1.102-.26 2.363-1.253 3.44-1.728 1.013-.448 2.102-.863 2.806-1.717.705-.855.81-2.323-.102-2.952-.828-.57-1.978-.165-2.787.431-.87.642-2.256 2.138-3.025 3.613.258-1.704.552-3.402.876-5.095 1.641-1.03 4.53-.756 6.08-2.31.627-.627 1.254-1.986.418-2.77-.658-.615-1.98-.058-2.689.202-1.204.44-2.453 1.452-3.373 2.673.137-.665.277-1.33.421-1.994.187-.854.382-1.705.582-2.556.644-.357 1.787-.924 2.928-1.252 1.481-.426 3.174-.573 3.683-2.355.464-1.63-.212-4.244-2.268-3.113-1.155.636-2.64 2.214-3.65 3.869.41-1.628.843-3.25 1.294-4.867 1.103-.366 1.916-.972 3.647-1.169 1.402-.16 3.4.297 4.028-1.261.745-1.848-.74-3.35-2.524-2.815z"/></g><g><g><path fill="#00b256" d="M37.604 551.96s-7.546-11.749-3.259-28.472c0 0 12.35 2.745 16.466 28.472z"/></g><g><path fill="#00663e" d="M43.23 551.96s-3.225-15.436-5.026-18.524c0 0 5.42 9.777 6.226 18.524z"/></g></g><g><g><path fill="#00b256" d="M58.468 552.182s7.546-11.748 3.258-28.471c0 0-12.348 2.744-16.465 28.471z"/></g><g><path fill="#00663e" d="M52.842 552.182s3.224-15.436 5.025-18.523c0 0-5.418 9.776-6.225 18.523z"/></g></g><g><g><path fill="#aaff6e" d="M72.74 552.182s9.728-15.145 4.2-36.7c0 0-15.918 3.537-21.225 36.7z"/></g><g><path fill="#00663e" d="M65.488 552.182s4.156-19.898 6.478-23.878c0 0-6.986 12.603-8.025 23.878z"/></g></g><g><g><path fill="#aaff6e" d="M20.44 552.182s-9.727-15.145-4.2-36.7c0 0 15.918 3.537 21.225 36.7z"/></g><g><path fill="#00663e" d="M27.692 552.182s-4.156-19.898-6.477-23.878c0 0 6.985 12.603 8.025 23.878z"/></g></g></g><g><g transform="rotate(-45 265.5 517.5)"><path fill="#faf9f9" d="M233.533 517.305c0-17.684 14.335-32.02 32.02-32.02 17.684 0 32.02 14.336 32.02 32.02 0 17.685-14.336 32.02-32.02 32.02-17.685 0-32.02-14.336-32.02-32.02z"/></g><g><path fill="#3c415e" d="M247.08 517.305c0-10.202 8.27-18.473 18.473-18.473 10.202 0 18.473 8.271 18.473 18.473 0 10.203-8.271 18.473-18.473 18.473-10.203 0-18.473-8.27-18.473-18.473z"/></g><g><path fill="#ff666a" d="M245.848 551.788a1.23 1.23 0 0 1-.87-2.102l4.843-4.843a1.23 1.23 0 0 1 1.741 0 1.23 1.23 0 0 1 0 1.741l-4.843 4.843c-.24.24-.556.361-.871.361z"/></g><g><path fill="#ff666a" d="M285.257 551.788c-.315 0-.63-.12-.87-.36l-4.881-4.88a1.23 1.23 0 1 1 1.741-1.742l4.88 4.88a1.23 1.23 0 0 1-.87 2.102z"/></g><g><path fill="#fcc072" d="M287.836 495.401a1.23 1.23 0 0 1-.87-2.102l3.694-3.695a1.23 1.23 0 1 1 1.741 1.742l-3.695 3.695a1.227 1.227 0 0 1-.87.36z"/></g><g><path fill="#fcc072" d="M243.27 495.401c-.315 0-.63-.12-.87-.36l-3.695-3.695a1.23 1.23 0 1 1 1.741-1.742l3.695 3.695a1.23 1.23 0 0 1-.87 2.102z"/></g><g><path fill="#ffda32" d="M295.11 517.305c0 16.297-13.26 29.557-29.558 29.557-16.298 0-29.556-13.26-29.556-29.557 0-16.297 13.258-29.556 29.556-29.556 16.299 0 29.557 13.26 29.557 29.556zm4.925 0c0-19.013-15.469-34.483-34.483-34.483-19.013 0-34.482 15.47-34.482 34.483 0 19.014 15.469 34.483 34.482 34.483 19.015 0 34.483-15.469 34.483-34.483z"/></g><g><g><path fill="#fb7668" d="M265.553 488.831c-.68 0-1.232.55-1.232 1.232v1.231a1.231 1.231 0 1 0 2.463 0v-1.231a1.23 1.23 0 0 0-1.231-1.232z"/></g><g><path fill="#fb7668" d="M265.553 541.787c-.68 0-1.232.55-1.232 1.232v1.231a1.231 1.231 0 1 0 2.463 0v-1.231a1.23 1.23 0 0 0-1.231-1.232z"/></g><g><path fill="#fb7668" d="M292.646 515.925h-1.231a1.231 1.231 0 1 0 0 2.463h1.231a1.231 1.231 0 1 0 0-2.463z"/></g><g><path fill="#fb7668" d="M239.69 515.925h-1.231a1.231 1.231 0 1 0 0 2.463h1.231a1.231 1.231 0 1 0 0-2.463z"/></g><g><path fill="#fb7668" d="M283.84 497.127l-.871.87a1.23 1.23 0 0 0 .87 2.103c.316 0 .631-.121.871-.361l.871-.871a1.23 1.23 0 1 0-1.742-1.741z"/></g><g><path fill="#fb7668" d="M246.395 534.573l-.871.87a1.23 1.23 0 1 0 1.741 1.742l.871-.87a1.231 1.231 0 1 0-1.741-1.741z"/></g><g><path fill="#fb7668" d="M284.71 534.573a1.23 1.23 0 1 0-1.741 1.741l.87.87a1.229 1.229 0 0 0 1.742 0 1.23 1.23 0 0 0 0-1.74z"/></g><g><path fill="#fb7668" d="M247.265 497.127a1.23 1.23 0 1 0-1.741 1.74l.87.872a1.228 1.228 0 0 0 1.742 0 1.23 1.23 0 0 0 0-1.742z"/></g></g><g><path fill="#fb7668" d="M263.09 517.306a2.465 2.465 0 0 1 2.463-2.464 2.465 2.465 0 0 1 2.463 2.464 2.465 2.465 0 0 1-2.463 2.462 2.465 2.465 0 0 1-2.463-2.462zm-12.315 0c0 .68.55 1.231 1.231 1.231h8.796c.55 2.119 2.462 3.695 4.751 3.695a4.931 4.931 0 0 0 4.926-4.926c0-2.29-1.575-4.201-3.694-4.752v-12.49a1.231 1.231 0 1 0-2.463 0v12.49a4.918 4.918 0 0 0-3.52 3.52h-8.796c-.68 0-1.231.55-1.231 1.232z"/></g><g><path fill="#ff666a" d="M297.468 483.967a8.77 8.77 0 0 1 0 12.402l-12.404-12.402a8.772 8.772 0 0 1 12.404 0z"/></g><g><path fill="#ff666a" d="M233.639 483.967a8.77 8.77 0 0 0 0 12.402l12.402-12.402a8.77 8.77 0 0 0-12.402 0z"/></g></g><g><g><path fill="#fccb95" d="M266.66 416.55c-.14.064-.59-2.931-.59-2.931h-4.043v2.995z"/></g><g><path fill="#fcc072" d="M248.402 395.8s-2.096 1.498-2.546 4.942"/></g><g><path fill="#3c415e" d="M269.364 439.373l-1.796 15.722 8.085 23.658h-4.043l-9.364-20.147a5.569 5.569 0 0 1-.518-2.346l-.749-6.106-1.647 6.888.899 21.711h-3.594l-4.342-23.67a6.387 6.387 0 0 1 .236-3.209l4.256-12.5z"/></g><g><path fill="#fb7668" d="M271.012 439.373h-15.124l1.648-16.47-6.44-2.846 4.044-5.24 10.309 1.429a5.772 5.772 0 0 1 4.976 5.525z"/></g><g><path fill="#ffe1bd" d="M263.226 414.068s-2.097-1.048-2.845-1.946c-.75-.899 1.048-5.24 2.845-6.29 1.796-1.047 4.791-1.197 4.791.6 0 1.797 1.497 4.791 0 5.54-1.497.749-1.947 2.246-4.791 2.096z"/></g><g><path fill="#3c415e" d="M264.274 406.731s-2.396-2.994-.899-5.989c0 0 .6 1.497 2.546 1.946 1.946.45 4.172.88 4.94 2.995 1.199 3.294 1.27 7.048-5.24 7.936 0 0 2.695-2.396 2.096-4.043-.599-1.647-2.395-1.946-3.443-2.845z"/></g><g><path fill="#ffd200" d="M262.926 405.833L248.402 395.8s-.749 4.043-2.546 4.941z"/></g><g><g><path fill="#ffe1bd" d="M247.634 415.966l1.165-14.121-.006-.002.011-.066.008-.093.007.003c.41-2.36 1.39-2.892 1.83-2.892.448 0 1.197.6 1.346 1.498.14.84-.84 2.295-.965 2.477l.067 11.298 4.043.749-3.594 4.642-2.004-.668a2.798 2.798 0 0 1-1.908-2.825z"/></g><g><path fill="#ffe1bd" d="M257.985 404.186l.671 11.118-3.516-.487.552-11.142z"/></g></g><g><path fill="#3c415e" d="M275.654 478.753h-4.043l-4.002 3.136c-.504.396-.225 1.206.417 1.206h6.952a.675.675 0 0 0 .676-.675z"/></g><g><path fill="#3c415e" d="M260.231 478.753h-3.594l-4.405 3.116c-.538.38-.269 1.226.39 1.226h6.934a.675.675 0 0 0 .675-.675z"/></g></g><g opacity=".1"><path fill="#738598" d="M21.36 385.525a8.123 8.123 0 1 1 0-16.245 8.123 8.123 0 0 1 0 16.245zm10.438-14.466l2.476-1.844a15.359 15.359 0 0 0-4.727-4.727l-1.844 2.477a12.135 12.135 0 0 0-3.447-1.43l.447-3.059a15.328 15.328 0 0 0-3.343-.377c-1.15 0-2.266.137-3.343.377l.448 3.06c-1.234.3-2.392.786-3.448 1.429l-1.844-2.477a15.356 15.356 0 0 0-4.727 4.727l2.476 1.844a12.135 12.135 0 0 0-1.43 3.448l-3.058-.448a15.335 15.335 0 0 0-.378 3.343c0 1.15.138 2.266.378 3.343l3.059-.447c.3 1.234.786 2.392 1.43 3.447l-2.477 1.844a15.36 15.36 0 0 0 4.727 4.727l1.844-2.476a12.124 12.124 0 0 0 3.448 1.43l-.448 3.058c1.077.24 2.193.378 3.343.378s2.266-.137 3.343-.378l-.447-3.058c1.234-.3 2.392-.787 3.447-1.43l1.844 2.476a15.358 15.358 0 0 0 4.727-4.727l-2.476-1.844a12.131 12.131 0 0 0 1.43-3.447l3.058.447c.24-1.077.378-2.193.378-3.343s-.138-2.266-.378-3.343l-3.059.448a12.133 12.133 0 0 0-1.43-3.448z"/></g><g opacity=".1"><g opacity=".1"><g opacity=".1" transform="rotate(18.432 58.5 299)"><path fill="#3c415e" d="M42.765 309.272v-20.509h31.546v20.51z"/></g><g opacity=".1"><path fill="#3c415e" d="M76.744 294.276l-29.927-9.974 19.063-7.315z"/></g><g opacity=".1" transform="rotate(18.433 59 297.5)"><path fill="#fff" d="M46.204 308.535v-21.33h25.253v21.33z"/></g><g opacity=".1"><path fill="#738598" d="M46.817 284.302l-6.485 19.457 17.977-4.054z"/></g><g opacity=".1"><path fill="#738598" d="M76.744 294.276l-6.485 19.457-11.95-14.028z"/></g><g opacity=".1"><path fill="#3c415e" d="M70.26 313.733l-29.928-9.974 19.064-7.315z"/></g></g><g opacity=".1"><path fill="#3c415e" d="M40.332 303.76l4.737-1.904 4.75-1.871 4.758-1.85 4.76-1.843.126-.05.071.115 2.704 4.33c.898 1.445 1.807 2.883 2.696 4.335l2.677 4.346 2.648 4.365-2.784-4.28-2.754-4.298c-.922-1.43-1.824-2.873-2.735-4.31l-2.728-4.314.196.065-4.77 1.815-4.775 1.807-4.783 1.787z"/></g></g><g opacity=".1"><g opacity=".1"><g opacity=".1"><path fill="#738598" d="M221.474 302.382a2.16 2.16 0 1 1-4.321.002 2.16 2.16 0 0 1 4.32-.002z"/></g></g><g opacity=".1"><g opacity=".1"><path fill="#738598" d="M217.152 295.514c4.98 0 9.03 4.05 9.03 9.03h2.957c0-6.61-5.377-11.987-11.987-11.987z"/></g><g opacity=".1"><path fill="#738598" d="M217.152 287.814c9.225 0 16.73 7.504 16.73 16.729h3.38c0-11.087-9.02-20.108-20.11-20.108z"/></g><g opacity=".1"><path fill="#738598" d="M217.152 280.2c13.423 0 24.344 10.92 24.344 24.343h3.638c0-15.429-12.553-27.98-27.982-27.98z"/></g></g></g><g opacity=".1"><g opacity=".1"><g opacity=".1"><path fill="#738598" d="M286.417 368.195a5.689 5.689 0 0 1-5.682-5.682 5.688 5.688 0 0 1 5.682-5.682 5.688 5.688 0 0 1 5.682 5.682 5.689 5.689 0 0 1-5.682 5.682zm14.547-2.49v-6.385h-2.911c-.27-.98-.659-1.91-1.153-2.775l2.061-2.06-4.514-4.517-2.062 2.062a11.983 11.983 0 0 0-2.774-1.152v-2.912h-6.386v2.912c-.981.269-1.91.658-2.775 1.152l-2.061-2.062-4.516 4.516 2.061 2.061a12 12 0 0 0-1.153 2.775h-2.911v6.385h2.911c.27.981.66 1.911 1.153 2.775l-2.061 2.062 4.516 4.516 2.06-2.062c.865.494 1.795.884 2.776 1.154v2.91h6.386v-2.91c.98-.27 1.91-.66 2.774-1.154l2.062 2.062 4.514-4.516-2.061-2.062c.494-.864.884-1.794 1.153-2.775z"/></g></g><g opacity=".1"><g opacity=".1"><path fill="#738598" d="M270.156 340.09a3.721 3.721 0 0 1 3.717-3.716 3.721 3.721 0 0 1 3.716 3.716 3.72 3.72 0 0 1-3.716 3.716 3.72 3.72 0 0 1-3.717-3.716zm5.805 9.515v-1.904a7.904 7.904 0 0 0 1.815-.755l1.348 1.348 2.953-2.952-1.348-1.349a7.883 7.883 0 0 0 .754-1.814h1.905v-4.178h-1.905a7.87 7.87 0 0 0-.754-1.814l1.348-1.349-2.953-2.953-1.349 1.348a7.86 7.86 0 0 0-1.814-.754v-1.904h-4.176v1.904a7.86 7.86 0 0 0-1.816.754l-1.348-1.348-2.954 2.953 1.349 1.348a7.878 7.878 0 0 0-.754 1.815h-1.905v4.178h1.905c.176.64.431 1.249.754 1.814l-1.349 1.349 2.954 2.952 1.348-1.348a7.873 7.873 0 0 0 1.816.755v1.904z"/></g></g></g><g opacity=".1"><g opacity=".1"><path fill="#738598" d="M271.08 275.46l3.221 10.049h18.15l-3.222-10.05z"/></g><g opacity=".1"><g opacity=".1"><path fill="#738598" d="M289.229 274.86h.437l.134.417 2.651 8.267v-10.052h-14.34l-.777-1.309h-3.033v2.676z"/></g></g></g><g opacity=".1"><path fill="#738598" d="M161.167 231.642L144.663 206l-16.216 25.642h9.14v21.207h14.444v-21.207z"/></g><g opacity=".1"><g opacity=".1"><path fill="#738598" d="M201.416 237.421l19.182 9.731 16.578-26.297z"/></g><g opacity=".1"><path fill="#04659b" d="M237.176 220.855l-28.373 20.313v10.742l4.886-8.263z"/></g><g opacity=".1"><path fill="#3c415e" d="M237.176 220.855l-28.373 20.313v10.742l4.886-8.263z"/></g></g><g opacity=".59"><path fill="none" stroke="#707070" stroke-dasharray="5 5" stroke-miterlimit="20" stroke-width="3" d="M152.304 338.453v0s-61.947-58.715-9.158-109.888c52.79-51.172 46.033-151.66-43.053-86.607"/></g><g opacity=".7"><g opacity=".7"><g opacity=".7" transform="rotate(18.432 83 64)"><path fill="#3c415e" d="M67.513 74.403V54.19h31.089v20.212z"/></g><g opacity=".7"><path fill="#3c415e" d="M101 59.624l-29.494-9.83 18.788-7.209z"/></g><g opacity=".7" transform="rotate(18.433 83.5 63.5)"><path fill="#fff" d="M70.902 73.676V52.654h24.887v21.022z"/></g><g opacity=".7"><path fill="#738598" d="M71.506 49.794l-6.39 19.175 17.716-3.995z"/></g><g opacity=".7"><path fill="#738598" d="M101 59.624l-6.391 19.175-11.777-13.825z"/></g><g opacity=".7"><path fill="#3c415e" d="M94.609 78.799l-29.494-9.83 18.788-7.209z"/></g></g><g opacity=".7"><path fill="#3c415e" d="M65.115 68.97l4.67-1.876 4.68-1.844 4.689-1.824 4.691-1.816.124-.048.07.113 2.664 4.267c.886 1.424 1.782 2.841 2.658 4.272l2.638 4.283 2.61 4.302-2.744-4.218-2.714-4.236c-.909-1.41-1.797-2.831-2.696-4.247l-2.688-4.252.194.064-4.702 1.79-4.706 1.78-4.713 1.76z"/></g></g><g opacity=".7" transform="rotate(-15 85 135.5)"><g opacity=".7"><path fill="#001746" d="M71.798 122.134L70.3 124.59s-5.685 7.796 6.497 20.062l-.003.002.058.055c.02.02.036.039.056.058l.002-.001c12.266 12.18 20.062 6.496 20.062 6.496l2.454-1.496a2.894 2.894 0 0 0 .31-4.362l-2.928-2.928a2.894 2.894 0 0 0-3.782-.269l-3.116 1.992s-2.095 1.236-7.95-4.597c-5.834-5.856-4.598-7.95-4.598-7.95l1.992-3.115a2.895 2.895 0 0 0-.268-3.784l-2.928-2.927a2.894 2.894 0 0 0-4.361.31z"/><path fill="none" stroke="#001746" stroke-linecap="round" stroke-linejoin="round" stroke-miterlimit="20" stroke-width="1.35" d="M71.798 122.134v0L70.3 124.59v0s-5.685 7.796 6.497 20.062l-.003.002.058.055c.02.02.036.039.056.058l.002-.001c12.266 12.18 20.062 6.496 20.062 6.496v0l2.454-1.496a2.894 2.894 0 0 0 .31-4.362l-2.928-2.928a2.894 2.894 0 0 0-3.782-.269l-3.116 1.992v0s-2.095 1.236-7.95-4.597c-5.834-5.856-4.598-7.95-4.598-7.95v0l1.992-3.115a2.895 2.895 0 0 0-.268-3.784l-2.928-2.927a2.894 2.894 0 0 0-4.361.31z"/></g><g opacity=".7"><g opacity=".7"><path fill="none" stroke="#001746" stroke-linecap="round" stroke-linejoin="round" stroke-miterlimit="20" stroke-width="1.35" d="M86.626 128.562a4.669 4.669 0 1 1 6.604 6.603"/></g><g opacity=".7"><path fill="none" stroke="#001746" stroke-linecap="round" stroke-linejoin="round" stroke-miterlimit="20" stroke-width="1.35" d="M84.53 126.465a7.635 7.635 0 0 1 10.798 10.797"/></g><g opacity=".7"><path fill="none" stroke="#001746" stroke-linecap="round" stroke-linejoin="round" stroke-miterlimit="20" stroke-width="1.35" d="M82.393 124.328c4.162-4.162 10.909-4.162 15.07 0 4.162 4.161 4.162 10.91 0 15.07"/></g></g></g><g opacity=".59"><path fill="none" stroke="#707070" stroke-dasharray="5 5" stroke-miterlimit="20" stroke-width="3" d="M163.912 338.453v0s153.304-152.367 99.438-158.831c-53.867-6.465-72.18-69.488-57.098-94.266 15.082-24.778 12.281-92.756-97.66-26.932"/></g></g></g></svg>