<svg xmlns="http://www.w3.org/2000/svg" width="369" height="444" viewBox="0 0 369 444"><g><g><g><g><path fill="#fff9ea" d="M179.266 122.538l57.155-1.222-6.812-74.617-85.408 5.428-3.743 71.518 21.346-.437-17.567 43.523z"/></g></g><g><g><path fill="#fff9ea" d="M78.222 108.926l34.476-1.323-6.812-65.43-99.85 4.84-2.534 63.542 54.257-1.076 30.033 34.698z"/></g></g><g><g><path fill="#3e2624" d="M72.101 291.266L69.116 441.66l73.933.008-2.116-143.503z"/></g><g><g><g><g><path fill="#351f1d" d="M11.337 291.147l-6.73 150.505 67.495.008-.012-143.522z"/></g><g transform="rotate(-89.94 286.5 367)"><path fill="#2c1816" d="M210.918 372.61v-11.87H361.91v11.87z"/></g><g><path fill="#593d3d" d="M292.359 442.165l10.55.012.012-151-10.563 7.74z"/></g></g><g><g><path fill="#2c1816" d="M238.267 442.165V291.172h10.55v150.993z"/></g><g transform="rotate(-.067 251 367)"><path fill="#593d3d" d="M245.723 442.158V291.165h10.544v150.993z"/></g></g><g><path fill="#3e2624" d="M11.337 306.665v-15.509H274.46v15.509z"/></g><g><path fill="#593d3d" d="M72.096 306.661v-15.498h230.822v15.498z"/></g></g></g><g><path fill="#2c1816" d="M134.972 345.027H77.617l.568-28.552h56.364z"/></g><g><path fill="#2c1816" d="M135.591 387.08l-.5-33.952H77.458l-.674 33.952z"/></g><g><path fill="#2c1816" d="M76.616 395.569l-.638 32.137 60.212.006-.474-32.143z"/></g><g><path fill="#593d3d" d="M114.878 316.476c0 3.343-4.51 6.057-10.067 6.057-5.563 0-10.066-2.714-10.066-6.057z"/></g><g><path fill="#593d3d" d="M116.361 353.127c0 3.348-4.509 6.057-10.066 6.057-5.563 0-10.067-2.709-10.067-6.057z"/></g><g><path fill="#593d3d" d="M115.383 395.57c0 3.344-4.509 6.058-10.066 6.058-5.563 0-10.073-2.714-10.073-6.057z"/></g></g><g><g><path fill="#e69d32" d="M110.261 179.517c.247-2.526.188-6.552 1.747-12.378h12.668c-.16 3.45.737 7.062 2.414 10.427 3.289 6.6 7.25 12.045 6.987 19.843-.188 5.81-3.349 12.018-8.546 14.507-3.956 1.892-9.084 2.37-13.297.295-1.854-.913-.51-5.09.312-5.976 2.467-2.66 3.875-6.649 2.59-9.45-2.628-5.745-5.504-10.738-4.875-17.268z"/></g><g><g><g><g><g><path fill="#ffcd9c" d="M164.03 252.866c-2.79.038-5.627-.403-8.476-1.338-16.747-5.52-30.56-27.207-32.48-43.219a5.115 5.115 0 1 1 10.158-1.215c1.522 12.664 13.003 30.583 25.525 34.71 6.289 2.075 11.922.356 17.21-5.256 5.558-5.89 12.088-25.567 11.949-34.817l5.692.005c.15 10.12-1.898 33.033-10.197 41.832-5.686 6.036-12.372 9.196-19.38 9.298z"/></g></g></g></g><g><g><g><g><path fill="#fefefe" d="M185.277 207.573c-.56 9.492-4.273 23.644-9.31 28.975-5.288 5.612-10.92 7.331-17.21 5.257-12.522-4.128-24.003-22.047-25.524-34.71a5.115 5.115 0 1 0-10.158 1.214c1.919 16.012 15.732 37.699 32.48 43.219 2.848.935 5.685 1.376 8.475 1.338 7.009-.102 13.695-3.262 19.381-9.298 7.482-7.928 10.288-25.24 10.658-35.995z"/></g></g></g></g><g><g><g><g><path fill="#1c2842" d="M184.116 209.825c-.42 9.153-3.172 21.45-8.148 26.723-5.29 5.612-10.922 7.331-17.21 5.257-12.523-4.128-24.004-22.047-25.525-34.71a5.115 5.115 0 1 0-10.158 1.214c1.919 16.012 15.732 37.699 32.48 43.219 2.848.935 5.685 1.376 8.475 1.338 7.009-.102 13.695-3.262 19.381-9.298 7.514-7.966 10.836-23.38 11.293-33.743z"/></g></g></g></g><g><g><g><g><g transform="rotate(-89.799 23.5 171.5)"><path fill="#edb485" d="M17.74 174.552v-6.213h10.755v6.213z"/></g></g><g><g><path fill="#edb485" d="M6.292 165.596c.232-3.982 4.365-.247 9.869.076 5.503.306 10.303-2.924 10.072 1.07-.232 4.003-4.886 6.986-10.39 6.69-5.498-.327-9.782-3.826-9.55-7.836z"/></g></g><g><g><g><g><g><path fill="#f4b222" d="M3.277 148.854c0 8.519 6.907 15.425 15.426 15.425v-30.85c-8.519 0-15.426 6.906-15.426 15.425z"/></g><g><path fill="#f4b222" d="M34.128 148.854a15.384 15.384 0 0 1-3.891 10.244 15.455 15.455 0 0 1-8.616 4.907 15.8 15.8 0 0 1-2.918.274v-30.85c.349 0 .698.01 1.042.032 8.03.532 14.383 7.223 14.383 15.393z"/></g></g><g><path fill="#ffca00" d="M15.709 133.428c-8.52 0-15.42 6.907-15.42 15.426s6.9 15.425 15.42 15.425c8.519 0 15.425-6.906 15.425-15.425 0-8.519-6.906-15.426-15.425-15.426z"/></g><g><path fill="#f4b222" d="M15.709 136.024c-7.084 0-12.83 5.74-12.83 12.83 0 7.084 5.746 12.83 12.83 12.83 7.09 0 12.83-5.746 12.83-12.83 0-7.09-5.74-12.83-12.83-12.83z"/></g><g><path fill="#ffca00" d="M21.992 152.66c0 4.068-2.414 4.992-4.789 4.992v1.957H14.92v-1.989c-1.946-.059-2.645-.242-4.193-.725v-3.037c.957.075 3.306.236 5.526.236 1.015 0 1.827-.242 1.827-1.273v-.694c0-.86-.269-1.37-1.446-1.37h-1.849c-4.283 0-4.606-3.51-4.606-4.822v-1.488c.006-3.419 2.118-4.526 4.74-4.606v-2.054h2.285v2.07c1.682.08 2.961.349 4.15.714v3.053c-1.447-.123-4.016-.236-5.198-.236-1.381-.016-2.064.097-2.064 1.419v.586c0 1.032.43 1.45 1.699 1.45h1.918c3.548 0 4.284 2.898 4.284 4.822z"/></g></g><g opacity=".3"><g opacity=".3"><path fill="#ffca00" d="M11.99 133.88L.74 145.135a15.136 15.136 0 0 0-.451 3.687l15.388-15.394c-1.269 0-2.505.162-3.688.452z"/></g><g opacity=".3"><path fill="#ffca00" d="M21.084 134.39L1.245 154.224c1 2.682 2.72 5.015 4.93 6.756l21.665-21.66a15.469 15.469 0 0 0-6.756-4.928z"/></g></g></g></g></g><g><g><path fill="#1c2842" d="M99.158 202.279a5.547 5.547 0 0 0-7.541-2.145c-.882.495-1.833 1.032-2.817 1.602-7.987 4.574-18.919 10.84-30.792 10.239-8.244-.425-16.377-4.746-22.122-11.556a34.683 34.683 0 0 1-2.887-3.95 23.035 23.035 0 0 1-1.81-3.644c-2.134-5.391-2.8-12.222-2.301-18.36H17.499c-1.032 6.53-.328 13.313 2.107 19.822a45.243 45.243 0 0 0 4.01 8.067c.15.231.295.468.45.688 7.714 11.873 20.14 19.328 33.378 20.005 4.133.21 8.121-.204 11.905-1 10.04-2.144 18.667-7.089 24.955-10.696.951-.548 1.86-1.064 2.71-1.537 2.675-1.488 3.627-4.853 2.144-7.535z"/></g></g><g><g><path fill="#e1e7e8" d="M131.507 283.373v-77.73c0-.252 0-.467-.037-.682-.145-.903-.65-1.591-1.37-2.096-.468-.36-1.049-.613-1.694-.828l-1.66-.29-4.333-.828-3.751-.72-1.225-.253-8.116-1.553-.075.038-5.628.972-.973.178-12.846 2.31-1.655.291a3.09 3.09 0 0 0-2.02.758 3.438 3.438 0 0 0-1.156 2.02c-.038.216-.07.43-.07.684v77.73z"/></g></g><g><g><g><g><path fill="#f3ad7a" d="M117.448 203.069a6.898 6.898 0 0 1-6.901 6.901 6.896 6.896 0 0 1-6.902-6.901v-22.681a6.894 6.894 0 0 1 6.902-6.896c3.81 0 6.9 3.085 6.9 6.896z"/></g><g opacity=".3"><path fill="#f3ad7a" d="M110.364 197.614c1.892-1.134 4.525-1.274 7.084-1.731v-15.495c0-3.811-3.09-6.896-6.901-6.896a6.894 6.894 0 0 0-6.902 6.896v22.681a6.885 6.885 0 0 0 3.376 5.928c-.957-4.568-1-8.777 3.343-11.383z"/></g></g></g></g><g><g><g><path fill="#ffae38" d="M132.47 168.832a21.62 21.62 0 0 1-.645 5.208c-2.317 9.132-10.61 15.888-20.478 15.888-2.628 0-5.154-.484-7.481-1.36h-.006c-7.578-2.87-13.071-9.976-13.587-18.414a17.92 17.92 0 0 1-.043-1.322c0-9.374 6.121-17.323 14.597-20.059a20.932 20.932 0 0 1 6.52-1.026c1.833 0 3.596.226 5.284.666.628.156 1.246.344 1.848.56a21.333 21.333 0 0 1 4.875 2.51c5.51 3.81 9.116 10.157 9.116 17.349z"/></g><g><g><g><path fill="#f3ad7a" d="M117.448 206.181a6.777 6.777 0 0 1-6.778 6.778 6.775 6.775 0 0 1-6.783-6.778v-22.273a6.774 6.774 0 0 1 6.783-6.772 6.776 6.776 0 0 1 6.778 6.772z"/></g><g opacity=".3"><path fill="#f3ad7a" d="M117.448 199.124v-15.216a6.776 6.776 0 0 0-6.778-6.772 6.774 6.774 0 0 0-6.783 6.772v17.511z"/></g></g><g><g><g><path fill="#ffcd9c" d="M101.345 166.37v14.867c0 3.918 1.591 7.46 4.155 10.002a12.536 12.536 0 0 0 1.698 1.446 14.074 14.074 0 0 0 8.325 2.709c2.51 0 4.843-.65 6.88-1.785a14.173 14.173 0 0 0 7.283-12.372V166.37c0-.177-.021-.36-.021-.543a14.173 14.173 0 0 0-4.295-9.642c-2.57-2.456-6.036-3.972-9.847-3.972-7.836 0-14.178 6.337-14.178 14.157z"/></g></g></g><g><g><g><g><path fill="#2a2626" d="M114.991 174.336c0 1.209-.78 2.193-1.741 2.193-.962 0-1.742-.984-1.742-2.193 0-1.22.78-2.204 1.742-2.204s1.741.984 1.741 2.204z"/></g><g><path fill="#fff7dc" d="M113.255 174.105c0 .494-.317.892-.71.892-.392 0-.709-.398-.709-.892 0-.5.317-.903.71-.903.392 0 .71.403.71.903z"/></g></g><g><g><path fill="#2a2626" d="M124.053 186.81c-.5 1.79-2.424 3.118-4.703 3.118-2.284 0-4.208-1.328-4.719-3.118-.005-.037.124-.07.365-.096 1.49-.178 7.208-.178 8.697 0 .242.027.37.059.36.096z"/></g><g><path fill="#fff7dc" d="M123.693 186.714l-.011.027c-.467.666-2.23 1.166-4.332 1.166s-3.875-.5-4.343-1.166l-.01-.027c1.489-.178 7.207-.178 8.696 0z"/></g></g><g><g><g><path fill="#f3ad7a" d="M119.344 183.645c-.87 0-1.8-.801-1.784-1.785.027-1.698.377-2.547.403-4.251.01-.978.51-1.78 1.381-1.78s1.371.802 1.387 1.78c.022 1.704.371 2.553.398 4.251.016.984-.914 1.785-1.785 1.785z"/></g></g><g opacity=".3"><path fill="#ffe9d4" d="M120.828 181.51c0 .662-.333 1.2-.742 1.2-.408 0-.741-.538-.741-1.2 0-.66.333-1.192.741-1.192.41 0 .742.532.742 1.193z"/></g></g><g><g><path fill="#2a2626" d="M127.133 174.336c0 1.209-.774 2.193-1.747 2.193-.957 0-1.73-.984-1.73-2.193 0-1.22.773-2.204 1.73-2.204.973 0 1.747.984 1.747 2.204z"/></g><g><path fill="#fff7dc" d="M125.391 174.105c0 .494-.317.892-.71.892-.392 0-.709-.398-.709-.892 0-.5.317-.903.71-.903.392 0 .71.403.71.903z"/></g></g><g opacity=".2"><path fill="#f48fb7" d="M113.556 182.693c-.43 1.548-2.069 2.44-3.665 2-1.597-.446-2.543-2.059-2.112-3.607.43-1.542 2.069-2.44 3.665-1.994 1.596.441 2.542 2.053 2.112 3.601z"/></g><g opacity=".2"><path fill="#f48fb7" d="M128.767 182.693c-.43 1.548-2.075 2.44-3.671 2-1.596-.446-2.542-2.059-2.113-3.607.43-1.542 2.075-2.44 3.671-1.994 1.597.441 2.543 2.053 2.113 3.601z"/></g></g><g><path fill="#cf8312" d="M114.292 169.084c-.71-.043-2.289.425-3.294.753v.317c.827.027 2.128.108 3.515.35 0 0 .876.21.967-.377.086-.591-.102-.978-1.188-1.042z"/></g><g><path fill="#cf8312" d="M124.935 169.095c.715-.005 2.262.548 3.252.925l-.017.322a25.267 25.267 0 0 0-3.525.161s-.893.162-.947-.43c-.059-.59.146-.972 1.237-.978z"/></g><g><path fill="#2a2626" d="M110.67 173.379s1.908-1.967 4.144 0"/></g><g><path fill="#2a2626" d="M123.865 173.202s1.908-1.968 4.143 0"/></g></g></g><g><path fill="#ffae38" d="M102.388 157.416c4.762-6.289 11.281-9.374 14.56-6.885 3.278 2.483 2.069 9.6-2.688 15.882-4.767 6.283-11.276 9.368-14.56 6.88-3.279-2.478-2.07-9.589 2.688-15.877z"/></g><g><path fill="#ffae38" d="M132.47 168.832c0 .973-.07 1.919-.194 2.854-3.273-.371-7.39-2.682-10.921-6.423-5.408-5.74-7.369-12.684-4.375-15.495l.107-.102c2.193.279 4.31.892 6.267 1.816 5.51 3.81 9.116 10.158 9.116 17.35z"/></g></g></g><g><path fill="#e1e7e8" d="M103.646 212.24v-6.673h12.98v6.673z"/></g><g><path fill="#ff4040" d="M117.277 205.567l-6.73 5.83-6.73-5.83z"/></g><g><path fill="#ff4040" d="M107.407 213.324l3.14-5.44 3.138 5.44c.57.984.812 2.128.688 3.257l-3.826 35.097-3.828-35.097a5.347 5.347 0 0 1 .688-3.257z"/></g><g><path fill="#253759" d="M131.507 292.935v-88.07c0-.253 0-.468-.037-.689-.145-.897-.65-1.585-1.37-2.09-.468-.36-1.049-.613-1.694-.828l-1.66-.29-4.333-.828-3.751-.726-8.229 46.083-7.788-46.696-12.846 2.312-1.655.29a3.09 3.09 0 0 0-2.02.758 3.44 3.44 0 0 0-1.156 2.015c-.038.22-.07.436-.07.688v88.07z"/></g><g><path fill="#1c2842" d="M103.624 199.414c-.495.086-4.956.887-4.956.887l-4.547 18.054 9.503 6.412-1.688 11.443 8.498 10.072z"/></g><g><path fill="#1c2842" d="M117.437 199.946c.483.08 3.907.747 3.907.747l3.853 17.662-8.62 6.412 2.467 11.808-8.61 9.707z"/></g><g><path fill="#141b2f" d="M107.298 255.743a2.624 2.624 0 1 1 5.247 0 2.624 2.624 0 0 1-5.247 0z"/></g><g><path fill="#141b2f" d="M107.298 282.211a2.624 2.624 0 1 1 5.247 0 2.624 2.624 0 0 1-5.247 0z"/></g><g><path fill="#141b2f" d="M112.546 268.974a2.623 2.623 0 1 0-5.246 0 2.624 2.624 0 0 0 2.623 2.628 2.628 2.628 0 0 0 2.623-2.628z"/></g></g><g><g><g><path fill="#fff" d="M110.525 205.606c.005.263-1.655 1.72-3.407 3.192-1.978 1.65-4.075 3.322-4.075 3.322l-2.983-12.066 3.564-.64c1.736 6.504 6.9 5.396 6.9 6.192z"/></g><g><path fill="#fff" d="M110.525 205.606c0 .559 7.476 7.03 7.476 7.03l2.962-11.996-3.542-.71c-1.736 6.504-6.89 4.88-6.896 5.676z"/></g></g></g></g></g><g><path fill="#ffae38" d="M105.72 161.361c-2.957.731-5.176 3.43-6.488 6.434-3.165-.312-.994-16.517-2.606-14.012-11.336 17.623-10.658 27.663-11.12 32.436-.63 6.53 1.203 11.518 1.101 17.834-.156 9.68 10.212 16.457 14.168 14.565 5.197-2.488 8.358-8.696 8.551-14.506.258-7.799-3.703-13.244-6.992-19.844-3.795-7.61-3.623-16.533 3.87-21.864a.582.582 0 0 0-.484-1.043z"/></g><g><path fill="#fc9d12" d="M98.996 209.605c-3.58 0 0-8.955-1.79-12.54-1.79-1.79-5.375 3.585-7.164 1.796-3.682-11.04-3.155-22.08-.162-32.544-4.288 10.066-4.036 16.403-4.375 19.902-.628 6.53 1.204 11.518 1.102 17.834-.156 9.68 10.212 16.457 14.168 14.565 4.94-2.365 8.003-8.083 8.465-13.636-1.79 3.79-4.45 6.552-10.244 4.623z"/></g><g><g><g><g><g><g><path fill="#ffcd9c" d="M189.684 195.937c-1.758.505-2.757 2.343-2.268 4.095l1.333 4.542c.489 1.752 2.343 2.773 4.1 2.263l4.531-1.317a3.313 3.313 0 0 0 2.268-4.106l-1.316-4.526c-.5-1.763-2.36-2.795-4.101-2.295z"/></g></g></g></g></g><g><g><path fill="#fefefe" d="M200.906 204.988l-5.09-19.032-9.685-.355 9.32 21.295a2.9 2.9 0 0 0 2.494 1.73 2.9 2.9 0 0 0 2.961-3.638z"/></g><g><path fill="#ecedf8" d="M195.811 194.072c-1.268 3.8 0 8.449 3.171 11.83.844.843-1.268 1.478-1.902.843-4.225-4.224-4.225-10.142-2.956-15.844.21-.635-.425-1.903-1.06-1.06-1.348 1.232-2.203 2.812-3.213 4.252l5.6 12.803a2.9 2.9 0 0 0 2.494 1.73 2.9 2.9 0 0 0 2.962-3.638l-3.387-12.668c-.79.053-1.408.553-1.709 1.752z"/></g><g><path fill="#ff4040" d="M187.276 182.086c-.193-2.445-2.118-4.289-4.3-4.112-2.177.172-3.783 2.3-3.585 4.746.194 2.446 2.123 4.284 4.3 4.112 2.177-.177 3.784-2.3 3.585-4.746z"/></g><g><g transform="rotate(-4.592 189 182.5)"><path fill="#fefefe" d="M183.643 188.834a.286.286 0 0 1-.287-.287v-12.203c0-.158.128-.286.287-.286h11.041c.159 0 .287.128.287.286v12.203a.286.286 0 0 1-.287.287z"/></g><g transform="rotate(-4.592 193.5 182)"><path fill="#ff4040" d="M186.17 190.435a.373.373 0 0 1-.373-.374v-15.906c0-.207.167-.374.373-.374h14.393c.207 0 .374.167.374.373v15.907a.373.373 0 0 1-.374.374z"/></g><g><path fill="#b93131" d="M201.315 186.536c-4.332 1.731-8.772 3.408-12.05-.919-2.355-3.128-2.344-7.17-2.328-11.11a2.922 2.922 0 0 0-1.547 2.812l.865 10.787a2.925 2.925 0 0 0 3.139 2.676l9.277-.747a2.926 2.926 0 0 0 2.676-3.139z"/></g><g><path fill="#fefefe" d="M196.042 173.538l1.334 16.604 23.557 11.822-3.524-43.858z"/></g><g><path fill="#ecedf8" d="M199.413 171.1l-3.37 2.44 1.332 16.603 23.558 11.819-.446-5.53c-2.612-.63-5.144-1.576-7.562-2.995-8.25-4.745-13.276-12.91-13.512-22.337z"/></g><g><path fill="#ff4040" d="M222.98 179.727c.135 1.623.227 3.203.291 4.724.42 9.879-.516 17.366-2.338 17.51-1.822.146-3.94-7.083-5.1-16.881a116.977 116.977 0 0 1-.474-4.74 119.97 119.97 0 0 1-.328-5.773c-.311-9.352.619-16.318 2.376-16.463 1.763-.14 3.795 6.6 4.983 15.893.23 1.822.435 3.746.59 5.73z"/></g><g><path fill="#b93131" d="M222.26 179.786c.124 1.5.216 2.966.28 4.375l.022.376c.392 8.96-.301 15.7-1.758 15.818-1.462.113-3.22-6.428-4.262-15.334l-.038-.344c-.161-1.414-.306-2.881-.424-4.392-.15-1.848-.258-3.644-.323-5.353l-.016-.424c-.301-8.444.392-14.679 1.795-14.792 1.408-.113 3.085 5.934 4.139 14.319l.054.44c.204 1.688.387 3.472.532 5.31z"/></g><g><path fill="#fefefe" d="M224.986 176.507l.408 5.068a2.736 2.736 0 0 1-2.123 2.876 2.26 2.26 0 0 1-.381.064l-6.348.506-.038-.344c-.161-1.414-.306-2.881-.424-4.392-.15-1.848-.258-3.644-.323-5.353l-.016-.424 6.305-.506a2.741 2.741 0 0 1 2.94 2.505z"/></g></g></g><g><path fill="#ffcd9c" d="M192.597 189.6a1.847 1.847 0 0 1 1.177 2.3l-2.558 7.708c-.92.204-1.935.344-2.768.113-.516-.146-1.021-1.613-1.021-1.613l2.88-7.353a1.8 1.8 0 0 1 2.29-1.155z"/></g><g><g><path fill="#ffcd9c" d="M197.639 203.262a2.004 2.004 0 0 1 1.462-2.402l.473-.113a1.986 1.986 0 0 1 2.397 1.473 1.993 1.993 0 0 1-1.462 2.392l-.468.118a1.998 1.998 0 0 1-2.402-1.468z"/></g><g><path fill="#ffcd9c" d="M196.714 199.403a1.98 1.98 0 0 1 1.451-2.402l.473-.118a1.983 1.983 0 0 1 2.392 1.478 1.965 1.965 0 0 1-1.457 2.386l-.473.113a1.967 1.967 0 0 1-2.386-1.457z"/></g><g><path fill="#ffcd9c" d="M195.78 195.544a1.968 1.968 0 0 1 1.45-2.391l.479-.124a1.972 1.972 0 0 1 2.386 1.473 1.964 1.964 0 0 1-1.456 2.38l-.474.119a1.97 1.97 0 0 1-2.386-1.457z"/></g></g><g><g><path fill="#ff4040" d="M228.871 180.259c-.79 0-1.435-.64-1.435-1.425 0-.795.645-1.435 1.435-1.435h8.938c.79 0 1.43.64 1.43 1.435 0 .785-.64 1.425-1.43 1.425z"/></g><g><g><path fill="#ff4040" d="M227.807 185.79a1.421 1.421 0 0 1-.779-1.86 1.437 1.437 0 0 1 1.865-.79l7.922 5.197a1.432 1.432 0 0 1 .78 1.86 1.43 1.43 0 0 1-1.866.79z"/></g><g><path fill="#ff4040" d="M227.807 171.869c-.726.3-1.085 1.134-.779 1.86a1.432 1.432 0 0 0 1.865.79l7.922-5.198a1.43 1.43 0 0 0 .78-1.86 1.44 1.44 0 0 0-1.866-.79z"/></g></g></g></g></g><g><path fill="#edb485" d="M230.973 281.126c-.005 4.848-5.256.58-11.932.613-6.675-.032-12.25 4.252-12.25-.613 0-4.858 5.413-8.793 12.1-8.809 6.67.016 12.077 3.95 12.082 8.81z"/></g><g><g><path fill="#df8510" d="M293.34 228.373c-6.309 15.592-16.349 29.223-21.03 33.56-12.684 11.744-28.411 12.131-39.381 10.373a71.807 71.807 0 0 1-7.97-1.762v13.861c5.095 1.215 11.163 2.155 17.709 2.155 12.438 0 26.535-3.375 38.795-14.743 4.165-3.843 11.163-12.727 17.409-23.842 2.929-5.251 6.261-12.029 8.873-19.602z"/></g></g><g><g><g><path fill="#91321b" d="M295.824 187.16c-1.225 1.945-.607 7.944-.854 9.443-.441 2.666-.838 5.477-3.22 6.289-10.502 3.585-19.95 2.515-33.511 2.967-2.51.086-4.456-7.235-3.279-13.69z"/></g><g><path fill="#f3ad7a" d="M273.036 207.546a9.034 9.034 0 0 0 9.034 9.035 9.022 9.022 0 0 0 9.03-9.035v-29.68c0-4.987-4.031-9.029-9.03-9.029-4.987 0-9.034 4.042-9.034 9.03z"/></g><g><path fill="#ffcd9c" d="M259.309 158.265v19.742c0 8.631 5.805 15.903 13.727 18.123a18.81 18.81 0 0 0 5.079.694c5.036 0 9.605-1.978 12.985-5.192.113-.103.215-.21.328-.318a18.775 18.775 0 0 0 5.509-13.307v-19.742c0-10.395-8.422-18.811-18.822-18.811a18.741 18.741 0 0 0-13.297 5.509 18.731 18.731 0 0 0-5.51 13.302z"/></g><g><path fill="#f3ad7a" d="M273.036 177.867v18.263a18.81 18.81 0 0 0 5.078.694c5.036 0 9.605-1.978 12.986-5.192v-13.765a9.018 9.018 0 0 0-9.035-9.024 9.02 9.02 0 0 0-9.03 9.024z"/></g><g opacity=".3"><path fill="#f3ad7a" d="M273.036 207.546a9.034 9.034 0 0 0 9.034 9.035 9.022 9.022 0 0 0 9.03-9.035v-29.68c0-4.987-4.031-9.029-9.03-9.029-4.987 0-9.034 4.042-9.034 9.03z"/></g><g opacity=".1"><path fill="#f48fb7" d="M281.21 179.872c.334 1.193 2.199 1.72 4.172 1.171 1.966-.548 3.3-1.961 2.966-3.155-.333-1.193-2.198-1.714-4.17-1.166-1.973.548-3.3 1.956-2.967 3.15z"/></g><g><g><g><g><path fill="#bf4223" d="M255.638 205.654c11.571 1.688 17.118-7.395 19.515-13.071 1.387 2.402 3.628 4.499 7.643 4.832 1.489.123 5.553.107 7.686.457 9.159 1.5 24.923-15.05 23.654-35.028-1.526-23.896-18.435-22.03-18.435-22.03s0-8.444-14.297-8.358c-21.585-1.457-21.961 23.59-21.961 23.59s1.505-7.515 3.907-7.923c1.038-.177 2.156.183 3.494.656 2.967 1.053 1.35 15.414 1.28 20.569-.05 3.784.848 12.97-5.58 12.97-1.704 0-2.236-.619-2.897-.614-2.676.033-9.476 23.15-4.01 23.95z"/></g></g><g><g><path fill="#91321b" d="M256.777 186.187c-.807 5.052-3.284 9.997-.118 13.614 6.772 7.39 16.623-6.154 18.473-13.544 6.154 5.541 14.775 3.698 22.16 1.23 5.541-2.461 8.62-7.384 9.239-12.926 1.671-10.583 3.843-26.207-5.789-33.189 5.117 1.42 12.416 6.154 13.394 21.472 1.269 19.978-14.496 36.527-23.654 35.028-2.134-.35-6.197-.334-7.686-.457-4.015-.333-6.256-2.43-7.643-4.832-2.397 5.676-7.944 14.759-19.516 13.071-3.928-.575-1.515-12.695 1.14-19.467z"/></g></g><g><g><path fill="#ffcd9c" d="M271.343 175.959c1.956.93 4.735-.796 6.17-3.854 1.45-3.047 1.043-6.278-.92-7.229-1.96-.908-4.729.806-6.191 3.854-1.424 3.074-1.021 6.304.94 7.229z"/></g><g><path fill="#f3ad7a" d="M272.799 172.675c.795.414 1.967-.258 2.612-1.5.645-1.247.522-2.59-.274-3.004-.801-.414-1.967.258-2.617 1.5-.645 1.246-.516 2.59.279 3.004z"/></g></g><g><path fill="#d41e1e" d="M270.617 191.03c.038 0 .048.064.005.064"/></g></g></g></g></g><g><g transform="rotate(-88.558 218 425)"><path fill="#cf9b72" d="M214.591 429.189v-8.799h7.397v8.799z"/></g><g transform="rotate(-88.674 218 431)"><path fill="#e6dad1" d="M212.777 436.389v-10.354h10.73v10.354z"/></g><g><g><g><g><path fill="#ff4040" d="M212.285 427.174a3.838 3.838 0 0 1 3.81 3.838v3.483a3.83 3.83 0 0 1-3.821 3.821 3.812 3.812 0 0 1-3.805-3.821V431c0-2.107 1.714-3.827 3.816-3.827z"/></g><g><path fill="#422121" d="M224.904 439.982a1.93 1.93 0 0 1-1.929 1.925H193.882v-2.532l31.022.005z"/></g><g><path fill="#ff4040" d="M193.882 439.413l31.022.021v-6.885c0-.93-.682-1.714-1.574-1.881v.215a3.626 3.626 0 0 1-3.623 3.617 3.628 3.628 0 0 1-3.612-3.617v-.263l-7.626.489v.182c0 .479-.097.925-.366 1.28-.08.118-.172.204-.274.28-.35.322-.87.553-1.602.666-.129.026-.247.037-.392.064a8.33 8.33 0 0 1-1.145.06l-3.762-.012c-3.891.011-7.046 1.882-7.046 5.784z"/></g></g><g><path fill="#e6dad1" d="M193.882 439.413l7.078.005a6.463 6.463 0 0 0 1.107-3.655 6.47 6.47 0 0 0-.35-2.123l-.79-.01c-3.89.01-7.045 1.88-7.045 5.783z"/></g></g><g><g><path fill="#e6dad1" d="M208.608 435.527a.193.193 0 0 0 .178.199h.021a.192.192 0 0 0 .188-.172c.027-.264-.054-1.865-.892-2.983-.08.118-.172.204-.274.28.726 1.026.8 2.455.78 2.676z"/></g></g><g><g><path fill="#e6dad1" d="M206.228 435.51c-.01.108.08.21.177.21l.011.006c.102 0 .188-.081.199-.183.005-.194-.038-1.107-.387-2.026-.13.026-.248.037-.393.064.366.876.403 1.78.393 1.93z"/></g></g><g><g><path fill="#e6dad1" d="M204.163 435.51c-.015.108.06.21.172.216h.012c.102 0 .193-.081.193-.172.016-.194-.016-1.032-.35-1.914h-.397c.333.855.376 1.72.37 1.87z"/></g></g></g></g><g><g transform="rotate(-88.6 177 425)"><path fill="#cf9b72" d="M173.266 429.184v-8.805h7.405v8.805z"/></g><g transform="rotate(-88.607 177 431)"><path fill="#e6dad1" d="M171.457 436.384v-10.353h10.728v10.353z"/></g><g><g><g><g><path fill="#ff4040" d="M170.964 427.19c2.107-.016 3.81 1.704 3.81 3.811l-.005 3.494a3.814 3.814 0 0 1-3.81 3.821 3.818 3.818 0 0 1-3.817-3.821v-3.526a3.786 3.786 0 0 1 3.822-3.779z"/></g><g><path fill="#422121" d="M183.584 439.977c0 1.07-.86 1.93-1.925 1.93h-11.335l-17.769-.006v-2.558l31.029.037z"/></g><g><path fill="#ff4040" d="M152.56 439.413l31.024.021v-6.885a1.913 1.913 0 0 0-1.58-1.892v.22a3.625 3.625 0 0 1-3.612 3.618 3.615 3.615 0 0 1-3.618-3.612v-.263l-7.632.489v.193c0 .468-.097.892-.37 1.28a2.521 2.521 0 0 1-.264.268c-.355.312-.865.538-1.596.667-.135.026-.253.037-.398.07-.355.032-.715.042-1.145.053l-3.746-.01c-3.897 0-7.062 1.897-7.062 5.783z"/></g></g><g><path fill="#e6dad1" d="M152.56 439.413l7.08.005a6.448 6.448 0 0 0 1.106-3.655c0-.736-.118-1.462-.354-2.134h-.769c-3.897 0-7.062 1.898-7.062 5.784z"/></g></g><g><g><path fill="#e6dad1" d="M167.282 435.51c-.01.108.08.189.183.21l.011.006a.2.2 0 0 0 .199-.183c.016-.253-.065-1.876-.903-2.962a2.521 2.521 0 0 1-.264.27c.731 1.01.801 2.477.774 2.66z"/></g></g><g><g><path fill="#e6dad1" d="M164.912 435.51c-.016.103.054.189.166.189l.017.021c.09 0 .188-.086.188-.177.01-.194-.021-1.107-.371-2.026-.134.026-.252.037-.398.07.36.87.398 1.762.398 1.924z"/></g></g><g><g><path fill="#e6dad1" d="M162.832 435.51c-.01.103.075.21.167.21l.026.006a.193.193 0 0 0 .188-.183c.027-.183-.01-1.021-.333-1.903h-.414c.34.855.382 1.72.366 1.87z"/></g></g></g></g><g><g><path fill="#141b2f" d="M278.152 325.473c-15.65-.14-31.813-.29-47.754.42l-1.264.048-1.198.323c-9.282 2.472-17.054 10.088-20.3 19.838l-.517 1.542-.074 1.634c-.71 17.817-.56 35.92-.42 53.425.07 7.18.13 14.49.13 21.81h23.084c0-7.39-.054-14.758-.119-22.009-.134-16.56-.274-33.683.328-50.307.748-1.462 1.892-2.693 3.053-3.306 14.797-.607 30.056-.446 44.836-.3 2.881.01 5.794.048 8.734.07v-23.09c-2.859-.033-5.703-.055-8.519-.098z"/></g></g><g><path fill="#141b2f" d="M275.126 318.497h21.225c6.676.022 12.083 5.418 12.083 12.093v5.391c0 6.66-5.418 12.072-12.083 12.082h-21.225z"/></g><g><g><path fill="#1c2842" d="M274.976 325.543c-10.013.13-20.343.027-30.314-.07-15.651-.14-31.823-.29-47.765.42l-1.284.048-1.231.36c-7.208 1.946-13.169 6.036-17.205 11.814l-.333.51c-2.226 3.542-4.864 8.407-5.536 14.459l-.033.311c-1.295 15.566-2.499 31.228-3.649 46.379-.613 8.116-1.252 16.425-1.897 24.74h23.165c.602-7.74 1.193-15.442 1.758-22.983 1.155-15.043 2.354-30.587 3.622-45.991.145-1.048.758-2.397 1.978-4.38.398-.549 1.274-1.543 3.187-2.269 14.845-.607 30.158-.467 44.987-.312 10.126.081 20.58.189 30.856.06z"/></g></g><g><path fill="#f59a22" d="M248.403 329.193c0 2.547 1.973 4.644 4.386 4.638l54.172.006c2.424 0 4.39-2.075 4.39-4.633l.007-116.643c0-2.575-1.962-4.665-4.386-4.665l-54.366-.162c-2.488.726-4.181 2.252-4.192 4.821z"/></g><g><g><path fill="#618c03" d="M227.474 358.235V348.05h60.67v10.184z"/></g><g><path fill="#8db90a" d="M256.725 358.404v-10.2h60.667v10.2z"/></g></g><g><g><g><path fill="#fff9ea" d="M224.654 363.676v-5.444h67.186v5.444z"/></g><g><path fill="#fff9ea" d="M257.797 363.681v-5.449h61.128v5.45z"/></g></g><g><path fill="#ded9cb" d="M264.553 438.318v-70.655h14.482v70.655z"/></g><g><path fill="#ded9cb" d="M259.705 369.22v-5.529h24.178v5.53z"/></g><g><path fill="#ded9cb" d="M247.52 443.39v-5.529h48.548v5.529z"/></g></g><g><g><path fill="#fff9ea" d="M278.35 363.691V262.444h11.06V363.69z"/></g></g><g><g><path fill="#fff9ea" d="M281.542 363.691V262.434h11.048V363.69z"/></g></g><g><path fill="#fff" d="M138.773 291.15v-3.272H224.2v3.272z"/></g><g><g><path fill="#edb485" d="M168.905 282.089c-.118 4.837-5.267.483-11.948.306-6.659-.15-12.35 3.95-12.233-.892.119-4.86 5.627-8.648 12.298-8.503 6.675.161 12.001 4.23 11.883 9.089z"/></g><g><g><path fill="#f4b222" d="M253.456 207.707c-3.687-.403-7.025 2.274-7.423 5.983-2.51 22.772-20.838 47.604-27.696 53.661-12.948 11.432-28.674 11.427-39.607 9.39a68.749 68.749 0 0 1-12.883-3.655c-.478 4.16-2.607 8.492-4.235 12.168-.07.161-.161.339-.242.527 5.885 2.23 15.603 5.181 26.74 5.434 12.426.322 26.61-2.709 39.15-13.77 4.25-3.746 11.463-12.448 17.961-23.407 5.563-9.374 12.534-23.74 14.2-38.881.409-3.709-2.268-7.03-5.965-7.45z"/></g></g></g><g><g><path fill="#618c03" d="M256.458 339.676a3.318 3.318 0 0 1-3.318-3.319V235.14a3.32 3.32 0 0 1 3.32-3.32h54.858a3.318 3.318 0 0 1 3.318 3.318v101.219a3.319 3.319 0 0 1-3.32 3.319z"/></g><g><path fill="#8db90a" d="M257.637 249.647c0-9.847 7.976-17.828 17.839-17.823h25.81c9.851 0 17.838 7.992 17.838 17.839l-.01 72.172c0 9.857-7.988 17.839-17.84 17.839H275.45c-9.836 0-17.823-7.982-17.823-17.84l.011-72.187z"/></g><g opacity=".2"><path fill="#8db90a" d="M304.666 232.146c.07 1.575.231 3.145.543 4.72 3.354 20.6 5.75 29.028-1.435 48.673-3.354 8.627-6.708 17.248-14.378 23.955-9.39 7.804-18.699 15.652-28.222 23.026 3.256 4.348 8.438 7.154 14.275 7.154h25.825c9.852 0 17.84-7.982 17.84-17.84l.01-72.171c0-8.691-6.224-15.936-14.458-17.517z"/></g></g><g><g><g><g><path fill="#bc3122" d="M72.106 282.567c.15.376.323.758.521 1.134H15.983c-1.736-3.349-1.736-6.66 0-10.013h56.644c-.198.381-.37.758-.52 1.14H18.59c-1.736 2.59-1.736 5.148 0 7.739z"/></g></g><g><g><g><path fill="#fff9ed" d="M70.945 282.567H14.301c-1.73-2.59-1.73-5.15 0-7.74h56.644c-.268.409-.5.817-.688 1.226a6.585 6.585 0 0 0-.311.795c-.618 1.903-.28 3.8 1 5.719z"/></g></g></g><g><path fill="#dcd4c4" d="M70.257 276.053a6.585 6.585 0 0 0-.311.795l-21.747-.398z"/></g><g><path fill="#dcd4c4" d="M66.624 280.908H42.33v-.796z"/></g><g><g><path fill="#c93f24" d="M47.877 283.7H5.367c-1.735-3.348-1.735-6.658 0-10.012h42.51c-1.736 3.354-1.736 6.664 0 10.013z"/></g></g><g><g><path fill="#ea522d" d="M47.146 283.7H4.636c-1.735-3.348-1.735-6.658 0-10.012h42.51c-1.736 3.354-1.731 6.664 0 10.013z"/></g></g><g><g><path fill="#ff4140" d="M47.146 283.7H4.636c-1.735-3.348-1.735-6.658 0-10.012h42.51c-1.736 3.354-1.731 6.664 0 10.013z"/></g></g><g><g><path fill="#ffa631" d="M11.07 283.7H8.927c-1.538-3.348-1.538-6.658 0-10.012h2.145c-1.543 3.354-1.543 6.664 0 10.013z"/></g></g><g><g><path fill="#ffa631" d="M15.075 283.7H12.93c-1.537-3.348-1.537-6.658 0-10.012h2.145c-1.543 3.354-1.543 6.664 0 10.013z"/></g></g><g><g><path fill="#3b3346" d="M51.198 276.053v4.316s.979-.543 1.887-1.124c0 0 .376.167 1.78 1.124v-4.316h-.006z"/></g></g></g><g><g><g><path fill="#3b3346" d="M79.582 272.13c.15.52.329 1.036.522 1.558H23.459c-1.736-4.596-1.736-9.132 0-13.727 18.882-.006 37.764-.006 56.645 0a21.218 21.218 0 0 0-.522 1.558H26.066c-1.736 3.553-1.736 7.057 0 10.61z"/></g></g><g><g><g><path fill="#fff9ed" d="M78.427 272.13H21.782c-1.735-3.554-1.735-7.058 0-10.61h56.645a13.84 13.84 0 0 0-.694 1.676c-.124.366-.226.726-.311 1.091-.613 2.612-.28 5.214 1.005 7.842z"/></g></g></g><g><path fill="#dcd4c4" d="M77.733 263.196c-.123.366-.225.726-.311 1.091l-21.74-.548z"/></g><g><path fill="#dcd4c4" d="M74.102 269.857H49.807v-1.091z"/></g><g><g><path fill="#3b3346" d="M55.353 273.688H12.844c-1.736-4.596-1.736-9.132 0-13.733h42.509c-1.73 4.601-1.73 9.137 0 13.733z"/></g></g><g><g><path fill="#ea522d" d="M54.627 273.688H12.113c-1.736-4.596-1.736-9.132 0-13.733h42.514c-1.736 4.601-1.736 9.137 0 13.733z"/></g></g><g><g><path fill="#4d445a" d="M54.627 273.688H12.113c-1.736-4.596-1.736-9.132 0-13.727h6.434c13.845-.006 19.543-.006 36.08 0-1.736 4.595-1.736 9.131 0 13.727z"/></g></g><g><g><path fill="#ffa631" d="M50.285 270.452H16.193c-1.392-2.43-1.392-4.826 0-7.256h34.092c-1.387 2.43-1.387 4.827 0 7.256z"/></g></g><g><g><path fill="#c93f24" d="M54.837 263.863v5.923s1.075-.747 2.07-1.543c0 0 .413.226 1.951 1.543v-5.923h-.006z"/></g></g></g><g><g><g><path fill="#efe7d8" d="M71.862 291.145l-36.191.114H15.588l-.218-1.658-.118-.976-.622-4.9h21.04z"/></g><g><path fill="#fff9ed" d="M92.503 283.725l-.272 2.675-.177 1.094-.586 3.588-19.606.063-36.191.114v-7.534z"/></g></g><g><path fill="#dcd4c4" d="M92.23 286.4l-.175 1.093-21.567-.547z"/></g><g><path fill="#dcd4c4" d="M34.44 289.112l-19.069.488-.117-.975z"/></g><g><path fill="#dcd4c4" d="M52.122 287.336l-16.453.41v-.82z"/></g><g><path fill="#dcd4c4" d="M72.424 290.123H50.366l-12.726-.545 12.236-.467z"/></g></g></g><g><g><g><path fill="#465c05" d="M29.672 237.268c-.29-5.858 2.172-11.647 5.848-16.801 3.677-5.154 8.546-9.76 13.426-14.308-4.331 12.55-9.647 24.902-15.909 36.973z"/></g><g><path fill="#618c03" d="M20.949 241.488c-1.402-14.464.834-29.12 6.547-42.96-.162 14.388-.317 28.781-.479 43.17z"/></g><g><path fill="#8db90a" d="M25.663 240.128c-.451-13.254 2.978-26.584 9.96-38.741a704.661 704.661 0 0 1-2.306 40.095c-.038.468-.172 1.038-.753 1.204z"/></g><g><path fill="#465c05" d="M14.548 241.09c-4.606-4.714-6.89-10.54-7.697-16.372-.806-5.826-.22-11.711.42-17.548 5.772 12.206 10.593 24.675 14.42 37.317z"/></g><g><path fill="#618c03" d="M31.645 249.012c4.757-13.248 9.621-26.685 18.973-38.445-.956 13.361-6.487 28.932-14.324 40.273z"/></g><g><path fill="#618c03" d="M28.485 254.226c1.097-15.329 2.375-31.195 11.722-44.815 3.79 14.507-5.208 29.072-6.47 43.831z"/></g><g><path fill="#618c03" d="M17.106 255.564c-.064-8.089-2.929-15.995-4.375-24.009-1.44-8.014-1.306-16.63 4.096-23.606a247.97 247.97 0 0 1 5.805 50.802z"/></g><g><path fill="#8db90a" d="M18.235 246.502c-2.564-7.465-2.542-15.43.054-22.885 3.558 6.965 5.746 14.329 6.471 21.778z"/></g><g><path fill="#8db90a" d="M30.806 244.68a1167.366 1167.366 0 0 1 10.197-16.452c.66-1.053 1.564-2.246 3.09-2.397.295 3.327-1.075 6.6-2.43 9.771-1.843 4.327-3.681 8.648-5.525 12.975z"/></g><g><g><path fill="#ded2be" d="M11.952 239.628c.71 8.385 3.106 15.657 6.487 20.44h18.963c3.38-4.783 5.772-12.055 6.486-20.44z"/></g><g><path fill="#d6c8af" d="M22.664 254.629c-5.8-3.66-8.294-9.19-7.503-15.001h-3.21c.71 8.385 3.107 15.657 6.488 20.44h18.963a27.693 27.693 0 0 0 1.897-3.155c-6.041 1.226-12.083 1.167-16.635-2.284z"/></g></g></g></g><g><g><g><g><path fill="#ff4140" d="M152.496 117.736V99.761h19.818v17.975z"/></g></g><g><g><path fill="#f4b222" d="M176.237 117.736V87.012h19.822v30.724z"/></g></g><g><g><path fill="#14b0bf" d="M199.977 117.736v-44.63H219.8v44.63z"/></g></g></g><g><g><g><path fill="#ff4140" d="M153.316 87.575l-1.64-1.753 21.75-20.26L187.11 76.44l23.53-21.775 1.63 1.763-25.041 23.17-13.68-10.87z"/></g></g><g><g><g><path fill="#ff4140" d="M213.679 60.009l2.834-9.145-9.338 2.118z"/></g></g></g></g></g><g><g><g><g><path fill="#22232c" d="M77.336 91.737c-8.793.032-15.953-7.068-15.985-15.867-.033-8.793 7.068-15.952 15.861-15.984 8.798-.032 15.958 7.068 15.99 15.866.032 8.793-7.068 15.952-15.866 15.985zm26.137-15.888l-.774-5.644a1.192 1.192 0 0 0-1.343-1.015l-5.644-.242c-.2.027-.393.005-.575-.043a19.156 19.156 0 0 0-1.86-3.618 1.423 1.423 0 0 1 .22-1.268l2.553-5.041a1.187 1.187 0 0 0-.23-1.667l-6.15-3.94a1.19 1.19 0 0 0-1.666.232l-4.165 3.821c-.124.156-.269.28-.436.376-1.235-.548-.919-.467-2.257-.741a1.427 1.427 0 0 1-.742-1.054l-1.746-5.477a1.184 1.184 0 0 0-1.339-1.015l-5.643.779a1.187 1.187 0 0 0-1.016 1.338l-.252 5.751c.027.199.005.393-.049.57a18.988 18.988 0 0 0-3.612 1.865 1.44 1.44 0 0 1-1.268-.226l-6.686-3.278a1.196 1.196 0 0 0-1.672.225l-3.44 4.542a1.191 1.191 0 0 0 .231 1.666l5.472 4.897c.156.118.28.268.371.435a18.67 18.67 0 0 0-1.242 3.87c-.21.387-.586.672-1.053.736l-5.37 1.758a1.195 1.195 0 0 0-1.015 1.343l.779 5.644a1.18 1.18 0 0 0 1.338 1.016l5.649.241a1.45 1.45 0 0 1 .57.043 19.098 19.098 0 0 0 1.86 3.618c.128.424.059.892-.221 1.268l-3.58 6.246a1.191 1.191 0 0 0 .226 1.671l4.542 3.44c.521.392 1.268.29 1.666-.231l5.192-5.03a1.34 1.34 0 0 1 .44-.372c1.232.543 2.527.962 3.865 1.236.393.215.672.592.742 1.054l1.817 5.251c.086.65.688 1.107 1.338 1.016l5.643-.78a1.184 1.184 0 0 0 1.016-1.338l.188-5.525a1.35 1.35 0 0 1 .043-.57c1.285-.5 1.656-.591 2.779-1.333.425-.123.527.2.903.479l5.042 2.553a1.19 1.19 0 0 0 1.666-.231l4.638-5.327a1.19 1.19 0 0 0-.226-1.666l-3.826-4.16a1.45 1.45 0 0 1-.371-.44c.548-1.232.962-2.527 1.241-3.87.21-.388.592-.672 1.054-.737l5.37-1.763a1.187 1.187 0 0 0 1.015-1.338z"/></g><g><g><path fill="#292b37" d="M74.976 91.823c-8.723.037-15.817-7.01-15.85-15.727-.032-8.718 7.01-15.818 15.732-15.85 8.718-.032 15.818 7.009 15.85 15.732.032 8.718-7.014 15.812-15.732 15.845zm25.364-21.397A1.198 1.198 0 0 0 99 69.404l-5.649-.241c-.193.027-.392.01-.57-.038a18.836 18.836 0 0 0-1.864-3.617 1.439 1.439 0 0 1 .225-1.269l2.554-5.041a1.186 1.186 0 0 0-.232-1.666l-4.541-3.44a1.19 1.19 0 0 0-1.666.226l-4.16 3.821c-.124.161-.274.28-.441.376a19.005 19.005 0 0 0-3.87-1.241 1.424 1.424 0 0 1-.736-1.048l-1.763-5.375a1.184 1.184 0 0 0-1.338-1.016l-5.644.774a1.192 1.192 0 0 0-1.016 1.344l-.242 5.649a1.45 1.45 0 0 1-.043.57 18.558 18.558 0 0 0-3.617 1.864 1.43 1.43 0 0 1-1.263-.225l-5.047-2.553a1.19 1.19 0 0 0-1.666.225l-3.44 4.542a1.186 1.186 0 0 0 .232 1.666l3.82 4.166c.157.123.28.274.377.435a18.791 18.791 0 0 0-1.241 3.875 1.433 1.433 0 0 1-1.054.736l-5.375 1.758a1.197 1.197 0 0 0-1.016 1.344l.78 5.643c.09.65.688 1.107 1.343 1.016l5.644.242a1.35 1.35 0 0 1 .57.043 19.317 19.317 0 0 0 1.859 3.617c.13.42.064.892-.215 1.263l-2.553 5.042a1.185 1.185 0 0 0 .226 1.666l4.542 3.445c.521.392 1.268.29 1.666-.231l4.16-3.822c.123-.16.274-.279.44-.376 1.232.543 2.527.962 3.87 1.242.387.21.673.591.737 1.053l1.763 5.37a1.18 1.18 0 0 0 1.338 1.015l5.644-.779a1.185 1.185 0 0 0 1.015-1.338l.242-5.644a1.469 1.469 0 0 1 .043-.575 18.825 18.825 0 0 0 3.617-1.86c.425-.123.893-.059 1.269.22l5.041 2.554a1.186 1.186 0 0 0 1.666-.231l3.44-4.536a1.197 1.197 0 0 0-.23-1.672l-3.823-4.16a1.36 1.36 0 0 1-.37-.435c.543-1.231.962-2.532 1.242-3.87a1.433 1.433 0 0 1 1.047-.742l5.375-1.758a1.196 1.196 0 0 0 1.016-1.343z"/></g></g></g><g><g><path fill="#22232c" d="M21.648 77.639a5.883 5.883 0 1 1-2.374-11.523 5.883 5.883 0 0 1 2.374 11.523zm8.299-7.67l-.694-1.983a.437.437 0 0 0-.558-.27l-2.065.323c-.07.027-.14.033-.21.027a7.107 7.107 0 0 0-.934-1.172.508.508 0 0 1-.016-.473l.553-2.015a.436.436 0 0 0-.204-.586l-2.709-1.005a.434.434 0 0 0-.586.204s-1.075 1.876-1.129 1.924c-.489-.107-.403-.14-.908-.14a.535.535 0 0 1-.344-.327l-1.048-1.892a.44.44 0 0 0-.559-.269l-1.913.672c-.226.08-.409.392-.328.623l.328 2.097c.027.07.032.145.027.21a7.118 7.118 0 0 0-1.172.94.523.523 0 0 1-.473.01l-2.886-.704a.438.438 0 0 0-.586.205l-.914 1.897a.433.433 0 0 0 .205.586l2.563 1.376c.065.032.118.08.167.134a6.874 6.874 0 0 0-.167 1.489.53.53 0 0 1-.327.35l-1.817 1.026a.442.442 0 0 0-.269.559l.698 1.989c.076.23.328.349.56.268l2.058-.328a.563.563 0 0 1 .21-.026c.274.43.591.822.94 1.177.076.14.086.317.011.473l-.93 2.665a.44.44 0 0 0 .205.592l1.896.908a.437.437 0 0 0 .586-.204l1.602-2.344a.518.518 0 0 1 .135-.166c.484.102.983.161 1.489.161.155.054.29.167.343.328l1.043 1.768c.08.231.333.323.565.242l1.983-.699a.435.435 0 0 0 .269-.559l-.34-1.983a.553.553 0 0 1-.026-.21c.43-.274.559-.333.908-.682.146-.075.13.15.285.22l2.01.554c.22.107.484.016.586-.204l1.37-2.381a.44.44 0 0 0-.203-.592l-1.688-1.225a.514.514 0 0 1-.167-.13c.108-.488.162-.988.167-1.493a.514.514 0 0 1 .322-.344l1.817-1.032a.435.435 0 0 0 .269-.56z"/></g><g><path fill="#292b37" d="M20.552 77.94a5.879 5.879 0 0 1-6.95-4.569 5.884 5.884 0 0 1 11.524-2.381 5.884 5.884 0 0 1-4.574 6.95zm8.299-7.665l-.694-1.983a.44.44 0 0 0-.559-.274l-2.064.328a.563.563 0 0 1-.21.027 6.889 6.889 0 0 0-.935-1.172.535.535 0 0 1-.016-.478l.554-2.01a.435.435 0 0 0-.204-.587l-1.898-.913a.446.446 0 0 0-.586.204l-1.225 1.688a.524.524 0 0 1-.129.172 6.961 6.961 0 0 0-1.494-.167.534.534 0 0 1-.344-.328l-1.032-1.816a.44.44 0 0 0-.559-.27l-1.983.694a.44.44 0 0 0-.269.564l.322 2.059c.027.07.033.14.027.21a7.37 7.37 0 0 0-1.172.94.523.523 0 0 1-.472.011l-2.016-.554a.441.441 0 0 0-.586.205l-.913 1.897a.444.444 0 0 0 .209.586l1.688 1.225c.064.032.118.08.166.13-.107.488-.166.988-.166 1.493a.513.513 0 0 1-.328.344l-1.817 1.032a.442.442 0 0 0-.269.56l.7 1.983a.436.436 0 0 0 .558.274l2.059-.328a.563.563 0 0 1 .21-.027c.274.43.59.822.94 1.172a.551.551 0 0 1 .016.478l-.559 2.01a.438.438 0 0 0 .204.586l1.898.914c.22.102.478.01.586-.205l1.225-1.687a.456.456 0 0 1 .135-.167c.483.102.983.161 1.488.161.156.049.29.167.344.328l1.032 1.817c.08.231.333.35.559.269l1.989-.694a.442.442 0 0 0 .268-.559l-.327-2.064a.564.564 0 0 1-.027-.21 6.9 6.9 0 0 0 1.177-.94.523.523 0 0 1 .473-.01l2.01.553c.22.108.483.01.586-.204l.913-1.897a.437.437 0 0 0-.204-.586l-1.688-1.226a.51.51 0 0 1-.166-.129 7.32 7.32 0 0 0 .166-1.494.514.514 0 0 1 .323-.344l1.817-1.032a.438.438 0 0 0 .269-.559z"/></g></g><g><g><path fill="#292b37" d="M40.605 68.598c-3.827.011-6.95-3.08-6.96-6.912a6.935 6.935 0 0 1 6.911-6.965 6.939 6.939 0 1 1 .049 13.877zm11.389-6.922l-.34-2.462a.51.51 0 0 0-.58-.44l-2.461-.108a.627.627 0 0 1-.247-.016 8.579 8.579 0 0 0-.812-1.575.604.604 0 0 1 .097-.554l1.112-2.198a.516.516 0 0 0-.102-.726l-2.897-1.8a.521.521 0 0 0-.725.102s-1.682 1.919-1.758 1.962c-.537-.242-.43-.253-1.016-.376a.639.639 0 0 1-.322-.457l-.769-2.43a.519.519 0 0 0-.58-.446l-2.37.333c-.285.038-.565.355-.522.64l-.113 2.505c.011.086 0 .166-.021.247-.56.215-1.086.489-1.575.811a.643.643 0 0 1-.553-.096l-3.172-1.49a.515.515 0 0 0-.725.098l-1.5 1.978a.52.52 0 0 0 .102.725l2.64 2.193c.07.054.123.118.16.188a8.316 8.316 0 0 0-.537 1.688.612.612 0 0 1-.462.322l-2.338.769a.514.514 0 0 0-.44.586l.338 2.456a.508.508 0 0 0 .58.44l2.462.108a.541.541 0 0 1 .247.022c.22.553.49 1.085.812 1.575a.613.613 0 0 1-.097.548l-1.704 2.87a.517.517 0 0 0 .102.725l1.978 1.5a.516.516 0 0 0 .725-.102l2.409-2.333a.619.619 0 0 1 .188-.166c.537.236 1.102.419 1.687.543.167.09.29.257.323.456l.79 2.29c.038.285.311.446.591.403l2.462-.333a.52.52 0 0 0 .44-.586l.076-2.37a.571.571 0 0 1 .016-.253c.559-.215.72-.252 1.209-.58.188-.054.113.204.274.328l2.199 1.112A.521.521 0 0 0 48 70.2l2.14-2.435a.522.522 0 0 0-.097-.73l-1.666-1.812a.563.563 0 0 1-.162-.194 8.06 8.06 0 0 0 .538-1.682.611.611 0 0 1 .462-.322l2.338-.769a.511.511 0 0 0 .44-.58z"/></g><g><path fill="#383c48" d="M39.267 68.695a6.944 6.944 0 0 1-6.966-6.917c-.011-3.827 3.085-6.95 6.917-6.96a6.931 6.931 0 0 1 6.96 6.911 6.939 6.939 0 0 1-6.911 6.966zm11.389-6.923l-.34-2.461a.517.517 0 0 0-.585-.441l-2.456-.107a.662.662 0 0 1-.253-.017 8.184 8.184 0 0 0-.806-1.574.607.607 0 0 1 .097-.554l1.107-2.198a.515.515 0 0 0-.096-.726l-1.979-1.5a.516.516 0 0 0-.725.103l-1.817 1.66a.689.689 0 0 1-.188.167 8.603 8.603 0 0 0-1.687-.543.638.638 0 0 1-.323-.457l-.769-2.338a.516.516 0 0 0-.58-.446l-2.462.339a.52.52 0 0 0-.44.586l-.103 2.461c.011.086 0 .167-.021.248a8.23 8.23 0 0 0-1.575.811.623.623 0 0 1-.554-.097l-2.192-1.112a.526.526 0 0 0-.731.097l-1.5 1.978a.528.528 0 0 0 .102.73l1.666 1.812c.07.054.124.118.162.188a8.348 8.348 0 0 0-.538 1.688.61.61 0 0 1-.462.322l-2.338.769a.513.513 0 0 0-.441.585l.339 2.457a.508.508 0 0 0 .58.44l2.462.108a.634.634 0 0 1 .247.016c.215.56.49 1.091.811 1.58a.611.611 0 0 1-.096.548l-1.113 2.199a.516.516 0 0 0 .103.725l1.977 1.5a.517.517 0 0 0 .726-.102l1.811-1.661a.637.637 0 0 1 .194-.167c.537.237 1.102.42 1.688.543.166.092.29.258.322.457l.763 2.338a.521.521 0 0 0 .586.446l2.456-.338a.52.52 0 0 0 .446-.586l.102-2.462c-.01-.08 0-.167.022-.247a8.213 8.213 0 0 0 1.574-.812.643.643 0 0 1 .554.097l2.193 1.113a.515.515 0 0 0 .726-.097l1.5-1.978a.522.522 0 0 0-.098-.731l-1.666-1.811a.64.64 0 0 1-.167-.194 7.741 7.741 0 0 0 .543-1.682.612.612 0 0 1 .457-.323l2.344-.768a.511.511 0 0 0 .44-.58z"/></g></g><g><g><path fill="#292b37" d="M41.561 98.45a8.679 8.679 0 0 1-10.174-6.875 8.683 8.683 0 0 1 6.869-10.18c4.713-.913 9.27 2.167 10.18 6.875a8.684 8.684 0 0 1-6.875 10.18zm12.39-11.17l-1.087-3.17a.654.654 0 0 0-.822-.409l-3.047.446c-.102.033-.113.27-.215.258a10.596 10.596 0 0 0-1.366-1.746.793.793 0 0 1-.01-.704l.854-2.957a.644.644 0 0 0-.29-.87l-3.908-1.973a.653.653 0 0 0-.87.296l-1.844 2.467c-.048.102 1.01.768.93.833a10.334 10.334 0 0 0-2.198-.269.788.788 0 0 1-.505-.489L37.81 75.87a.649.649 0 0 0-.823-.408l-2.94.989c-.344.118-.253.908-.134 1.247l.44 3.053c.039.102.049.204.039.311-.64.393-1.221.85-1.747 1.36a.774.774 0 0 1-.705.01l-4.332-1.23a.65.65 0 0 0-.87.29l-1.382 2.784c-.16.323 1.344 1.086 1.666 1.247l2.467 1.844a.687.687 0 0 1 .248.193 10.354 10.354 0 0 0-.269 2.199.79.79 0 0 1-.489.505l-2.704 1.489a.652.652 0 0 0-.408.822l-.484 3.123a.646.646 0 0 0 .823.403l4.525-.618a.688.688 0 0 1 .311-.032c.398.634.855 1.22 1.366 1.746a.78.78 0 0 1 .011.699l-1.28 3.547a.65.65 0 0 0 .29.871l2.785 1.387c.323.156.71.027.87-.296l2.264-3.058a.793.793 0 0 1 .198-.247c.715.166 1.452.258 2.199.274.225.07-.925.672-.844.913l1.489 2.699a.651.651 0 0 0 .822.408l4.289-1.419a.642.642 0 0 0 .409-.817l-.441-3.053c-.038-.102-.049-.21-.038-.311a10.07 10.07 0 0 0 1.747-1.366c.215-.107.225.27.45.382l2.963.855a.65.65 0 0 0 .87-.29l1.63-3.172a.646.646 0 0 0-.291-.87l-2.473-1.844a.79.79 0 0 1-.242-.193c.167-.72.258-1.457.269-2.204a.793.793 0 0 1 .49-.5l2.703-1.489a.645.645 0 0 0 .403-.822z"/></g><g><path fill="#383c48" d="M39.987 98.455c-4.708.914-9.267-2.166-10.18-6.874-.908-4.709 2.166-9.266 6.874-10.18a8.69 8.69 0 0 1 10.18 6.88c.914 4.708-2.166 9.26-6.874 10.174zm12.388-11.169l-.989-2.945a.654.654 0 0 0-.822-.409l-3.053.447a.749.749 0 0 1-.306.032 10.592 10.592 0 0 0-1.365-1.747.773.773 0 0 1-.011-.704l.855-2.956a.651.651 0 0 0-.29-.87l-2.785-1.382a.65.65 0 0 0-.87.29l-1.844 2.472a.714.714 0 0 1-.194.242 10.792 10.792 0 0 0-2.203-.268.78.78 0 0 1-.5-.49L36.509 76.3a.651.651 0 0 0-.822-.408l-2.946.989a.653.653 0 0 0-.408.822l.446 3.053c.032.102.043.21.038.312-.64.392-1.225.849-1.752 1.36a.763.763 0 0 1-.699.01l-2.962-.854a.65.65 0 0 0-.87.29l-1.381 2.784a.646.646 0 0 0 .29.87l2.472 1.844a.787.787 0 0 1 .247.194 10.024 10.024 0 0 0-.274 2.198.776.776 0 0 1-.489.505l-2.698 1.489a.654.654 0 0 0-.409.822l.995 2.946a.649.649 0 0 0 .822.408l3.047-.446a.682.682 0 0 1 .313-.032c.392.634.854 1.22 1.364 1.747a.796.796 0 0 1 .011.698l-.86 2.962a.653.653 0 0 0 .296.87l2.784 1.382a.644.644 0 0 0 .865-.296l1.844-2.467a.79.79 0 0 1 .193-.247 10.1 10.1 0 0 0 2.204.274.78.78 0 0 1 .5.49l1.489 2.697a.65.65 0 0 0 .822.409l2.946-.994a.646.646 0 0 0 .408-.817l-.447-3.053c-.031-.102-.043-.21-.031-.312.633-.392 1.22-.85 1.746-1.365a.79.79 0 0 1 .704-.006l2.956.855a.647.647 0 0 0 .871-.296l1.381-2.778a.646.646 0 0 0-.29-.871L48.753 92.5a1.005 1.005 0 0 1-.247-.2 10.09 10.09 0 0 0 .274-2.203.778.778 0 0 1 .489-.5l2.698-1.488a.651.651 0 0 0 .408-.823z"/></g><g><path fill="#292b37" d="M39.986 98.455c-4.708.914-9.266-2.166-10.18-6.874-.907-4.709 2.167-9.266 6.875-10.18a8.69 8.69 0 0 1 10.18 6.88c.914 4.708-2.166 9.26-6.875 10.174z"/></g><g><path fill="#383c48" d="M39.524 96.063a6.25 6.25 0 1 1-2.38-12.272 6.25 6.25 0 0 1 2.38 12.272z"/></g></g></g></g><g><g><g><path fill="#ff4140" d="M314.726 99.44l53.43-1.144L361.47.932l-79.843 5.074-3.18 94.468 19.955-.408-11.636 27.03z"/></g></g><g><g><g><path fill="#fbf9f7" d="M347.497 35.974c-1.161-14.045-11.717-23.886-25.852-23.886h-.194c-14.13 0-24.691 9.841-25.847 23.886-.575 6.885-.694 13.12 10.631 26.4 2.365 2.78 3.063 8.342 3.322 11.62.145 1.785 8.772 2.951 11.99 3.188 3.226-.237 11.847-1.403 11.992-3.187.263-3.28.962-8.842 3.327-11.62 11.32-13.282 11.196-19.516 10.631-26.401z"/></g><g><path fill="#141b2f" d="M321.548 68.308h-13.727v17.645c.027.307.414.704 1.182 1.134l9.374 5.225c.87.489 2.02.736 3.171.736 1.15 0 2.306-.247 3.176-.736l9.368-5.225c.769-.43 1.156-.827 1.188-1.134V68.308z"/></g><g><g><path fill="#383c48" d="M306.516 71.894V68.31h30.066v3.585z"/></g><g><path fill="#383c48" d="M306.516 79.118v-3.58h30.066v3.58z"/></g><g><path fill="#383c48" d="M306.516 86.344v-3.588h30.066v3.588z"/></g></g></g><g><g><g><g><g><path fill="#f4b222" d="M303.188 37.99c0 11.313 9.17 20.482 20.489 20.482V17.501c-11.32 0-20.49 9.174-20.49 20.488z"/></g><g><path fill="#f4b222" d="M344.16 37.99c0 2.138-.328 4.202-.936 6.142a20.429 20.429 0 0 1-4.235 7.46 20.44 20.44 0 0 1-15.313 6.88V17.501c.463 0 .925.016 1.381.048 10.67.71 19.102 9.588 19.102 20.44z"/></g></g><g><path fill="#ffca00" d="M319.699 17.5c-11.314 0-20.483 9.175-20.483 20.49 0 11.313 9.169 20.482 20.483 20.482s20.488-9.169 20.488-20.483-9.174-20.488-20.488-20.488z"/></g><g><path fill="#f4b222" d="M302.66 37.99c0-9.41 7.63-17.039 17.04-17.039s17.038 7.629 17.038 17.039c0 9.41-7.629 17.038-17.039 17.038-9.41 0-17.038-7.628-17.038-17.038z"/></g><g><path fill="#ffca00" d="M328.046 43.047c0 5.396-3.214 6.627-6.363 6.627v2.596h-3.032v-2.64c-2.59-.08-3.51-.322-5.568-.961v-4.031c1.263.096 4.386.311 7.336.311 1.35 0 2.424-.322 2.424-1.693v-.919c0-1.14-.354-1.822-1.918-1.822h-2.456c-5.687 0-6.117-4.66-6.117-6.401v-1.978c.01-4.542 2.811-6.009 6.3-6.116v-2.73h3.03v2.751c2.231.108 3.93.468 5.51.951v4.048c-1.92-.162-5.332-.307-6.902-.307-1.838-.021-2.74.124-2.74 1.881v.78c0 1.376.57 1.924 2.251 1.924h2.553c4.709 0 5.692 3.854 5.692 6.401z"/></g></g><g opacity=".3"><g opacity=".3"><path fill="#ffca00" d="M314.76 18.103L299.813 33.05a20.382 20.382 0 0 0-.597 4.896l20.44-20.445a20.7 20.7 0 0 0-4.896.602z"/></g><g opacity=".3"><path fill="#ffca00" d="M326.837 18.78L300.49 45.127a20.512 20.512 0 0 0 6.547 8.965l28.77-28.766a20.525 20.525 0 0 0-8.97-6.546z"/></g></g></g></g></g></g></g></g></svg>