<svg xmlns="http://www.w3.org/2000/svg" width="488" height="299" viewBox="0 0 488 299"><g><g><g><g><g><g><path fill="#2a9dd1" d="M304.797 241.562v-92.13h48.541v92.13z"/></g><g><path fill="#2895c7" d="M304.797 171.661v-22.228h48.541v22.228z"/></g><g><path fill="#2485b0" d="M484.219 202.114H352.978L366.1 44.992h104.997z"/></g><g><path fill="#45a8a5" d="M352.978 241.563v-39.45h131.24v39.45z"/></g><g><g><path fill="#240e01" d="M285.732 227.126l-3.798 50.98h6.462l20.275-50.98z"/></g><g><path fill="#451b01" d="M279.978 227.126l-3.802 50.98h6.467l20.273-50.98z"/></g></g><g><g><path fill="#120700" d="M335.762 227.126l-3.803 50.98h6.467l20.266-50.98z"/></g><g><path fill="#331400" d="M330.001 227.126l-3.795 50.98h6.463l20.274-50.98z"/></g></g><g><g><path fill="#240e01" d="M436.107 227.126l3.804 50.98h-6.466l-20.262-50.98z"/></g><g><path fill="#451b01" d="M430.356 227.126l3.802 50.98h-6.464l-20.267-50.98z"/></g></g><g><g><path fill="#120700" d="M483.5 227.126l3.802 50.98h-6.464l-20.273-50.98z"/></g><g><path fill="#331400" d="M478.906 227.126l3.803 50.98h-6.458l-20.28-50.98z"/></g></g><g><path fill="#4fbef0" d="M464.694 202.114H333.451l13.127-157.122H460.07z"/></g><g><path fill="#54caff" d="M361.49 55.526h98.892l-.312-10.534H346.578L333.45 202.114h16.112z"/></g><g><path fill="#2a9dd1" d="M436.04 241.562v-92.13h48.555v92.13z"/></g><g><path fill="#2895c7" d="M436.04 171.661v-22.228h48.555v22.228z"/></g><g><path fill="#2eabe3" d="M274.298 241.563v-39.45h131.237v39.45z"/></g><g><path fill="#2485b0" d="M314.348 202.643h91.187v-8.67H274.298v39.449h40.05z"/></g><g><path fill="#71cff3" d="M274.298 241.562v-92.13h30.5v92.13z"/></g></g><g><g><g><g><g><g><g><path fill="#edb485" d="M311.757 103.592l5.795-1.01-1.76-10.024-5.795 1.002z"/></g><g><g><path fill="#edb485" d="M309.988 89.365a1.507 1.507 0 0 1-.88 1.923 1.511 1.511 0 0 1-1.918-.885l-3.127-8.382a1.488 1.488 0 0 1 .886-1.923 1.486 1.486 0 0 1 1.912.88z"/></g><g><path fill="#edb485" d="M316.855 87.776c.153.8-.38 1.589-1.192 1.742a1.49 1.49 0 0 1-1.748-1.186l-1.69-8.78a1.491 1.491 0 0 1 1.18-1.753 1.5 1.5 0 0 1 1.747 1.186z"/></g><g><path fill="#edb485" d="M313.115 87.254a1.486 1.486 0 0 1-1.056 1.827c-.788.221-1.605-.261-1.821-1.05l-2.338-8.643a1.481 1.481 0 0 1 1.055-1.833 1.494 1.494 0 0 1 1.833 1.05z"/></g><g transform="rotate(-15.157 312.5 90.5)"><path fill="#edb485" d="M307.787 95.13a.52.52 0 0 1-.52-.52v-9.09c0-.288.233-.521.52-.521h9.086c.288 0 .521.233.521.52v9.091a.52.52 0 0 1-.52.52z"/></g></g></g></g></g><g><path fill="#fff9ed" d="M293.809 47.042c.738 0 32.035-4.302 32.035-4.302l2.82 46.38-32.239 2.26z"/></g><g><path fill="#edb485" d="M321.236 85.62a1.621 1.621 0 0 0-2.287.192l-4.67 5.505c.25.8.618 1.628 1.174 2.156.346.33 1.697.034 1.697.034l4.279-5.595c.584-.687.5-1.708-.193-2.293z"/></g><g><g><path fill="#141b2f" d="M365.176 177.767v-9.346c0-12.593 10.306-22.892 22.893-22.892h.402c12.587 0 22.887 10.3 22.887 22.892l.125 6.753v2.593z"/></g><g><g><g><g transform="rotate(-88.666 307 282)"><path fill="#cf9b72" d="M303.55 286.314v-8.146h6.85v8.146z"/></g><g transform="rotate(-88.583 306.5 288.5)"><path fill="#edd6b6" d="M301.885 292.974v-9.576h9.918v9.576z"/></g><g><g><g><g><path fill="#141b2f" d="M301.425 284.466c1.952-.011 3.524 1.578 3.524 3.53v3.229a3.526 3.526 0 0 1-3.53 3.53 3.523 3.523 0 0 1-3.53-3.53v-3.258a3.51 3.51 0 0 1 3.536-3.501z"/></g><g><path fill="#17191a" d="M313.098 296.292c0 .994-.8 1.794-1.782 1.794-3.331-.006-10.476-.006-10.476-.006l-16.446-.011v-2.367l28.71.046z"/></g><g><path fill="#141b2f" d="M284.4 295.765l28.698.028.005-2.74V289.425c0-.874-.635-1.6-1.464-1.748v.193a3.345 3.345 0 1 1-6.69.017v-.244l-7.06.454v.176c0 .426-.079.828-.34 1.186-.068.08-.148.17-.244.244-.335.29-.795.5-1.476.619-.119.016-.238.04-.368.062-.318.028-.67.04-1.062.057l-3.467-.017c-3.604 0-6.526 1.753-6.532 5.34z"/></g></g></g></g></g><g><path fill="#141b2f" d="M299.274 243.868c1.067-14.011 2.168-28.505 3.377-42.896l.028-.295c.624-5.596 3.064-10.09 5.119-13.37l.312-.471c3.74-5.346 9.238-9.125 15.906-10.936l2.339-.374c11.866-.534 33.714-.34 46.624-.3v21.337c-8.677-.006-16.985-.017-20.697-.046-13.716-.142-9.856-.267-23.59.29-1.753.67-2.565 1.589-2.94 2.094-1.128 1.833-1.696 3.081-1.827 4.051-1.185 14.25-2.28 28.63-3.348 42.55-.528 6.964-1.072 28.999-1.634 36.155l-21.428-.006c.601-7.683 1.186-30.275 1.759-37.783z"/></g><g><path fill="#141b2f" d="M321.332 197.068c4.063-8.127 17.859-10.408 18.886-21.86 11.094-.108 23.988-.011 32.76.017v21.338c-8.676-.006-16.984-.017-20.696-.046-13.716-.142-9.856-.267-23.59.29-1.753.67-2.565 1.589-2.94 2.094-1.128 1.833-1.696 3.081-1.827 4.051-1.185 14.25-2.28 28.63-3.348 42.55-.528 6.964-1.072 28.999-1.634 36.155l-21.428-.006c.17-2.173.34-5.561.505-9.443 4.052-1.345 9.17-1.623 12.768-3.422 14.766-23.204 0-48.514 10.544-71.718z"/></g></g><g><g><g transform="rotate(-88.666 339.5 282)"><path fill="#edb485" d="M335.721 286.315v-8.147h6.85v8.147z"/></g><g transform="rotate(-88.583 339 288.5)"><path fill="#fff" d="M334.053 292.974v-9.576h9.918v9.576z"/></g><g><g><g><g><path fill="#141b2f" d="M333.59 284.466c1.952-.011 3.53 1.578 3.53 3.53v3.229a3.526 3.526 0 0 1-3.53 3.53 3.528 3.528 0 0 1-3.536-3.53v-3.258c0-1.935 1.59-3.512 3.536-3.501z"/></g><g><path fill="#17191a" d="M345.27 296.292c0 .994-.802 1.794-1.783 1.794-3.331-.006-10.481-.006-10.481-.006l-16.44-.011v-2.367l28.708.046z"/></g><g><path fill="#141b2f" d="M316.571 295.765l28.698.028.005-2.74V289.425c0-.874-.64-1.6-1.464-1.748v.193a3.356 3.356 0 0 1-3.348 3.354 3.343 3.343 0 0 1-3.342-3.337v-.244l-7.066.454v.176c0 .426-.079.828-.34 1.186-.062.08-.142.17-.244.244-.33.29-.794.5-1.476.619-.113.016-.238.04-.368.062-.318.028-.664.04-1.062.057l-3.461-.017c-3.604 0-6.526 1.753-6.532 5.34z"/></g></g></g></g></g><g><path fill="#141b2f" d="M330.764 243.863c1.06-14.006 2.167-28.5 3.376-42.891l.028-.295c.625-5.596 3.07-10.096 5.12-13.364l.306-.477c3.592-5.124 8.625-9.471 15.083-10.692 3.848-.726 10.942-.93 15.692-.93h.527c1.918-.023 3.905-.029 5.925-.04v.057c1.083 0 2.065-.006 2.91-.017h12.134v-.04h19.618v10.203c0 6.163-5.006 11.157-11.174 11.169 0 0-19.255.028-33.88.01-1.594.063-3.591.148-6.253.25-1.753.67-2.565 1.59-2.934 2.095-1.123 1.833-1.696 3.081-1.827 4.051-1.186 14.25-2.281 28.624-3.348 42.55-.528 6.958-1.078 28.999-1.634 36.155l-21.428-.006c.601-7.683 1.185-30.28 1.759-37.788z"/></g><g><path fill="#141b2f" d="M355.086 199.179c-18.682 18.676 9.562 69.999-25.69 75.663.465-9.977.92-25.095 1.368-30.98 1.06-14.005 2.167-28.499 3.376-42.89l.028-.295c.625-5.596 3.065-10.096 5.12-13.364l.306-.477c3.592-5.124 8.625-9.471 15.083-10.692 3.848-.726 10.942-.93 15.692-.93h.527c1.918-.023 3.91-.029 5.925-.04v.057c1.083 0 2.065-.006 2.911-.017h12.133v-.04h15.895c-1.3 25.526-40.229 9.483-52.674 24.005z"/></g><g><path fill="#141b2f" d="M355.086 199.179c12.445-14.522 51.374 1.52 52.674-24.005h3.723v10.203c0 6.163-5.006 11.157-11.174 11.169 0 0-19.255.028-33.88.01-1.594.063-3.591.148-6.253.25-1.753.67-2.565 1.59-2.934 2.095-1.123 1.833-1.696 3.081-1.827 4.051-1.186 14.25-2.281 28.624-3.348 42.55-.528 6.958-1.078 28.999-1.634 36.155l-21.428-.006c.13-1.662.26-4.052.391-6.81 35.252-5.663 7.008-56.986 25.69-75.662z"/></g></g></g></g><g><g><path fill="#141b2f" d="M331.973 138.344c.584.284 1.186.54 1.787.778 7.264 2.746 14.789.93 21.19-5.125 12.853-12.15 19.726-47.283 17.053-62.077-.596-3.32-3.774-5.522-7.093-4.926a6.115 6.115 0 0 0-4.932 7.1c2.247 12.445-4.892 42.958-13.42 51.022-3.865 3.655-6.561 3.297-8.468 2.57a9.766 9.766 0 0 1-.84-.357c-8.353-4.057-16.945-22.177-17.779-31.404l-11.713 2.128c.976 10.833 10.073 33.425 24.215 40.291z"/></g></g><g><g><path fill="#1c2842" d="M414.496 71.256v96.7c0 1.498-.8 2.792-1.975 3.433-.33.176-.687.306-1.067.369-.193.04-.391.057-.601.057h-44.916c-.233 0-.466-.023-.687-.074a3.559 3.559 0 0 1-2.208-1.447h-.006a3.823 3.823 0 0 1-.533-1.039 3.943 3.943 0 0 1-.215-1.3V71.257c0-.267.022-.516.062-.76.176-1.01.726-1.788 1.527-2.367.527-.386 1.169-.67 1.895-.89l1.85-.358 9.057-1.731 1.39-.267 9.063-1.742.113.023 6.282 1.123 1.09.193 14.374 2.571 1.862.335c.868 0 1.668.318 2.293.857a3.853 3.853 0 0 1 1.276 2.236c.046.25.074.51.074.777z"/></g></g><g opacity=".4"><g opacity=".4"><path fill="#e2f1f1" d="M414.422 70.479a3.861 3.861 0 0 0-1.282-2.236 3.466 3.466 0 0 0-2.287-.857l-1.862-.335-3.915-.698c1.867 20.344 3.824 40.887 3.365 61.215 0 9.443-2.423 19.13-8.717 26.876-5.572 7.508-14.777 9.687-23.493 11.14-4.677.624-9.324.947-13.943 1.01v1.362c0 .454.073.89.215 1.3.125.374.307.726.533 1.038l.006.005a3.598 3.598 0 0 0 2.208 1.442c.221.05.454.074.687.074h44.916c.21 0 .408-.018.601-.057.38-.063.738-.193 1.067-.37 1.175-.64 1.975-1.934 1.975-3.432v-96.7a4.34 4.34 0 0 0-.074-.777z"/></g></g><g><g><path fill="#141b2f" d="M355.393 178.278c0-1.175.953-2.128 2.122-2.128 1.175 0 2.123.953 2.123 2.128a2.123 2.123 0 0 1-4.245 0z"/></g></g><g><g><g><g><path fill="#f3ad7a" d="M378.852 66.955a7.948 7.948 0 0 0 7.946 7.95 7.946 7.946 0 0 0 7.955-7.95V40.822a7.945 7.945 0 0 0-7.955-7.945 7.946 7.946 0 0 0-7.946 7.945z"/></g><g opacity=".3"><path fill="#f3ad7a" d="M387.637 65.11c-2.173-1.305-5.833 2.367-8.785 1.845V40.822a7.946 7.946 0 0 1 7.946-7.945 7.945 7.945 0 0 1 7.955 7.945v26.133c0 2.905-1.56 5.436-3.887 6.826 1.101-5.26 1.776-5.669-3.229-8.67z"/></g></g><g><g><path fill="#ffcd9c" d="M366.765 40.952c0 9.143 7.406 16.56 16.553 16.56 9.16 0 16.571-7.417 16.571-16.56V23.565c0-9.148-7.411-16.56-16.57-16.56-9.148 0-16.554 7.412-16.554 16.56z"/></g><g><path fill="#fec08a" d="M392.097 37.599c3.252-5.42 5.42-15.714-.544-18.971-5.964-3.791-13.552 0-20.594-2.168-1.095 0-2.055.556-3.014.964 2.44-6.106 8.399-10.419 15.373-10.419 9.16 0 16.571 7.412 16.571 16.56v17.387c0 9.143-7.411 16.56-16.57 16.56a16.47 16.47 0 0 1-8.257-2.208c6.866-4.466 12.785-10.215 17.035-17.705z"/></g><g><path fill="#bf4223" d="M366.816 22.322S363.95-1.121 386.746.45c12.298-.08 12.298 7.355 12.298 7.355s8.223-.29 10.611 5.141c1.64 3.734 2.628 9.93 2.628 14.346 0 10.544-6.038 19.255-13.892 20.702a17.219 17.219 0 0 0 1.402-6.844l.097-8.773c-.54.505-1.822 3.416-2.112 4.142-1.384 3.434-1.85 4.813-1.85 3.104 0 0 4.625-24.617-2.469-24.89-5.822-.226-3.642 2.236-11.854 2.407-4.478.096-7.905-3.536-10.39-2.9-4.15 1.067-4.399 8.08-4.399 8.08z"/></g><g><path fill="#bf4223" d="M397.358 27.202s-.238 15.85-7.003 16.945c-4.954.806-11.775.778-15.038.37-4.347-.54-8.37-2.231-8.37-2.231s-4.591 19.425-1.186 21.32c7.502 4.217 22.926 1.726 28.924-6.872 1.856-2.667 7.7-13.256 7.7-24.135l6.346-4.245z"/></g><g><path fill="#91321b" d="M366.566 59.492c12.468 5.425 26.559-1.623 32.523-14.09.54-1.623 5.42-3.252 7.042-5.42 7.049-7.048 3.797-18.971 1.629-28.181-.369-1.107-1.742-2.213-3.263-3.15 2.054.704 4.137 1.975 5.158 4.296 1.64 3.734 2.628 9.931 2.628 14.346 0 10.175-5.624 18.648-13.08 20.52-1.686 4.308-3.598 7.593-4.518 8.921-5.998 8.598-21.422 11.089-28.925 6.872-1.055-.584-1.339-2.843-1.237-5.686a9.901 9.901 0 0 0 2.043 1.572z"/></g><g><g><path fill="#fec08a" d="M399.526 38.892c1.765.732 4.114-.908 5.244-3.649 1.14-2.752.63-5.566-1.124-6.299-1.765-.726-4.12.908-5.255 3.655-1.135 2.747-.624 5.561 1.135 6.293z"/></g><g><path fill="#f3ad7a" d="M400.496 36.254c.704.363 1.731-.227 2.299-1.323.573-1.095.46-2.275-.239-2.644-.703-.363-1.736.227-2.304 1.322-.567 1.095-.46 2.276.244 2.645z"/></g></g></g></g><g><g><g><path fill="#2a2626" d="M383.937 32.877c0 1.419.914 2.57 2.038 2.57 1.123 0 2.042-1.151 2.042-2.57 0-1.419-.919-2.57-2.042-2.57-1.124 0-2.038 1.151-2.038 2.57z"/></g><g><path fill="#fefefe" d="M385.974 31.827c0 .58.375 1.05.834 1.05.46 0 .829-.47.829-1.05 0-.579-.369-1.05-.829-1.05-.46 0-.834.471-.834 1.05z"/></g></g><g><g><g><path fill="#f3ad7a" d="M378.852 44.25c1.345 0 2.775-1.101 2.753-2.446-.04-2.333-.58-3.502-.619-5.834-.022-1.345-.789-2.446-2.134-2.446-1.344 0-2.116 1.101-2.14 2.446-.039 2.332-.578 3.501-.618 5.834-.022 1.345 1.414 2.446 2.758 2.446z"/></g></g><g opacity=".3"><path fill="#ffe9d4" d="M376.662 41.151c0 .772.386 1.396.869 1.396.476 0 .868-.624.868-1.396 0-.772-.392-1.402-.868-1.402-.483 0-.869.63-.869 1.402z"/></g></g><g><g><path fill="#2a2626" d="M369.744 32.877c0 1.419.908 2.57 2.038 2.57 1.123 0 2.025-1.151 2.025-2.57 0-1.419-.902-2.57-2.025-2.57-1.13 0-2.038 1.151-2.038 2.57z"/></g><g><path fill="#fefefe" d="M371.776 31.827c0 .58.375 1.05.835 1.05.46 0 .828-.47.828-1.05 0-.579-.369-1.05-.828-1.05-.46 0-.835.471-.835 1.05z"/></g></g><g opacity=".1"><path fill="#f48fb7" d="M386.043 42.593c.295 1.05 1.935 1.509 3.671 1.027 1.737-.483 2.906-1.726 2.616-2.775-.295-1.05-1.935-1.516-3.671-1.033-1.737.488-2.906 1.73-2.616 2.78z"/></g><g opacity=".1"><path fill="#f48fb7" d="M374.352 42.593c-.29 1.05-1.935 1.509-3.666 1.027-1.736-.483-2.905-1.726-2.616-2.775.295-1.05 1.935-1.516 3.672-1.033 1.736.488 2.905 1.73 2.61 2.78z"/></g><g><g><path fill="#462119" d="M371.311 46.406c-.017.34-.046 1.839.05 2.162.54 1.907 2.918 3.433 5.852 3.604 2.934.17 5.481-1.073 6.242-2.9.125-.318.272-1.81.29-2.151z"/></g><g><path fill="#fefefe" d="M371.867 46.434c.01.17.04.318.08.386.544.891 2.768 1.657 5.47 1.816 2.7.153 5.01-.352 5.658-1.175.05-.056.085-.204.119-.368z"/></g></g><g><g><path fill="#bf4223" d="M382.774 29.455c2.35-.306 3.552-.306 5.902 0 .93.12 1.844-.465 2.031-1.379.188-.913-.522-1.844-1.594-1.986-2.696-.352-4.075-.352-6.776 0-1.067.142-1.782 1.073-1.595 1.986.193.914 1.101 1.498 2.032 1.38z"/></g></g><g><g><path fill="#bf4223" d="M368.91 29.455c2.355-.306 3.553-.306 5.908 0 .93.12 1.838-.465 2.026-1.379.193-.913-.522-1.844-1.589-1.986-2.701-.352-4.08-.352-6.782 0-1.067.142-1.782 1.073-1.589 1.986.188.914 1.095 1.498 2.026 1.38z"/></g></g></g></g></g></g></g><g><path fill="#71cff3" d="M405.535 241.562v-92.13h30.505v92.13z"/></g></g></g><g><g><path fill="#2a9dd1" d="M134.447 241.562v-92.13h48.542v92.13z"/></g><g><path fill="#2895c7" d="M134.447 171.661v-22.228h48.542v22.228z"/></g><g><path fill="#2485b0" d="M3.567 202.114h131.24L121.685 44.992H16.69z"/></g><g><path fill="#45a8a5" d="M134.808 241.563v-39.45H3.567v39.45z"/></g><g><g><path fill="#240e01" d="M202.054 227.126l3.798 50.98h-6.462l-20.275-50.98z"/></g><g><path fill="#451b01" d="M207.808 227.126l3.802 50.98h-6.467l-20.273-50.98z"/></g></g><g><g><path fill="#120700" d="M152.024 227.126l3.803 50.98h-6.467l-20.266-50.98z"/></g><g><path fill="#331400" d="M157.784 227.126l3.795 50.98h-6.462l-20.274-50.98z"/></g></g><g><g><path fill="#240e01" d="M51.679 227.126l-3.804 50.98h6.466l20.261-50.98z"/></g><g><path fill="#451b01" d="M57.43 227.126l-3.803 50.98h6.465l20.266-50.98z"/></g></g><g><g><path fill="#120700" d="M4.285 227.126l-3.801 50.98h6.464l20.272-50.98z"/></g><g><path fill="#331400" d="M8.88 227.126l-3.802 50.98h6.457l20.28-50.98z"/></g></g><g><path fill="#4fbef0" d="M23.092 202.114h131.243L141.208 44.992H27.716z"/></g><g><path fill="#54caff" d="M126.296 55.526H27.404l.312-10.534h113.492l13.127 157.122h-16.112z"/></g><g><path fill="#2a9dd1" d="M3.19 241.562v-92.13h48.556v92.13z"/></g><g><path fill="#2895c7" d="M3.19 171.661v-22.228h48.556v22.228z"/></g><g><path fill="#2eabe3" d="M213.487 241.563v-39.45H82.251v39.45z"/></g><g><path fill="#2485b0" d="M173.437 202.643H82.251v-8.67h131.236v39.449h-40.05z"/></g><g><path fill="#71cff3" d="M182.989 241.562v-92.13h30.498v92.13z"/></g></g><g><path fill="#71cff3" d="M51.746 241.562v-92.13h30.505v92.13z"/></g><g><g><g><g><g><path fill="#bd6500" d="M116.674 39.511c.273-2.82.21-7.31 1.952-13.807h14.125c-.181 3.848.823 7.882 2.69 11.628 3.666 7.36 8.087 13.432 7.798 22.126-.216 6.487-3.74 13.404-9.54 16.18-4.41 2.11-10.521 3.313-14.823.328-.686-.47-.612-1.367.16-1.702.635-.273 2.961-2.57 3.88-3.564 2.753-2.962.625-8.813-.8-11.934-2.933-6.401-6.14-11.974-5.442-19.255z"/></g><g><g><g transform="rotate(-20.853 200.5 145)"><path fill="#ffcd9c" d="M195.311 147.92v-6.226h10.771v6.226z"/></g><g><g><path fill="#ffcd9c" d="M210.673 143.542a1.575 1.575 0 0 0-1.271 1.828 1.58 1.58 0 0 0 1.833 1.277l9.323-1.686a1.593 1.593 0 0 0 1.272-1.85 1.582 1.582 0 0 0-1.834-1.265z"/></g><g><path fill="#ffcd9c" d="M208.408 136.438a1.582 1.582 0 0 0-.953 2.014 1.57 1.57 0 0 0 2.02.953l8.915-3.206a1.588 1.588 0 0 0 .954-2.026 1.606 1.606 0 0 0-2.02-.953z"/></g><g><path fill="#ffcd9c" d="M207.988 131.28c.897.3 1.38 1.276 1.073 2.184l-2.48 7.235c-.868.205-1.816.307-2.605.091-.494-.13-.942-1.52-.942-1.52l2.764-6.924a1.723 1.723 0 0 1 2.19-1.067z"/></g><g><path fill="#ffcd9c" d="M210.9 139.547a1.575 1.575 0 0 0-1.101 1.947 1.587 1.587 0 0 0 1.94 1.1l9.137-2.553a1.592 1.592 0 0 0 1.106-1.946 1.604 1.604 0 0 0-1.952-1.101z"/></g><g transform="rotate(-15.733 209 142)"><path fill="#ffcd9c" d="M203.953 147.148a.552.552 0 0 1-.553-.552v-9.62c0-.304.247-.55.552-.55h9.626c.304 0 .55.246.55.55v9.619a.553.553 0 0 1-.552.553z"/></g></g></g><g><g><path fill="#ded9cb" d="M204.47 148.94s-6.43 2.201-12.905 2.525c-8.398.425-36.852-.103-49.995-24.919-2.134-4.035-5.08-12.598-6.839-22.637-1.514-8.591-2.672-21.315.364-33.152a5.945 5.945 0 0 1 7.235-4.28 5.946 5.946 0 0 1 4.279 7.236c-4.489 17.479 2.094 40.893 5.465 47.266 6.293 11.878 17.751 16.23 26.257 17.79 9.648 1.777 20.714-.413 20.714-.413z"/></g></g><g><path fill="#fff9ea" d="M142.762 107.19c4.358-3.247 7.213-8.689 7.213-14.852 0-5.334-2.134-10.124-5.528-13.427v-9.13c0-1.18-.425-2.094-1.158-2.787a4.874 4.874 0 0 0-1.152-.811 6.484 6.484 0 0 0-1.248-.488l-21.854-4.2-9.222 1.657-15.032 2.685c-2.06 0-3.729 1.776-3.729 3.944 0 0 9.262 47.515 8.303 55.925-1.986 17.331-11.203 30.962-11.203 30.962l23.97 22.78h32.143s-.22-1.624-.584-4.285c-1.334-9.716-4.393-33.295-4.21-42.505.107-5.25 1.929-17.178 3.29-25.469z"/></g><g><g><path fill="#1c1e29" d="M124.052 69.429a1.578 1.578 0 1 0-3.154 0 1.578 1.578 0 0 0 3.154 0z"/></g><g><path fill="#1c1e29" d="M124.052 82.067a1.578 1.578 0 0 0-3.155 0c0 .868.709 1.572 1.577 1.572.874 0 1.578-.704 1.578-1.572z"/></g><g><path fill="#1c1e29" d="M124.052 94.705a1.578 1.578 0 0 0-3.155 0c0 .868.709 1.572 1.577 1.572.874 0 1.578-.704 1.578-1.572z"/></g><g><path fill="#1c1e29" d="M120.899 107.34a1.576 1.576 0 1 1 3.152 0 1.576 1.576 0 0 1-3.152 0z"/></g><g><path fill="#1c1e29" d="M120.899 119.976a1.576 1.576 0 1 1 3.152 0 1.576 1.576 0 0 1-3.152 0z"/></g><g><path fill="#1c1e29" d="M120.899 132.613a1.576 1.576 0 1 1 3.152 0 1.576 1.576 0 0 1-3.152 0z"/></g><g><path fill="#1c1e29" d="M124.052 146.635a1.578 1.578 0 1 0-3.156 0 1.578 1.578 0 0 0 3.156 0z"/></g><g><path fill="#1c1e29" d="M124.052 157.707a1.578 1.578 0 1 0-3.156 0 1.578 1.578 0 0 0 3.156 0z"/></g></g><g opacity=".4"><path fill="#ded9cb" d="M109.728 148.048c-6.838-7.519-3.422-19.147 1.368-26.666 4.784-9.573 19.147-3.422 24.618-13.676-10.942-4.103-27.802 2.917-32.591-8.706-4.784-12.308 6.605-21.382 5.238-35.059a6.905 6.905 0 0 0-.09-.51l-13.49 2.406c-2.06 0-3.729 1.776-3.729 3.944 0 0 9.262 47.515 8.303 55.925-1.981 17.331-11.203 30.962-11.203 30.962l23.97 22.78h32.143s-.22-1.624-.584-4.285a910.022 910.022 0 0 1-2.242-17.62c-.363-3.139-28.295-5.392-31.71-9.495z"/></g><g><path fill="#1c2842" d="M162.045 196.165h-61.203c-10.913 0-19.783-8.847-19.783-19.777 0-10.924 3.78-15.878 7.315-19.788l76.344 7.02s8.245 32.545-2.673 32.545z"/></g><g><path fill="#141b2f" d="M88.374 156.6l7.105.658c-5.908 9.824-5.312 23.177 4.069 28.386 20.974 12.91 44.956 1.793 67.74 4.387-.664 3.62-2.213 6.134-5.243 6.134h-61.203c-10.913 0-19.783-8.847-19.783-19.777 0-10.924 3.78-15.878 7.315-19.788z"/></g><g><path fill="#141b2f" d="M181.844 180.253c0-9.261-8.852-16.775-19.776-16.775h-4.11c-10.912 0-19.77 7.514-19.77 16.775 0 9.278 8.858 16.78 19.77 16.78h4.11c10.924 0 19.776-7.502 19.776-16.78z"/></g><g><g><path fill="#f3ad7a" d="M180.635 284.852l1.85-106.846c0-4.795-3.88-8.671-8.66-8.671a8.66 8.66 0 0 0-8.67 8.67l6.52 104.969z"/></g></g><g><path fill="#141b2f" d="M191.06 293.052c.937-.51.8-.108.817-1.52.034-2.129-10.197-8.99-11.395-9.915-8.467-6.588-9.199-4.188-9.255-4.103-2.696 1.578-3.36 4.966-2.543 7.378 1.334 3.91 6.129.573 8.206 4.012 3.099 5.113 11.543 4.914 14.17 4.148z"/></g><g><path fill="#141b2f" d="M171.373 293.45h-1.748l-.764-8.212h2.915z"/></g><g><path fill="#f3ad7a" d="M179.847 281.13s6.804 4.448 6.594 6.383c-.181 1.595-12.973-4.239-14.329-5.237-1.606-1.17-1.844-2.934-1.226-4.54.432-1.13 3.593-2.844 5.953-1.47 1.953 1.14 3.008 4.863 3.008 4.863z"/></g><g><g><path fill="#f3ad7a" d="M159.31 281.589l1.827-105.263a8.54 8.54 0 0 0-8.54-8.546 8.537 8.537 0 0 0-8.547 8.546l6.424 103.413z"/></g></g><g><path fill="#141b2f" d="M170.528 293.052c.937-.51.8-.108.818-1.52.022-2.129-10.204-8.99-11.395-9.915-8.473-6.588-9.205-4.188-9.267-4.103-2.702 1.578-3.349 4.966-2.537 7.378 1.328 3.91 6.123.573 8.206 4.012 3.104 5.113 11.531 4.914 14.175 4.148z"/></g><g><path fill="#141b2f" d="M150.834 293.45h-1.752l-.755-8.212h2.916z"/></g><g><path fill="#f3ad7a" d="M159.31 281.13s6.798 4.448 6.593 6.383c-.175 1.595-12.972-4.239-14.334-5.237-1.6-1.17-1.839-2.934-1.22-4.54.426-1.13 3.598-2.844 5.953-1.47 1.958 1.14 3.007 4.863 3.007 4.863z"/></g></g><g><path fill="#e89700" d="M141.445 27.594c0 1.084-.08 2.14-.216 3.183-.119.88-.29 1.77-.505 2.622-2.582 10.187-11.832 17.717-22.841 17.717-2.928 0-5.743-.533-8.336-1.515h-.012c-8.45-3.2-14.578-11.123-15.151-20.532a21.3 21.3 0 0 1-.052-1.475c0-10.453 6.833-19.317 16.281-22.37a23.54 23.54 0 0 1 7.27-1.141c2.049 0 4.012.25 5.896.743.704.17 1.385.38 2.066.625a23.306 23.306 0 0 1 5.43 2.797c6.146 4.25 10.17 11.327 10.17 19.346z"/></g><g><g><g><g><path fill="#f3ad7a" d="M126.804 66.223c0 4.188-4.67 2.553-4.67 2.553-4.2 0-10.493 1.635-10.493-2.553V41.304a7.572 7.572 0 0 1 7.581-7.576 7.576 7.576 0 0 1 7.582 7.576z"/></g><g><g><g><path fill="#fff9ea" d="M121.952 68.827l-8.246 7.406-8.92-13.28 4.528-.805c2.281 7.315 12.638 6.68 12.638 6.68z"/></g><g><path fill="#fff9ea" d="M121.952 68.827l9.466 4.591-.074-9.715-4.54-.715c0 7.025-4.852 5.84-4.852 5.84z"/></g></g></g><g opacity=".3"><path fill="#f3ad7a" d="M119.222 33.728a7.572 7.572 0 0 0-7.581 7.576v24.919c0 1.044.215 2.037.595 2.945h2.583c-.256-3.598.59-6.776 4.205-8.944 2.077-1.243 4.965-1.401 7.78-1.895V41.304a7.576 7.576 0 0 0-7.582-7.576z"/></g></g><g><g><path fill="#ffcd9c" d="M106.732 24.847v16.576c0 4.376 1.776 8.32 4.636 11.163a13.912 13.912 0 0 0 1.89 1.606 15.69 15.69 0 0 0 9.284 3.025 15.66 15.66 0 0 0 7.678-1.998c3.706-2.049 6.48-5.578 7.593-9.766a15.75 15.75 0 0 0 .522-4.03V24.847c0-.198-.023-.403-.023-.601a15.78 15.78 0 0 0-4.79-10.754c-2.859-2.741-6.73-4.432-10.98-4.432-8.74 0-15.81 7.07-15.81 15.787z"/></g></g></g><g><g><path fill="#2a2626" d="M131.61 49.158c-.5 2.066-2.406 3.61-4.67 3.61-2.27 0-4.182-1.544-4.687-3.61-.012-.045.119-.08.357-.113 1.481-.205 7.162-.205 8.643 0 .238.034.369.068.357.113z"/></g><g><path fill="#fff7dc" d="M131.253 49.045l-.017.034c-.46.772-2.213 1.35-4.296 1.35-2.094 0-3.847-.578-4.313-1.35l-.017-.034c1.481-.205 7.162-.205 8.643 0z"/></g></g><g><g><g><g><path fill="#2a2626" d="M121.952 33.728c0 1.357-.874 2.452-1.941 2.452-1.073 0-1.946-1.095-1.946-2.452 0-1.356.873-2.451 1.946-2.451 1.067 0 1.94 1.095 1.94 2.451z"/></g><g><path fill="#fff7dc" d="M120.016 33.473c0 .55-.357.999-.794.999-.437 0-.794-.449-.794-1 0-.555.357-1.003.794-1.003.437 0 .794.448.794 1.004z"/></g></g><g><g><g><path fill="#f3ad7a" d="M126.804 45.084c-.97 0-2.003-.891-1.992-1.987.029-1.895.42-2.843.448-4.744.017-1.09.574-1.986 1.544-1.986.97 0 1.526.897 1.543 1.986.029 1.901.42 2.85.449 4.744.017 1.096-1.022 1.987-1.992 1.987z"/></g></g><g opacity=".3"><path fill="#ffe9d4" d="M128.46 42.706c0 .738-.374 1.34-.828 1.34-.46 0-.828-.602-.828-1.34 0-.738.369-1.334.828-1.334.454 0 .829.596.829 1.334z"/></g></g><g><g><path fill="#2a2626" d="M135.486 33.728c0 1.357-.862 2.452-1.94 2.452-1.073 0-1.935-1.095-1.935-2.452 0-1.356.862-2.451 1.935-2.451 1.078 0 1.94 1.095 1.94 2.451z"/></g><g><path fill="#fff7dc" d="M133.551 33.473c0 .55-.357.999-.794.999-.437 0-.795-.449-.795-1 0-.555.358-1.003.795-1.003.437 0 .794.448.794 1.004z"/></g></g><g opacity=".2"><path fill="#f48fb7" d="M120.351 43.052c-.476 1.725-2.31 2.724-4.091 2.23-1.782-.493-2.832-2.292-2.355-4.023.476-1.725 2.31-2.718 4.091-2.225 1.782.494 2.838 2.293 2.355 4.018z"/></g><g opacity=".2"><path fill="#f48fb7" d="M137.308 43.052c-.477 1.725-2.31 2.724-4.086 2.23-1.782-.493-2.837-2.292-2.36-4.023.482-1.725 2.315-2.718 4.091-2.225 1.782.494 2.838 2.293 2.355 4.018z"/></g></g><g><path fill="#e89700" d="M121.174 27.872c-.794-.046-2.559.477-3.677.845v.352c.92.029 2.378.12 3.916.386 0 0 .981.233 1.078-.42.102-.652-.108-1.09-1.317-1.163z"/></g><g><path fill="#e89700" d="M133.035 27.889c.8-.006 2.53.607 3.632 1.033l-.017.352a29.191 29.191 0 0 0-3.939.181s-.987.182-1.055-.476c-.063-.659.17-1.084 1.379-1.09z"/></g><g><path fill="#2a2626" d="M117.128 32.667s2.129-2.196 4.62 0"/></g><g><path fill="#2a2626" d="M131.849 32.468s2.128-2.196 4.62 0"/></g></g></g><g><path fill="#e89700" d="M107.895 14.865c5.312-7.014 12.582-10.453 16.236-7.684 3.66 2.775 2.31 10.709-2.996 17.717-5.312 7.003-12.576 10.448-16.236 7.673-3.655-2.764-2.31-10.697 2.996-17.706z"/></g><g><path fill="#e89700" d="M141.445 27.594c0 1.084-.08 2.14-.216 3.183-3.654-.414-8.245-2.99-12.184-7.161-6.026-6.407-8.217-14.142-4.874-17.28l.12-.114c2.445.312 4.8.993 6.985 2.026 6.145 4.25 10.169 11.327 10.169 19.346z"/></g></g></g><g><path fill="#edb485" d="M139.124 164.426c0 4.273-4.636.533-10.527.533-5.89 0-10.81 3.74-10.81-.533 0-4.29 4.772-7.758 10.663-7.758 5.896 0 10.674 3.468 10.674 7.758z"/></g><g><g><path fill="#fffbf2" d="M122.474 168.188s-6.753-.771-12.74-3.257c-7.763-3.223-33.238-15.918-34.446-43.974-.2-4.557.817-13.558 3.54-23.38 2.322-8.405 6.737-20.396 14.563-29.783a5.946 5.946 0 0 1 8.37-.76c2.52 2.1 2.86 5.85.76 8.37-11.56 13.864-15.668 37.835-15.362 45.036.585 13.427 9.063 22.28 16.077 27.342 7.95 5.748 18.88 8.523 18.88 8.523z"/></g></g><g><path fill="#e89700" d="M111.612 19.178c-3.303.817-5.777 3.83-7.235 7.179-3.53-.347-1.107-18.415-2.906-15.623-12.643 19.646-11.883 30.848-12.4 36.171-.703 7.276 1.34 12.842 1.226 19.885-.175 10.794 11.39 18.352 15.799 16.241 5.8-2.775 9.318-9.692 9.534-16.179.29-8.693-4.126-14.766-7.797-22.126-4.228-8.49-4.035-18.437 4.318-24.385.602-.43.182-1.339-.539-1.163z"/></g><g><g><path fill="#ffcd9c" d="M107.611 41.94c-1.64.789-3.966-.647-5.186-3.2-1.232-2.56-.891-5.267.743-6.056 1.646-.783 3.972.647 5.193 3.206 1.225 2.554.885 5.267-.75 6.05z"/></g><g><path fill="#f3ad7a" d="M106.596 39.068c-.619.426-1.663-.011-2.327-.981-.67-.97-.704-2.1-.085-2.531.624-.426 1.668.017 2.332.981.67.97.704 2.106.08 2.531z"/></g></g><g><path fill="#141b2f" d="M130.588 80.49v-2.734h10.855v2.733z"/></g></g></g><g><g><g><g><path fill="#efe7d8" d="M348.385 152.496l-38.213.12H288.97l-.23-1.75-.125-1.032-.657-5.174h22.215z"/></g><g><path fill="#fff9ed" d="M370.179 144.66l-.288 2.825-.187 1.156-.619 3.788-20.7.067-38.213.12v-7.956z"/></g></g><g><path fill="#dcd4c4" d="M369.89 147.485l-.186 1.154-22.77-.577z"/></g><g><path fill="#dcd4c4" d="M308.872 150.35l-20.132.514-.124-1.03z"/></g><g><path fill="#dcd4c4" d="M327.542 148.474l-17.371.433v-.866z"/></g><g><path fill="#dcd4c4" d="M348.978 151.416h-23.29l-13.436-.576 12.919-.493z"/></g></g><g><g><g><path fill="#efe7d8" d="M353.413 144.54l-38.213.12h-21.203l-.23-1.75-.125-1.03-.657-5.175H315.2z"/></g><g><path fill="#fff9ed" d="M375.207 136.705l-.288 2.825-.187 1.156-.618 3.788-20.701.067-38.213.12v-7.956z"/></g></g><g><path fill="#dcd4c4" d="M374.917 139.53l-.185 1.154-22.77-.577z"/></g><g><path fill="#dcd4c4" d="M313.9 142.394l-20.133.516-.123-1.03z"/></g><g><path fill="#dcd4c4" d="M332.57 140.519l-17.372.433v-.866z"/></g><g><path fill="#dcd4c4" d="M354.005 143.461h-23.29l-13.436-.576 12.92-.493z"/></g></g><g><g><g><path fill="#efe7d8" d="M341.646 136.586l-38.212.12H282.23l-.23-1.75-.125-1.031-.657-5.175h22.216z"/></g><g><path fill="#fff9ed" d="M363.44 128.75l-.288 2.825-.188 1.156-.618 3.788-20.7.067-38.213.12v-7.956z"/></g></g><g><path fill="#dcd4c4" d="M363.15 131.575l-.185 1.154-22.771-.577z"/></g><g><path fill="#dcd4c4" d="M302.133 134.44l-20.133.515-.123-1.03z"/></g><g><path fill="#dcd4c4" d="M320.803 132.564l-17.372.433v-.866z"/></g><g><path fill="#dcd4c4" d="M342.238 135.506h-23.29l-13.436-.576 12.92-.492z"/></g></g></g><g><g><g><g transform="rotate(-74.747 343.5 150.5)"><path fill="#ffcd9c" d="M340.338 156.02v-10.77h6.227v10.77z"/></g><g><g><path fill="#ffcd9c" d="M333.403 150.347c.868.073 1.509.834 1.44 1.696a1.581 1.581 0 0 1-1.701 1.447l-9.438-.766a1.59 1.59 0 0 1-1.452-1.713 1.59 1.59 0 0 1 1.708-1.442z"/></g><g><path fill="#ffcd9c" d="M334.964 143.06a1.573 1.573 0 0 1 1.14 1.912 1.573 1.573 0 0 1-1.918 1.147l-9.182-2.327a1.577 1.577 0 0 1-1.146-1.918 1.6 1.6 0 0 1 1.918-1.146z"/></g><g><path fill="#ffcd9c" d="M334.877 137.885a1.715 1.715 0 0 0-.856 2.28l3.178 6.958c.88.114 1.839.125 2.593-.164.483-.182.789-1.606.789-1.606l-3.422-6.623a1.716 1.716 0 0 0-2.282-.845z"/></g><g><path fill="#ffcd9c" d="M332.784 146.397c.862.147 1.441.97 1.288 1.827a1.595 1.595 0 0 1-1.827 1.288l-9.34-1.651a1.59 1.59 0 0 1-1.29-1.833c.154-.851.971-1.43 1.834-1.283z"/></g><g transform="rotate(-79.866 335.5 148.5)"><path fill="#ffcd9c" d="M330.32 153.78a.552.552 0 0 1-.553-.552v-9.624c0-.305.247-.551.551-.551h9.62c.305 0 .552.246.552.55v9.627a.55.55 0 0 1-.55.55z"/></g></g></g><g><g><path fill="#253759" d="M342.164 157.105l.256.085c10.164 3.28 22.07 4.33 32.664 2.889 13.11-1.782 26.417-7.684 32.63-16.037 12.883-17.337 17.576-50.966 8.161-72.298a6.753 6.753 0 0 0-8.91-3.45 6.754 6.754 0 0 0-3.45 8.904c7.094 16.06 3.598 46.29-6.61 60.028-8.65 11.628-35.321 12.786-51.738 7.491z"/></g></g></g></g></g></g></svg>