<svg xmlns="http://www.w3.org/2000/svg" width="420" height="377" viewBox="0 0 420 377"><g><g><g><g><g><g><g><path fill="gray" d="M346.28 371.515a5.32 5.32 0 0 1 5.33-5.33 5.32 5.32 0 0 1 5.324 5.33c0 2.924-2.39 5.308-5.324 5.308-2.94 0-5.33-2.384-5.33-5.308z"/></g><g><path fill="gray" d="M351.623 376.824v-10.638h1.291v10.638z"/></g></g><g><path fill="#b3b3b3" d="M347.599 371.515a5.31 5.31 0 0 1 5.314-5.33c2.95 0 5.329 2.369 5.329 5.33 0 2.924-2.38 5.308-5.33 5.308a5.316 5.316 0 0 1-5.313-5.308z"/></g></g><g><g><g><path fill="gray" d="M305.366 371.515c0-2.961 2.383-5.33 5.318-5.33a5.32 5.32 0 0 1 5.33 5.33c0 2.924-2.39 5.308-5.33 5.308-2.935 0-5.318-2.384-5.318-5.308z"/></g><g><path fill="gray" d="M310.7 376.824v-10.638h1.297v10.638z"/></g></g><g><path fill="#b3b3b3" d="M306.668 371.515c0-2.961 2.395-5.33 5.33-5.33a5.324 5.324 0 0 1 5.33 5.33c0 2.924-2.395 5.308-5.33 5.308s-5.33-2.384-5.33-5.308z"/></g></g><g><g><g><path fill="#5c5c5c" d="M278.271 371.515a5.32 5.32 0 0 1 5.33-5.33 5.316 5.316 0 0 1 5.324 5.33c0 2.924-2.385 5.308-5.325 5.308-2.94 0-5.329-2.384-5.329-5.308z"/></g><g><path fill="#5c5c5c" d="M283.619 376.824v-10.638h1.293v10.638z"/></g></g><g><path fill="gray" d="M290.423 371.515c0-2.961-2.394-5.33-5.33-5.33a5.312 5.312 0 0 0-5.319 5.33 5.317 5.317 0 0 0 5.32 5.308c2.935 0 5.329-2.384 5.329-5.308z"/></g></g><g><path fill="#1c2842" d="M309.936 365.894v-83.835h8.964v83.835z"/></g><g><path fill="#141b2f" d="M317.715 365.894v-83.835h8.962v83.835z"/></g><g><path fill="#1c2842" d="M276.756 371.517v-5.623h56.188v5.623z"/></g><g><path fill="#141b2f" d="M303.678 371.517v-5.623h56.19v5.623z"/></g></g><g><g><g><g><g><g><g><path fill="gray" d="M113.85 365.346a4.807 4.807 0 0 1 4.814-4.814 4.806 4.806 0 0 1 4.81 4.814c0 2.642-2.158 4.794-4.81 4.794-2.657 0-4.814-2.152-4.814-4.794z"/></g><g><path fill="gray" d="M118.674 370.14v-9.607h1.166v9.608z"/></g></g><g><path fill="#b3b3b3" d="M115.04 365.346a4.797 4.797 0 0 1 4.798-4.814 4.804 4.804 0 1 1 0 9.608 4.8 4.8 0 0 1-4.799-4.794z"/></g></g><g><g><g><path fill="gray" d="M76.894 365.346a4.802 4.802 0 0 1 4.805-4.814 4.807 4.807 0 0 1 4.814 4.814c0 2.642-2.157 4.794-4.814 4.794a4.804 4.804 0 0 1-4.805-4.794z"/></g><g><path fill="gray" d="M81.712 370.14v-9.607h1.171v9.608z"/></g></g><g><path fill="#b3b3b3" d="M78.074 365.346a4.806 4.806 0 0 1 4.809-4.814 4.81 4.81 0 0 1 4.814 4.814c0 2.642-2.162 4.794-4.814 4.794s-4.81-2.152-4.81-4.794z"/></g></g><g><g><g><path fill="#5c5c5c" d="M52.42 365.346a4.807 4.807 0 0 1 4.815-4.814 4.803 4.803 0 0 1 4.81 4.814c0 2.642-2.153 4.794-4.81 4.794-2.657 0-4.814-2.152-4.814-4.794z"/></g><g><path fill="#5c5c5c" d="M57.252 370.14v-9.607h1.167v9.608z"/></g></g><g><path fill="gray" d="M63.393 365.346a4.806 4.806 0 0 0-4.809-4.814 4.798 4.798 0 0 0-4.804 4.814 4.8 4.8 0 0 0 4.804 4.794c2.652 0 4.81-2.152 4.81-4.794z"/></g></g><g><path fill="#141b2f" d="M81.022 360.268v-75.72h8.096v75.72z"/></g><g><path fill="#1c2842" d="M88.048 360.268v-75.72h8.095v75.72z"/></g><g><path fill="#141b2f" d="M51.053 365.347v-5.079h50.75v5.08z"/></g><g><path fill="#1c2842" d="M75.37 365.347v-5.079h50.751v5.08z"/></g><g><g><path fill="#ff4140" d="M115.446 257.833c-.623 10.864-8.192 28.109-20.983 28.552H62.271c-10.85-.037-20.823-9.45-21.04-20.453-2.337-37.871-8.737-75.213-13.891-112.76-1.71-13.805 13.835-22.054 25.426-22.744a685.28 685.28 0 0 1 44.004-1.024c11.987.149 27.373 8.12 26.286 22.14-3.064 35.4-6.2 70.77-7.61 106.289z"/></g><g><path fill="#bc3122" d="M140.27 259.79c-2.673-.01-15.108-.01-17.765-.016.088-.644.155-1.293.185-1.931 1.854-35.405 5.927-70.579 9.686-105.82 1.349-13.959-14.067-22.043-25.93-22.393a685.354 685.354 0 0 0-44.01.283c-11.75.5-27.208 8.666-25.684 22.564 4.243 35.091 9.073 70.08 11.297 105.381.052.845.165 1.695.31 2.544l-.171-.041c.875 7.78 3.239 16.652 9.18 21.868 2.54 2.225 6.221 4.156 8.693 4.156h73.467c3.404 0 6.164-2.76 6.22-6.159.098-5.715.201-8.573.505-14.278.175-3.394-2.487-6.153-5.984-6.159z"/></g></g></g></g><g><g><g><path fill="#141b2f" d="M109.102 258.57v-8.487c0-11.426-9.35-20.776-20.776-20.776h-.36c-11.432 0-20.783 9.35-20.783 20.776l-.108 6.133v2.353z"/></g><g><g><g><g transform="rotate(-1.33 162 353.5)"><path fill="#cf9b72" d="M158.24 356.515v-6.218h7.396v6.218z"/></g><g transform="rotate(-1.413 162 359)"><path fill="#edd6b6" d="M157.711 363.304V354.3h8.693v9.003z"/></g><g><g><g><g><path fill="#141b2f" d="M166.978 355.429a3.19 3.19 0 0 0-3.203 3.203v2.93a3.204 3.204 0 0 0 3.208 3.202 3.196 3.196 0 0 0 3.203-3.202v-2.956a3.182 3.182 0 0 0-3.208-3.177z"/></g><g><path fill="#141b2f" d="M156.381 366.165c0 .896.721 1.622 1.612 1.622 3.028-.005 9.516-.005 9.516-.005l14.927-.01v-2.148l-26.06.041z"/></g><g><path fill="#141b2f" d="M182.43 365.68l-26.049.027-.005-2.487v-3.296a1.62 1.62 0 0 1 1.323-1.586v.18a3.048 3.048 0 0 0 3.038 3.044 3.04 3.04 0 0 0 3.038-3.033v-.222l6.411.417v.155c0 .391.072.752.31 1.076.06.077.133.154.22.227.304.257.721.448 1.344.56.103.016.216.037.335.057.283.026.608.036.958.047l3.146-.01c3.275 0 5.921 1.59 5.932 4.845z"/></g></g></g></g></g><g><path fill="#141b2f" d="M168.93 318.572c-.968-12.719-1.972-25.875-3.07-38.938l-.02-.268c-.566-5.077-2.785-9.16-4.65-12.136l-.283-.428c-3.393-4.85-8.388-8.284-14.438-9.922l-2.126-.34c-10.767-.489-30.602-.309-42.32-.278v19.366c7.877 0 15.42-.01 18.783-.041 12.456-.129 8.949-.242 21.42.268 1.591.607 2.328 1.441 2.662 1.9 1.03 1.663 1.545 2.796 1.664 3.676 1.076 12.935 2.07 25.988 3.038 38.624.484 6.323.973 26.327 1.483 32.825l19.453-.005c-.546-6.982-1.076-27.491-1.596-34.303z"/></g><g opacity=".2"><path fill="#141b2f" d="M148.905 276.091c-3.687-7.373-16.21-9.448-17.147-19.844-10.066-.098-21.77-.005-29.736.015v19.366c7.878 0 15.422-.01 18.784-.041 12.456-.129 8.949-.242 21.42.268 1.591.607 2.328 1.441 2.662 1.9 1.03 1.663 1.545 2.796 1.664 3.676 1.076 12.935 2.07 25.988 3.038 38.624.484 6.323.973 26.327 1.483 32.825l19.453-.005c-.155-1.977-.309-5.051-.458-8.578-3.677-1.22-8.326-1.468-11.591-3.105-13.403-21.06 0-44.04-9.572-65.1z"/></g></g><g><g><g transform="rotate(-1.33 132.5 353.5)"><path fill="#edb485" d="M129.037 356.515v-6.218h7.396v6.218z"/></g><g transform="rotate(-1.413 133 359)"><path fill="#fff" d="M128.51 363.304V354.3h8.693v9.003z"/></g><g><g><g><g><path fill="#141b2f" d="M137.778 355.429a3.19 3.19 0 0 0-3.203 3.203v2.93a3.204 3.204 0 0 0 3.208 3.202 3.2 3.2 0 0 0 3.202-3.202v-2.956a3.182 3.182 0 0 0-3.207-3.177z"/></g><g><path fill="#141b2f" d="M127.18 366.165c0 .896.722 1.622 1.612 1.622 3.028-.005 9.516-.005 9.516-.005l14.922-.01v-2.148l-26.06.041z"/></g><g><path fill="#141b2f" d="M153.225 365.68l-26.044.027-.01-2.487v-3.296c0-.793.581-1.447 1.328-1.586v.18a3.048 3.048 0 0 0 3.038 3.044 3.04 3.04 0 0 0 3.038-3.033v-.222l6.41.417v.155c0 .391.072.752.31 1.076.056.077.133.154.22.227.305.257.722.448 1.345.56.103.016.21.037.33.057.288.026.607.036.962.047l3.146-.01c3.27 0 5.922 1.59 5.927 4.845z"/></g></g></g></g></g><g><path fill="#1c2842" d="M140.347 318.572c-.968-12.719-1.972-25.875-3.064-38.938l-.03-.268c-.567-5.077-2.781-9.165-4.645-12.131l-.283-.433c-3.255-4.654-7.827-8.599-13.692-9.7-3.49-.66-9.933-.85-14.237-.85h-.48c-1.745-.016-3.547-.026-5.38-.036v.051c-.983 0-1.874-.005-2.646-.015H84.88v-.036H67.076v9.263c0 5.592 4.542 10.128 10.144 10.139 0 0 17.47.02 30.745.01 1.452.057 3.265.134 5.68.227 1.59.607 2.327 1.441 2.662 1.9 1.025 1.663 1.54 2.796 1.658 3.676 1.076 12.935 2.075 25.988 3.043 38.624.479 6.318.978 26.327 1.483 32.82l19.448-.005c-.546-6.977-1.076-27.486-1.591-34.298z"/></g><g opacity=".3"><path fill="#253759" d="M118.268 278.007c-11.298-13.182-46.636 1.38-47.815-21.791h-3.378v9.263c0 5.592 4.542 10.128 10.144 10.139 0 0 17.47.02 30.745.01 1.452.057 3.265.134 5.68.227 1.59.607 2.327 1.441 2.662 1.9 1.025 1.663 1.54 2.796 1.658 3.676 1.076 12.935 2.075 25.988 3.043 38.624.479 6.318.978 26.327 1.483 32.82l19.448-.005c-.118-1.509-.237-3.677-.35-6.18-32.002-5.143-6.364-51.727-23.32-68.683z"/></g></g></g></g><g><g><g><g><g transform="rotate(-85.965 164 183.5)"><path fill="#ffcd9c" d="M158.957 186.809v-5.68h9.83v5.68z"/></g><g><g><path fill="#ffcd9c" d="M166.649 175.23a1.453 1.453 0 0 0 1.035 1.762 1.453 1.453 0 0 0 1.755-1.035l2.173-8.362a1.434 1.434 0 0 0-1.034-1.761 1.434 1.434 0 0 0-1.751 1.03z"/></g><g><path fill="#ffcd9c" d="M159.898 174.386a1.443 1.443 0 0 0 1.313 1.555 1.443 1.443 0 0 0 1.566-1.313l.756-8.599a1.448 1.448 0 0 0-1.302-1.57 1.455 1.455 0 0 0-1.566 1.318z"/></g><g><path fill="#ffcd9c" d="M163.436 173.516a1.436 1.436 0 0 0 1.194 1.648 1.434 1.434 0 0 0 1.648-1.185l1.395-8.537a1.433 1.433 0 0 0-1.2-1.653 1.441 1.441 0 0 0-1.652 1.19z"/></g><g transform="rotate(-80.706 164 176)"><path fill="#ffcd9c" d="M160.132 181.024a.554.554 0 0 1-.554-.554v-8.67c0-.306.248-.553.553-.553h8.677c.305 0 .552.247.552.552v8.672a.553.553 0 0 1-.553.553z"/></g></g></g><g><g><path fill="#141b2f" d="M157.761 187.347c-1.55 9.525-7.137 23.068-13.552 27.038-.253.154-.51.298-.768.422-1.76.885-4.315 1.498-8.382-1.627-8.99-6.905-18.856-35.509-17.93-47.681a5.9 5.9 0 0 0-11.765-.901c-1.102 14.469 8.959 47.536 22.506 57.938 6.746 5.18 14.15 6.184 20.854 2.826a22.67 22.67 0 0 0 1.648-.921c11.37-7.04 17.77-25.421 19.042-36.873-3.862-.309-7.735-.484-11.653-.221z"/></g><g opacity=".3"><path fill="#141b2f" d="M169.414 187.568c-3.862-.309-7.734-.484-11.653-.221a50.349 50.349 0 0 1-.916 4.34 199.21 199.21 0 0 0 11.58 1.766c.458-2.09.788-4.073.989-5.885z"/></g><g><path fill="#fff9ea" d="M158.189 182.47c.015 1.422-.134 3.08-.428 4.877 3.919-.263 7.79-.088 11.653.221.17-1.545.252-2.966.237-4.212z"/></g></g></g></g><g><g><g><path fill="#e1e7e8" d="M115.405 162.296c-.155-.973-.7-1.71-1.478-2.25-.505-.391-1.123-.664-1.823-.896l-1.787-.309-4.654-.89-4.037-.778-1.319-.273-8.732-1.668-.078.04-6.055 1.046-1.05.196-13.815 2.482-1.535.267v2.472h-3.517a3.94 3.94 0 0 0-.15.561 4.044 4.044 0 0 0-.076.736v92.916c0 1.437.772 2.678 1.9 3.3.309.155.659.268 1.009.35.196.037.386.037.582.037h43.16c.231 0 .463 0 .659-.077a3.42 3.42 0 0 0 2.137-1.36v-.036c.231-.273.386-.623.504-.973.155-.386.19-.814.19-1.24v-92.917c0-.272 0-.504-.035-.736z"/></g></g><g><g><g><g><path fill="#f3ad7a" d="M100.308 161.065c0 4.125-3.347 7.462-7.467 7.462a7.453 7.453 0 0 1-7.46-7.461v-24.53a7.456 7.456 0 0 1 7.46-7.462c4.12 0 7.467 3.342 7.467 7.461z"/></g><g opacity=".3"><path fill="#f3ad7a" d="M92.646 155.16c2.044-1.226 4.891-1.375 7.662-1.864v-16.76c0-4.12-3.347-7.462-7.467-7.462a7.456 7.456 0 0 0-7.46 7.461v24.53a7.451 7.451 0 0 0 3.645 6.411c-1.035-4.938-1.076-9.495 3.62-12.317z"/></g></g><g><g><g><g><g><path fill="#6e777d" d="M109.797 122.03c-.685-.412-2.245-1.086-3.64-1.663-1.385-.577-3.002.54-3.414 2.41-.685 4.773 3.275 5.061 4.634 7.06.757 1.111-.38 4.443.968 5.112.49.242.639.201 1.252.062 1.323-.299 2.425-1.395 2.425-2.75 0-4.66.185-2.775.185-7.435 0-1.36-.968-1.93-2.41-2.796z"/></g></g><g><path fill="#ffcd9c" d="M111.043 136.793c0 8.5-6.884 15.39-15.38 15.39-8.512 0-15.401-6.89-15.401-15.39v-16.158c0-8.501 6.89-15.391 15.4-15.391 8.497 0 15.381 6.89 15.381 15.39z"/></g><g opacity=".3"><path fill="#fec08a" d="M87.316 145.283c-6.256-13.078-3.038-28.778 5.747-39.812-7.27 1.23-12.801 7.548-12.801 15.164v16.158c0 8.5 6.89 15.39 15.4 15.39 2.153 0 4.197-.443 6.056-1.24-5.854.967-12.136-.675-14.402-5.66z"/></g><g><path fill="#fec08a" d="M82.11 135.485c-1.441 1.035-3.918.051-5.524-2.189-1.617-2.245-1.75-4.902-.314-5.937 1.441-1.03 3.918-.051 5.53 2.194 1.611 2.245 1.74 4.902.309 5.932z"/></g><g><path fill="#f3ad7a" d="M80.535 133.23c-.55.473-1.601.164-2.338-.69-.741-.855-.895-1.937-.35-2.415.551-.474 1.602-.165 2.338.69.741.86.896 1.94.35 2.414z"/></g><g><path fill="#f3ad7a" d="M80.535 133.23c-.55.473-1.601.164-2.338-.69-.741-.855-.895-1.937-.35-2.415.551-.474 1.602-.165 2.338.69.741.86.896 1.94.35 2.414z"/></g><g><g><path fill="#6e777d" d="M84.834 122.03c-.69-.412-2.245-1.086-3.64-1.663-1.385-.577-3.002.54-3.414 2.41-.685 4.773 3.275 5.061 4.634 7.06.757 1.111-.38 4.443.968 5.112.49.242.639.201 1.252.062 1.323-.299 2.425-1.395 2.425-2.75 0-4.66.185-2.775.185-7.435 0-1.36-.968-1.93-2.41-2.796z"/></g></g><g><g><path fill="#3d414f" d="M84.994 131.077c-1.838-3.676-7.497-6.508-4.814-10.844-1.077.14-2.086 1.123-2.4 2.544-.685 4.773 3.275 5.061 4.634 7.06.757 1.111-.38 4.443.968 5.112.49.242.639.201 1.252.062 1.323-.299 2.425-1.395 2.425-2.75v-.195c-.824.216-1.576-.016-2.065-.989z"/></g></g></g><g><g><path fill="#2a2626" d="M104.417 142.137c0 .289-.047 1.555-.15 1.823-.546 1.58-2.626 2.755-5.113 2.755-2.482 0-4.572-1.174-5.123-2.755-.093-.268-.14-1.534-.14-1.823z"/></g><g><g><g><path fill="#2a2626" d="M95.086 129.29c0 1.319-.85 2.39-1.895 2.39s-1.895-1.071-1.895-2.39c0-1.323.85-2.389 1.895-2.389 1.046 0 1.895 1.066 1.895 2.39z"/></g><g><path fill="#fefefe" d="M93.191 128.317c0 .536-.35.973-.772.973-.427 0-.772-.437-.772-.973 0-.54.345-.978.772-.978.422 0 .772.438.772.978z"/></g></g><g><path fill="#fefefe" d="M103.948 142.137c-.016.14-.047.268-.082.32-.505.726-2.426 1.266-4.712 1.266-2.286 0-4.207-.54-4.717-1.266-.036-.052-.061-.18-.082-.32z"/></g><g><g><path fill="#2a2626" d="M108.278 129.29c0 1.319-.844 2.39-1.895 2.39-1.045 0-1.884-1.071-1.884-2.39 0-1.323.839-2.389 1.884-2.389 1.051 0 1.895 1.066 1.895 2.39z"/></g><g><path fill="#fefefe" d="M106.389 128.317c0 .536-.35.973-.773.973-.427 0-.772-.437-.772-.973 0-.54.345-.978.772-.978.422 0 .773.438.773.978z"/></g></g><g opacity=".1"><path fill="#f48fb7" d="M93.125 138.317c-.268.978-1.797 1.405-3.41.957-1.61-.447-2.697-1.6-2.43-2.58.273-.978 1.803-1.405 3.414-.957 1.612.448 2.698 1.601 2.426 2.58z"/></g><g opacity=".1"><path fill="#f48fb7" d="M103.99 138.317c.272.978 1.801 1.405 3.413.957 1.612-.447 2.698-1.6 2.43-2.58-.273-.978-1.802-1.405-3.413-.957-1.612.448-2.699 1.601-2.43 2.58z"/></g><g><g><path fill="#6e777d" d="M95.596 126.35c-1.93-.252-2.92-.252-4.856 0-.767.098-1.513-.38-1.668-1.133-.154-.751.427-1.519 1.308-1.632 2.22-.288 3.357-.288 5.577 0 .88.113 1.462.88 1.307 1.632-.154.752-.9 1.231-1.668 1.133z"/></g></g><g><g><path fill="#6e777d" d="M108.814 126.35c-1.93-.252-2.92-.252-4.856 0-.761.098-1.513-.38-1.668-1.133-.154-.751.433-1.519 1.308-1.632 2.225-.288 3.357-.288 5.576 0 .88.113 1.468.88 1.313 1.632-.159.752-.906 1.231-1.673 1.133z"/></g></g><g><g><path fill="#6e777d" d="M89.67 143.42l8.763-5.047 1.236-.036 1.23-.03 9.022 4.556c-1.123 1.046-7.713-.226-10.154-.746-2.4.643-8.913 2.276-10.098 1.303z"/></g></g><g><g><path fill="#f3ad7a" d="M99.813 139.259c-1.251 0-2.58-1.025-2.559-2.276.036-2.168.535-3.254.572-5.422.025-1.251.736-2.27 1.987-2.27 1.251 0 1.967 1.019 1.988 2.27.036 2.168.535 3.254.571 5.422.02 1.251-1.308 2.276-2.559 2.276z"/></g></g><g opacity=".3"><path fill="#ffe9d4" d="M101.718 136.406c0 .711-.355 1.288-.793 1.288-.442 0-.798-.577-.798-1.288 0-.705.356-1.282.798-1.282.438 0 .793.577.793 1.282z"/></g></g></g></g><g><g><g><g><path fill="#362825" d="M104.293 124.677l8.769.237a.83.83 0 0 1 .803.73l.911 7.03a.832.832 0 0 1-.21.669c-.166.185-.402.314-.65.273l-9.48-.366a.837.837 0 0 1-.802-.808l-.201-6.905a.83.83 0 0 1 .247-.613.826.826 0 0 1 .592-.247zm9.654 9.938c.515 0 1.004-.217 1.355-.598.36-.401.53-.937.463-1.472l-.911-7.029a1.82 1.82 0 0 0-1.767-1.596l-8.769-.237c-.566.005-.983.175-1.343.535-.36.36-.551.84-.536 1.35l.196 6.905c.03.957.803 1.74 1.766 1.776l9.474.366h.072z"/></g></g><g><g><path fill="#362825" d="M85.406 124.728l10.278-.01c.2 0 .386.077.525.221a.714.714 0 0 1 .206.53l-.196 7.343a.74.74 0 0 1-.741.716h-.005l-10.53-.082a.71.71 0 0 1-.526-.232.717.717 0 0 1-.195-.546l.443-7.25a.734.734 0 0 1 .736-.69zm10.077 9.799c.932 0 1.704-.752 1.735-1.689l.196-7.343c.01-.468-.16-.91-.49-1.25a1.738 1.738 0 0 0-1.235-.526l-10.278.01h-.015a1.73 1.73 0 0 0-1.725 1.627l-.448 7.25c-.026.48.139.932.463 1.288.325.345.767.545 1.246.55l10.525.083z"/></g></g><g><g><path fill="#362825" d="M102.638 131.073l-5.867-.125.02-.997 5.867.125z"/></g></g></g><g opacity=".3"><path fill="#fff" d="M104.272 124.677a.825.825 0 0 0-.592.247.83.83 0 0 0-.247.613l.2 6.905a.837.837 0 0 0 .804.808l9.48.366c.247.04.483-.088.648-.273a.832.832 0 0 0 .211-.67l-.911-7.028a.83.83 0 0 0-.803-.731l-8.77-.237z"/></g><g opacity=".3"><path fill="#fff" d="M85.4 124.728a.734.734 0 0 0-.736.69l-.442 7.25c-.016.201.056.397.195.546a.71.71 0 0 0 .525.232l10.53.082h.006a.74.74 0 0 0 .74-.716l.197-7.342a.714.714 0 0 0-.206-.53.72.72 0 0 0-.526-.222l-10.277.01z"/></g></g></g></g></g><g><path fill="#e1e7e8" d="M85.469 169.932v-7.178h13.964v7.178z"/></g><g><path fill="#ff4040" d="M90.484 165.377l-2.118 30.097 4.085 28.834 4.97-28.834-2.295-30.097z"/></g><g><path fill="#d62626" d="M97.527 165.375a2.63 2.63 0 0 1-2.626 2.637h-4.016a2.63 2.63 0 0 1-2.626-2.637 2.626 2.626 0 0 1 2.626-2.62H94.9a2.626 2.626 0 0 1 2.626 2.62z"/></g><g><path fill="#1c2842" d="M115.44 163.032v92.916c0 .427-.035.855-.19 1.241-.118.35-.273.7-.504.973v.036a3.42 3.42 0 0 1-2.137 1.36c-.196.077-.428.077-.66.077H68.79c-.195 0-.385 0-.581-.036a4.67 4.67 0 0 1-1.01-.35c-1.127-.623-1.9-1.864-1.9-3.3v-92.917c0-.272.037-.504.078-.736a3.689 3.689 0 0 1 1.24-2.173c.583-.504 2.174-.818 2.174-.818l1.787-.31 13.814-2.481 8.378 50.234 8.857-49.575 4.037.777 4.654.891 1.787.309c.7.232 1.318.505 1.823.896.777.54 1.323 1.277 1.478 2.25.036.232.036.464.036.736z"/></g><g><path fill="#1c2842" d="M115.405 162.296c-.155-.973-.7-1.71-1.478-2.25-.505-.391-1.123-.664-1.823-.896l-1.787-.309-4.418-.85c1.144.958 1.972 2.132 2.22 3.116 5.015 28.85 1.25 57.067 0 85.29-.175 4.587-1 8.98-2.245 13.238h6.076c.231 0 .463 0 .659-.077a3.42 3.42 0 0 0 2.137-1.36v-.036c.231-.273.386-.623.504-.973.155-.386.19-.813.19-1.24v-92.917c0-.272 0-.504-.035-.736z"/></g><g><path fill="#1c2842" d="M72.198 178.49c-3.285 6.014-3.228 12.986-6.9 18.83v58.628c0 1.437.778 2.678 1.9 3.3.31.155.66.268 1.01.35.196.037.386.037.582.037h1.565c-7.667-25.38.819-55.132 1.843-81.145z"/></g><g><path fill="#141b2f" d="M85.447 156.328c-.535.093-5.334.953-5.334.953l-4.887 19.422 10.221 6.905-1.823 12.307 9.145 10.833z"/></g><g><path fill="#141b2f" d="M100.307 156.9c.515.087 4.202.808 4.202.808l4.145 18.995-9.278 6.905 2.657 12.698-9.264 10.442z"/></g><g><path fill="#141b2f" d="M95.045 216.928a2.824 2.824 0 0 0-5.648 0 2.824 2.824 0 1 0 5.648 0z"/></g><g><path fill="#141b2f" d="M95.045 245.403a2.827 2.827 0 0 0-2.827-2.822 2.826 2.826 0 0 0-2.821 2.822 2.824 2.824 0 1 0 5.648 0z"/></g><g><path fill="#141b2f" d="M95.045 231.165a2.827 2.827 0 0 0-2.827-2.821 2.826 2.826 0 0 0-2.821 2.821 2.824 2.824 0 1 0 5.648 0z"/></g></g><g><g><g><path fill="#fff9ea" d="M92.872 162.754s-1.781 2.091-3.671 3.672c-2.127 1.776-4.382 3.573-4.382 3.573l-3.208-12.98 3.836-.69c1.931 6.199 7.425 6.425 7.425 6.425z"/></g><g><path fill="#fff9ea" d="M92.872 162.754l8.043 7.801 3.182-12.908-3.81-.757c-1.725 6.003-7.415 5.864-7.415 5.864z"/></g></g></g><g><path fill="#ffcd9c" d="M155.475 172.744a1.57 1.57 0 0 1 2.22-.042l5.025 4.825c-.16.793-.428 1.627-.912 2.189-.304.355-1.627.2-1.627.2l-4.66-4.948a1.562 1.562 0 0 1-.046-2.224z"/></g></g><g><g transform="rotate(-88.35 163.5 187.5)"><path fill="#141b2f" d="M160.099 195.79a.365.365 0 0 1-.365-.364v-14.95c0-.202.163-.366.365-.366h6.886c.201 0 .365.164.365.365v14.95a.365.365 0 0 1-.365.366z"/></g><g><path fill="#ffa631" d="M160.69 187.32a1.924 1.924 0 0 0-2.362-1.353 1.92 1.92 0 0 0-1.355 2.358 1.92 1.92 0 0 0 2.359 1.36 1.928 1.928 0 0 0 1.359-2.364z"/></g></g></g><g><g><g><path fill="#1a222b" d="M102.258 241.588a.801.801 0 0 1-.801-.802v-55.02c0-.443.359-.802.802-.802h79.6c.443 0 .802.359.802.802v55.021a.8.8 0 0 1-.8.8z"/></g><g><path fill="#ede6d4" d="M101.862 184.963h72.958a4.137 4.137 0 0 1 4.125 4.124v48.37c0 2.271-1.854 4.13-4.125 4.13h-72.958c-2.265 0-4.124-1.859-4.124-4.13v-48.37a4.14 4.14 0 0 1 4.124-4.124z"/></g><g><path fill="#fff9ea" d="M105.585 184.963H178.533a4.138 4.138 0 0 1 4.13 4.124v48.37c0 2.271-1.854 4.13-4.13 4.13H105.585a4.14 4.14 0 0 1-4.13-4.13v-48.37a4.138 4.138 0 0 1 4.13-4.124z"/></g><g opacity=".4"><path fill="#ede6d4" d="M178.533 184.963h-16.148c-5.458 16.281-9.757 30.596-23.629 39.848-11.704 7.317-24.777 9.15-37.3 10.639v2.008a4.14 4.14 0 0 0 4.13 4.13h72.947a4.139 4.139 0 0 0 4.13-4.13v-48.371a4.138 4.138 0 0 0-4.13-4.124z"/></g><g><path fill="#141b2f" d="M119.72 193.819h-8.285a2.634 2.634 0 0 1-2.626-2.626 2.635 2.635 0 0 1 2.626-2.631h8.285a2.64 2.64 0 0 1 2.63 2.63 2.638 2.638 0 0 1-2.63 2.627z"/></g><g><g><g><g><path fill="#141b2f" d="M153.21 189.638v8.49a.868.868 0 0 1-.258.619.807.807 0 0 1-.34.21.874.874 0 0 1-.592-.828v-8.491a.88.88 0 0 1 .592-.83.884.884 0 0 1 .597.83z"/></g></g><g><g><path fill="#18181b" d="M151.459 189.638c0-.479.39-.875.87-.875.103 0 .19.02.283.046a.88.88 0 0 0-.592.829v8.49c0 .387.247.711.592.83a.873.873 0 0 1-1.153-.829z"/></g></g></g><g><g><g><path fill="#141b2f" d="M156.917 189.638v8.49a.89.89 0 0 1-.258.619.858.858 0 0 1-.345.21.874.874 0 0 1-.592-.828v-8.491a.88.88 0 0 1 .592-.83c.35.12.603.449.603.83z"/></g></g><g><g><path fill="#18181b" d="M155.161 189.638c0-.479.397-.875.875-.875.098 0 .19.02.278.046a.88.88 0 0 0-.592.829v8.49c0 .387.247.711.592.83a.878.878 0 0 1-1.153-.829z"/></g></g></g><g><g><g><path fill="#141b2f" d="M160.62 189.638v8.49a.868.868 0 0 1-.258.619.807.807 0 0 1-.34.21.875.875 0 0 1-.593-.828v-8.491a.88.88 0 0 1 .593-.83c.35.12.597.449.597.83z"/></g></g><g><g><path fill="#18181b" d="M158.868 189.638c0-.479.392-.875.876-.875.098 0 .19.02.278.046a.88.88 0 0 0-.593.829v8.49c0 .387.248.711.593.83a.875.875 0 0 1-1.153-.829z"/></g></g></g><g><g><g><path fill="#141b2f" d="M164.327 189.638v8.49a.875.875 0 0 1-.598.829.874.874 0 0 1-.592-.828v-8.491a.88.88 0 0 1 .592-.83.884.884 0 0 1 .598.83z"/></g></g><g><g><path fill="#18181b" d="M162.576 189.638c0-.479.391-.875.87-.875.098 0 .19.02.283.046a.88.88 0 0 0-.592.829v8.49c0 .387.247.711.592.83a.874.874 0 0 1-1.153-.829z"/></g></g></g><g><g><g><path fill="#141b2f" d="M168.029 189.638v8.49a.86.86 0 0 1-.597.829.874.874 0 0 1-.593-.828v-8.491a.88.88 0 0 1 .592-.83c.35.12.598.449.598.83z"/></g></g><g><g><path fill="#18181b" d="M166.278 189.638c0-.479.396-.875.875-.875.098 0 .19.02.278.046a.88.88 0 0 0-.592.829v8.49c0 .387.247.711.592.83a.878.878 0 0 1-1.153-.829z"/></g></g></g><g><g><g><path fill="#141b2f" d="M171.736 189.638v8.49a.867.867 0 0 1-.258.619.808.808 0 0 1-.34.21.874.874 0 0 1-.592-.828v-8.491a.88.88 0 0 1 .593-.83c.35.12.597.449.597.83z"/></g></g><g><g><path fill="#18181b" d="M169.985 189.638c0-.479.392-.875.876-.875.097 0 .19.02.278.046a.88.88 0 0 0-.593.829v8.49c0 .387.248.711.593.83a.875.875 0 0 1-1.154-.829z"/></g></g></g><g><g><g><path fill="#141b2f" d="M175.443 189.638v8.49a.876.876 0 0 1-.597.829.874.874 0 0 1-.592-.828v-8.491a.88.88 0 0 1 .592-.83.884.884 0 0 1 .597.83z"/></g></g><g><g><path fill="#18181b" d="M173.688 189.638c0-.479.396-.875.875-.875.098 0 .19.02.283.046a.88.88 0 0 0-.592.829v8.49c0 .387.247.711.592.83a.878.878 0 0 1-1.158-.829z"/></g></g></g><g><g><g><path fill="#141b2f" d="M179.146 189.638v8.49a.886.886 0 0 1-.253.619.857.857 0 0 1-.345.21.874.874 0 0 1-.592-.828v-8.491a.88.88 0 0 1 .592-.83c.35.12.598.449.598.83z"/></g></g><g><g><path fill="#18181b" d="M177.395 189.638c0-.479.396-.875.875-.875.098 0 .19.02.278.046a.88.88 0 0 0-.592.829v8.49c0 .387.247.711.592.83a.878.878 0 0 1-1.153-.829z"/></g></g></g></g></g><g><g><path fill="#ede6d4" d="M136.532 254.676h-7.415v4.28h18.305l1.07-40.859h-21.831v4.279h4.237a3.773 3.773 0 0 1 3.682 2.95l5.638 24.747c.53 2.358-1.266 4.603-3.686 4.603z"/></g><g><path fill="#fff9ea" d="M157.545 258.96h-16.9c3.75 0 6.54-3.486 5.71-7.147l-6.62-29.144a5.856 5.856 0 0 0-5.716-4.572h16.9c2.743 0 5.117 1.9 5.72 4.572l6.621 29.144c.824 3.661-1.961 7.147-5.715 7.147z"/></g></g></g><g><g><path fill="#512f2e" d="M68.083 376.626l-.374-111.276h-9.77l4.714 111.276z"/></g><g><path fill="#512f2e" d="M202.257 376.626l2.161-111.276h-9.77l3.229 111.276z"/></g><g><path fill="#402524" d="M148.425 376.626l3.237-111.276h-9.77l1.26 111.276z"/></g><g><path fill="#402524" d="M11.753 376.626l4.436-111.276H6.42L4.993 376.626z"/></g><g><path fill="#512f2e" d="M23.754 258.778h186.73l-1.252 15.275h-183.6z"/></g><g><path fill="#402524" d="M56.969 274.053l-56.888 1.1v-16.375H55.09z"/></g></g></g><g><g><path fill="#fff" d="M106.08 256.937v-.989c0-3.167-2.575-5.736-5.747-5.736H96.73a5.739 5.739 0 0 0-5.741 5.736v.989z"/></g><g><path fill="#ffcd9c" d="M106.059 253.507c-.422 3.98-4.361.036-9.85-.545-5.484-.582-10.432 2.415-10.01-1.566.422-3.99 5.211-6.75 10.695-6.163 5.489.582 9.593 4.284 9.165 8.274z"/></g><g><g><path fill="#141b2f" d="M72.348 236.35c-6.565-4.737-14.5-13.021-15.046-25.59-.288-6.74 3.558-29.18 14.377-42.156a5.567 5.567 0 0 0-.706-7.837 5.563 5.563 0 0 0-7.837.716c-7.327 8.784-11.462 20.009-13.635 27.877-2.549 9.196-3.501 17.615-3.316 21.884 1.133 26.26 24.979 38.15 32.25 41.162 1.982.823 4.057 1.446 5.91 1.91.098-3.831.33-7.703.865-11.503-3.63-1.298-8.686-3.44-12.862-6.462z"/></g><g opacity=".2"><path fill="#141b2f" d="M75.942 251.298c.958.454 1.797.82 2.492 1.108 1.982.823 4.058 1.446 5.911 1.91.098-3.831.33-7.703.865-11.503a68.673 68.673 0 0 1-4.176-1.653c-1.838 3.28-3.373 6.75-5.092 10.138z"/></g><g><path fill="#fff9ea" d="M90.37 244.584c-.726-.2-3.095-1.03-5.16-1.771-.535 3.8-.767 7.672-.865 11.503a56.82 56.82 0 0 0 5.252 1.035z"/></g></g><g><path fill="#141b2f" d="M82.627 258.778v-1.842h30.855v1.842z"/></g></g><g><g transform="rotate(-76.37 84 248)"><path fill="#141b2f" d="M76.523 252.035a.365.365 0 0 1-.365-.365v-6.886c0-.202.163-.365.365-.365h14.95c.201 0 .365.163.365.365v6.886a.365.365 0 0 1-.365.365z"/></g><g><path fill="#ffa631" d="M84.654 245.382a1.927 1.927 0 1 0-2.353-1.38 1.93 1.93 0 0 0 2.353 1.38z"/></g></g></g><g><g><path fill="#bc3122" d="M276.85 291.013c-.68 0-1.23-.55-1.23-1.229v-19.202c0-.679.55-1.229 1.23-1.229h77.801c.679 0 1.229.55 1.229 1.229v19.202c0 .679-.55 1.229-1.229 1.229z"/></g><g><g><path fill="#ff4140" d="M368.797 264.897v-74.116c0-11.364-9.222-20.581-20.586-20.581H315.87c-11.37 0-20.581 9.217-20.581 20.581v74.116z"/></g><g><path fill="#bc3122" d="M288.173 266.705c0 11.364 9.222 23.87 20.586 23.87H341.1c11.375 0 20.581-12.506 20.581-23.87V190.78c0-11.364-9.206-20.581-20.58-20.581h-32.342c-11.364 0-20.586 9.217-20.586 20.581z"/></g></g><g><g><path fill="#ff4140" d="M361.681 200.4v67.38c0 7.57-6.137 13.708-13.707 13.708h-26.162a4.73 4.73 0 0 0-4.732 4.732v.051a4.73 4.73 0 0 0 4.732 4.732l31.682.01c7.595 0 14.35-5.329 15.051-12.615.119-1.246.222-58.736.252-77.998z"/></g></g></g><g><g><g><path fill="#fbf9f7" d="M354.58 25.824C353.34 10.81 342.059.3 326.957.3h-.206c-15.097 0-26.384 10.51-27.625 25.524-.608 7.358-.737 14.021 11.364 28.207 2.528 2.971 3.275 8.918 3.553 12.42.154 1.905 9.372 3.15 12.81 3.403 3.446-.252 12.658-1.498 12.817-3.403.278-3.502 1.025-9.449 3.553-12.42 12.1-14.186 11.961-20.849 11.359-28.207z"/></g><g><path fill="#141b2f" d="M326.853 60.375h-14.67V79.23c.026.33.443.751 1.267 1.21l10.015 5.587c.932.52 2.163.782 3.388.782 1.23 0 2.461-.262 3.393-.782l10.015-5.587c.814-.459 1.23-.88 1.267-1.21V60.375z"/></g><g><g><path fill="#383c48" d="M310.79 64.207v-3.832h32.128v3.832z"/></g><g><path fill="#383c48" d="M310.79 71.926V68.1h32.128v3.826z"/></g><g><path fill="#383c48" d="M310.79 79.647v-3.833h32.128v3.833z"/></g></g></g><g><g><g><g><g><path fill="#f4b222" d="M307.235 27.976c0 12.09 9.798 21.89 21.894 21.89V6.081c-12.096 0-21.894 9.804-21.894 21.894z"/></g><g><path fill="#f4b222" d="M351.018 27.976a21.86 21.86 0 0 1-5.525 14.536 21.833 21.833 0 0 1-16.364 7.353V6.082c.489 0 .983.016 1.473.052 11.4.757 20.416 10.247 20.416 21.842z"/></g></g><g><path fill="#ffca00" d="M324.876 6.082c-12.09 0-21.89 9.804-21.89 21.894 0 12.09 9.8 21.89 21.89 21.89s21.893-9.8 21.893-21.89-9.803-21.894-21.893-21.894z"/></g><g><path fill="#f4b222" d="M306.67 27.976c0-10.055 8.152-18.207 18.208-18.207 10.055 0 18.207 8.152 18.207 18.207 0 10.056-8.152 18.208-18.207 18.208-10.056 0-18.208-8.152-18.208-18.208z"/></g><g><path fill="#ffca00" d="M333.794 33.383c0 5.767-3.43 7.075-6.797 7.075v2.78h-3.239v-2.821c-2.77-.088-3.754-.345-5.952-1.03v-4.305c1.354.103 4.69.33 7.842.33 1.442 0 2.59-.34 2.59-1.808v-.978c0-1.22-.381-1.946-2.05-1.946h-2.625c-6.076 0-6.54-4.985-6.54-6.849v-2.11c.015-4.851 3.007-6.416 6.735-6.535v-2.914h3.239v2.935c2.384.118 4.202.5 5.885 1.02v4.324c-2.049-.175-5.695-.33-7.368-.33-1.967-.025-2.935.135-2.935 2.01v.833c0 1.468.613 2.055 2.41 2.055h2.729c5.03 0 6.076 4.119 6.076 6.843z"/></g></g><g opacity=".3"><g opacity=".3"><path fill="#ffca00" d="M319.598 6.726L303.63 22.694a21.975 21.975 0 0 0-.643 5.236l21.842-21.848a21.925 21.925 0 0 0-5.231.644z"/></g><g opacity=".3"><path fill="#ffca00" d="M332.501 7.447l-28.15 28.155a21.945 21.945 0 0 0 6.993 9.583l30.745-30.74a21.966 21.966 0 0 0-9.588-6.998z"/></g></g></g></g></g><g><g><g><g><g><path fill="#141b2f" d="M305.494 260.515v-9.026c0-12.157 9.943-22.1 22.1-22.1h.386c12.157 0 22.1 9.943 22.1 22.1l.114 6.519v2.507z"/></g><g><g><g><g transform="rotate(-88.664 249.5 361.5)"><path fill="#cf9b72" d="M245.994 365.311v-7.865h6.613v7.865z"/></g><g transform="rotate(-88.583 249 367)"><path fill="#edd6b6" d="M244.386 371.741v-9.246h9.575v9.246z"/></g><g><g><g><g><path fill="#141b2f" d="M243.942 363.528c1.884-.01 3.404 1.52 3.404 3.41v3.114a3.406 3.406 0 0 1-3.409 3.41 3.403 3.403 0 0 1-3.409-3.41v-3.14a3.389 3.389 0 0 1 3.414-3.384z"/></g><g><path fill="#17191a" d="M255.208 374.95a1.72 1.72 0 0 1-1.715 1.724c-3.218-.005-10.118-.005-10.118-.005l-15.874-.01v-2.287l27.717.047z"/></g><g><path fill="#141b2f" d="M227.506 374.434l27.702.026.01-2.647v-3.501a1.72 1.72 0 0 0-1.41-1.684v.186a3.24 3.24 0 0 1-3.234 3.238 3.23 3.23 0 0 1-3.228-3.223v-.237l-6.818.443v.165c0 .417-.077.803-.33 1.148a1.73 1.73 0 0 1-.236.237c-.32.273-.767.479-1.427.597-.113.016-.226.036-.355.057-.303.03-.644.041-1.02.056l-3.346-.015c-3.481 0-6.303 1.694-6.308 5.154z"/></g></g></g></g></g><g><path fill="#141b2f" d="M241.867 324.328c1.025-13.526 2.095-27.517 3.26-41.409l.025-.288c.602-5.402 2.96-9.742 4.943-12.909l.299-.458c3.61-5.155 8.923-8.805 15.36-10.55l2.26-.361c11.452-.52 32.548-.33 45.014-.294v20.597c-8.383 0-16.4-.01-19.984-.041-13.244-.14-9.516-.258-22.78.283-1.694.643-2.471 1.529-2.832 2.018-1.091 1.771-1.642 2.971-1.766 3.914-1.148 13.753-2.204 27.64-3.234 41.08-.51 6.719-1.034 28-1.575 34.905l-20.69-.005c.583-7.42 1.149-29.232 1.7-36.482z"/></g><g opacity=".2"><path fill="#141b2f" d="M263.164 279.145c3.923-7.842 17.239-10.051 18.233-21.101 10.71-.103 23.16-.01 31.63.015v20.597c-8.382 0-16.4-.01-19.983-.041-13.244-.14-9.516-.258-22.78.283-1.694.643-2.471 1.529-2.832 2.018-1.091 1.771-1.642 2.971-1.766 3.913-1.148 13.754-2.204 27.64-3.234 41.08-.51 6.72-1.034 28-1.575 34.906l-20.69-.005c.166-2.101.325-5.37.49-9.12 3.908-1.297 8.851-1.565 12.322-3.3 14.258-22.404 0-46.841 10.185-69.245z"/></g></g><g><g><g transform="rotate(-88.664 280.5 361.5)"><path fill="#edb485" d="M277.054 365.312v-7.866h6.613v7.866z"/></g><g transform="rotate(-88.582 280 367)"><path fill="#fff" d="M275.444 371.74v-9.245h9.575v9.246z"/></g><g><g><g><g><path fill="#141b2f" d="M274.996 363.528a3.393 3.393 0 0 1 3.409 3.41v3.114a3.41 3.41 0 0 1-3.409 3.41 3.407 3.407 0 0 1-3.414-3.41v-3.14a3.392 3.392 0 0 1 3.414-3.384z"/></g><g><path fill="#17191a" d="M286.267 374.95a1.72 1.72 0 0 1-1.714 1.724c-3.218-.005-10.118-.005-10.118-.005l-15.875-.01v-2.287l27.718.047z"/></g><g><path fill="#141b2f" d="M258.565 374.434l27.702.026.01-2.647v-3.501a1.72 1.72 0 0 0-1.41-1.684v.186a3.24 3.24 0 0 1-3.233 3.238 3.23 3.23 0 0 1-3.23-3.223v-.237l-6.822.443v.165c0 .417-.072.803-.324 1.148-.062.077-.139.16-.237.237-.32.273-.767.479-1.426.597-.113.016-.232.036-.355.057-.304.03-.644.041-1.025.056l-3.342-.015c-3.48 0-6.302 1.694-6.308 5.154z"/></g></g></g></g></g><g><path fill="#141b2f" d="M272.267 324.328c1.025-13.526 2.096-27.517 3.26-41.414l.03-.283c.598-5.402 2.961-9.747 4.938-12.904l.299-.458c3.466-4.948 8.326-9.145 14.562-10.319 3.712-.705 10.566-.901 15.148-.901h.51c1.854-.02 3.77-.03 5.721-.041v.056c1.045 0 1.993-.005 2.811-.015h11.71v-.041h18.938v9.85c0 5.952-4.83 10.772-10.788 10.782 0 0-18.583.026-32.702.01-1.539.062-3.47.145-6.035.248-1.699.643-2.481 1.529-2.836 2.018-1.087 1.771-1.638 2.976-1.761 3.914-1.149 13.753-2.204 27.635-3.24 41.08-.51 6.719-1.034 28-1.575 34.905l-20.684-.005c.577-7.42 1.143-29.237 1.694-36.482z"/></g><g><path fill="#1c2842" d="M295.747 281.184c-18.032 18.032 9.232 67.582-24.803 73.05.453-9.634.89-24.231 1.323-29.906 1.025-13.526 2.096-27.517 3.26-41.414l.03-.283c.597-5.402 2.96-9.747 4.938-12.904l.299-.458c3.466-4.948 8.326-9.145 14.562-10.319 3.712-.705 10.566-.901 15.148-.901h.51c1.854-.02 3.774-.03 5.721-.041v.056c1.045 0 1.992-.005 2.811-.015h11.71v-.041h15.349c-1.257 24.643-38.84 9.155-50.858 23.176z"/></g><g opacity=".2"><path fill="#141b2f" d="M295.747 281.184c12.018-14.021 49.601 1.467 50.858-23.176h3.589v9.85c0 5.952-4.83 10.772-10.788 10.782 0 0-18.583.026-32.702.01-1.539.062-3.47.145-6.035.248-1.699.643-2.481 1.529-2.836 2.018-1.087 1.771-1.638 2.976-1.761 3.913-1.149 13.754-2.204 27.636-3.24 41.08-.51 6.72-1.034 28-1.575 34.906l-20.684-.005c.124-1.607.247-3.914.371-6.576 34.036-5.468 6.771-55.018 24.803-73.05z"/></g></g></g></g><g><g><path fill="#fff9ea" d="M353.03 163.717v90.79c0 1.405-.756 2.62-1.858 3.223a3.284 3.284 0 0 1-.999.345c-.18.036-.37.051-.566.051h-42.172a3.349 3.349 0 0 1-2.713-1.426h-.005a3.517 3.517 0 0 1-.5-.978 3.672 3.672 0 0 1-.2-1.216v-90.789c0-.247.015-.484.056-.71.165-.953.68-1.684 1.427-2.22.499-.365 1.107-.633 1.786-.839l1.735-.335 8.502-1.627 1.302-.252 8.512-1.632.103.02 5.906 1.05 1.014.186 13.496 2.415 1.75.309c.814 0 1.566.304 2.153.808a3.65 3.65 0 0 1 1.2 2.101c.046.232.072.48.072.726z"/></g></g><g><g><path fill="#ede6d4" d="M352.959 162.991a3.65 3.65 0 0 0-1.2-2.1 3.29 3.29 0 0 0-2.147-.809l-1.75-.309-3.677-.659c1.75 19.103 3.594 38.387 3.156 57.47 0 8.866-2.27 17.96-8.182 25.235-5.231 7.05-13.872 9.098-22.053 10.463-4.393.582-8.76.886-13.094.942v1.282c0 .428.071.835.205 1.216.113.35.289.684.5.978l.005.005a3.363 3.363 0 0 0 2.713 1.421h42.177c.19 0 .381-.015.561-.051.356-.062.695-.18 1-.35 1.101-.598 1.853-1.813 1.853-3.219v-90.789c0-.247-.021-.494-.067-.726z"/></g></g><g><g><g><g><path fill="#f3ad7a" d="M319.562 159.68a7.46 7.46 0 0 0 7.466 7.461 7.453 7.453 0 0 0 7.461-7.46v-24.536a7.456 7.456 0 0 0-7.461-7.461 7.464 7.464 0 0 0-7.466 7.46z"/></g><g opacity=".3"><path fill="#f3ad7a" d="M327.816 157.95c-2.045-1.225-5.484 2.22-8.254 1.73v-24.535a7.464 7.464 0 0 1 7.466-7.461 7.456 7.456 0 0 1 7.461 7.46v24.536a7.445 7.445 0 0 1-3.65 6.411c1.04-4.943 1.673-5.324-3.023-8.14z"/></g></g><g><g><path fill="#ffcd9c" d="M308.218 135.268c0 8.584 6.952 15.546 15.54 15.546 8.594 0 15.556-6.962 15.556-15.546v-16.322c0-8.589-6.962-15.545-15.556-15.545-8.588 0-15.54 6.956-15.54 15.545z"/></g><g><path fill="#fec08a" d="M331.997 132.122c3.053-5.087 5.087-14.757-.51-17.81-5.597-3.564-12.718 0-19.335-2.034-1.03 0-1.926.515-2.827.9 2.286-5.73 7.884-9.777 14.433-9.777 8.594 0 15.556 6.956 15.556 15.545v16.322c0 8.584-6.962 15.546-15.556 15.546-2.827 0-5.473-.757-7.754-2.075 6.452-4.187 12.002-9.588 15.993-16.617z"/></g><g><path fill="#bf4223" d="M308.265 117.777s-2.688-22.007 18.711-20.535c11.545-.072 11.545 6.91 11.545 6.91s7.718-.278 9.963 4.82c1.54 3.507 2.466 9.325 2.466 13.475 0 9.897-5.669 18.079-13.047 19.433a16.098 16.098 0 0 0 1.318-6.421l.093-8.239c-.505.474-1.71 3.208-1.983 3.888-1.297 3.223-1.735 4.52-1.735 2.914 0 0 4.34-23.114-2.317-23.371-5.463-.212-3.42 2.106-11.133 2.265-4.201.088-7.425-3.321-9.752-2.724-3.898 1-4.13 7.585-4.13 7.585z"/></g><g><path fill="#bf4223" d="M336.935 122.36s-.222 14.875-6.57 15.91c-4.65.757-11.056.726-14.12.345-4.077-.504-7.857-2.095-7.857-2.095s-4.315 18.238-1.117 20.02c7.049 3.954 21.528 1.616 27.156-6.458 1.74-2.497 7.23-12.445 7.23-22.66l5.957-3.981z"/></g><g><path fill="#91321b" d="M308.028 152.678c11.704 5.087 24.937-1.53 30.534-13.228.51-1.53 5.087-3.059 6.611-5.093 6.617-6.611 3.563-17.81 1.53-26.461-.345-1.035-1.633-2.075-3.064-2.95 1.93.653 3.888 1.853 4.845 4.026 1.54 3.507 2.466 9.325 2.466 13.475 0 9.552-5.282 17.502-12.28 19.263-1.586 4.047-3.378 7.132-4.243 8.372-5.628 8.074-20.107 10.412-27.156 6.457-.989-.55-1.257-2.672-1.159-5.34a9.158 9.158 0 0 0 1.916 1.479z"/></g><g><g><path fill="#fec08a" d="M338.969 133.332c1.658.69 3.867-.85 4.927-3.424 1.071-2.585.592-5.226-1.055-5.916-1.658-.68-3.867.855-4.933 3.434-1.066 2.58-.587 5.222 1.06 5.906z"/></g><g><path fill="#f3ad7a" d="M339.88 130.856c.664.345 1.632-.211 2.163-1.241.535-1.025.432-2.137-.227-2.482-.659-.34-1.627.216-2.162 1.24-.53 1.03-.428 2.143.226 2.483z"/></g></g></g></g><g><g><g><path fill="#2a2626" d="M324.34 127.689c0 1.334.855 2.41 1.91 2.41 1.056 0 1.916-1.076 1.916-2.41 0-1.339-.86-2.415-1.916-2.415-1.055 0-1.91 1.076-1.91 2.415z"/></g><g><path fill="#fefefe" d="M326.25 126.7c0 .546.35.984.783.984.433 0 .783-.438.783-.984 0-.54-.35-.983-.783-.983-.432 0-.783.443-.783.983z"/></g></g><g><g><g><path fill="#f3ad7a" d="M319.561 138.368c1.262 0 2.606-1.035 2.585-2.296-.036-2.194-.54-3.29-.576-5.479-.026-1.267-.747-2.296-2.009-2.296-1.26 0-1.982 1.03-2.002 2.296-.042 2.188-.546 3.285-.582 5.479-.02 1.261 1.323 2.296 2.584 2.296z"/></g></g><g opacity=".3"><path fill="#ffe9d4" d="M317.507 135.454c0 .726.366 1.313.814 1.313.453 0 .813-.587.813-1.313s-.36-1.313-.813-1.313c-.448 0-.814.587-.814 1.313z"/></g></g><g><g><path fill="#2a2626" d="M311.014 127.689c0 1.334.85 2.41 1.91 2.41 1.056 0 1.905-1.076 1.905-2.41 0-1.339-.849-2.415-1.905-2.415-1.06 0-1.91 1.076-1.91 2.415z"/></g><g><path fill="#fefefe" d="M312.92 126.7c0 .546.35.984.782.984.433 0 .783-.438.783-.984 0-.54-.35-.983-.783-.983-.432 0-.783.443-.783.983z"/></g></g><g opacity=".1"><path fill="#f48fb7" d="M326.317 136.808c.274.984 1.818 1.416 3.445.963 1.627-.448 2.73-1.617 2.456-2.606-.278-.983-1.817-1.416-3.45-.962-1.626.448-2.723 1.616-2.45 2.605z"/></g><g opacity=".1"><path fill="#f48fb7" d="M315.34 136.808c-.274.984-1.813 1.416-3.445.963-1.628-.448-2.73-1.617-2.451-2.606.272-.983 1.817-1.416 3.444-.962 1.627.448 2.73 1.616 2.451 2.605z"/></g><g><g><path fill="#462119" d="M312.487 140.387c-.02.319-.047 1.725.046 2.034.505 1.786 2.74 3.218 5.49 3.377 2.754.16 5.148-1.004 5.859-2.723.124-.294.257-1.695.278-2.014z"/></g><g><path fill="#fefefe" d="M313.002 140.418c.01.154.04.298.077.36.51.834 2.6 1.555 5.139 1.704 2.533.145 4.701-.33 5.314-1.102.04-.056.077-.19.108-.35z"/></g></g><g><g><path fill="#bf4223" d="M323.243 124.47c2.21-.288 3.337-.288 5.546 0 .876.114 1.725-.432 1.905-1.286.176-.86-.489-1.736-1.493-1.864-2.538-.33-3.831-.33-6.364 0-1.004.128-1.674 1.004-1.499 1.864.18.854 1.035 1.4 1.905 1.287z"/></g></g><g><g><path fill="#bf4223" d="M310.232 124.47c2.208-.288 3.336-.288 5.545 0 .87.114 1.725-.432 1.9-1.286.18-.86-.489-1.736-1.493-1.864-2.533-.33-3.826-.33-6.364 0-1.004.128-1.669 1.004-1.494 1.864.18.854 1.03 1.4 1.906 1.287z"/></g></g></g></g></g></g></g><g><g><g><g transform="rotate(-68.921 253 160)"><path fill="#ffcd9c" d="M247.861 163.283v-5.68h9.829v5.68z"/></g><g><g><path fill="#ffcd9c" d="M253.968 151.35a1.45 1.45 0 0 1-1.684 1.158 1.461 1.461 0 0 1-1.149-1.684l1.581-8.496a1.44 1.44 0 0 1 1.689-1.154 1.435 1.435 0 0 1 1.143 1.68z"/></g><g><path fill="#ffcd9c" d="M260.44 153.45a1.443 1.443 0 0 1-1.85.855 1.445 1.445 0 0 1-.859-1.854l2.96-8.11a1.452 1.452 0 0 1 1.85-.865 1.449 1.449 0 0 1 .86 1.854z"/></g><g><path fill="#ffcd9c" d="M257.608 151.164a1.434 1.434 0 0 1-1.782.983 1.435 1.435 0 0 1-.989-1.771l2.359-8.321a1.437 1.437 0 0 1 1.787-.989c.767.217 1.21 1.01.994 1.777z"/></g><g transform="rotate(-74.176 255.5 153.5)"><path fill="#ffcd9c" d="M251.223 157.985a.554.554 0 0 1-.555-.554v-8.67c0-.306.248-.553.553-.553h8.677c.305 0 .552.247.552.552v8.672a.553.553 0 0 1-.553.553z"/></g></g></g><g><path fill="#fff9ea" d="M310.546 160.128a5.898 5.898 0 0 0-7.606 3.43c-4.33 11.415-25.4 33.129-36.47 35.565-5.016 1.101-7.065-.536-8.286-2.086a8.424 8.424 0 0 1-.514-.71c-4.12-6.318-3.435-20.947-.793-30.23.494-1.757 1.065-3.322 1.683-4.599l-10.756-4.063c-.54 1.123-1.071 2.446-1.57 3.914-3.713 10.91-5.716 30.271 1.59 41.47.345.531.71 1.04 1.097 1.535 4.65 5.886 11.776 8.12 20.082 6.292 16.683-3.671 39.828-29.344 44.967-42.912a5.893 5.893 0 0 0-3.424-7.606z"/></g></g></g><g><path fill="#ffcd9c" d="M265.14 153.841a1.565 1.565 0 0 0-1.987-.978l-6.601 2.235c-.195.788-.303 1.658-.103 2.368.124.448 1.385.876 1.385.876l6.323-2.508a1.557 1.557 0 0 0 .984-1.993z"/></g><g><g><g transform="rotate(-40.532 390.5 105)"><path fill="#edb485" d="M387.436 110.486V99.37h6.418v11.116z"/></g><g><g><path fill="#edb485" d="M375.6 97.525c.478-.844 1.58-1.143 2.43-.659l6.833 3.976c.036.906-.041 1.905-.417 2.641-.237.479-1.741.654-1.741.654l-6.457-4.181a1.785 1.785 0 0 1-.649-2.43z"/></g><g><path fill="#edb485" d="M381.711 103.23s-5.334-8.794-5.931-11.1c-.206-.804.365-3.343 1.915-4.944 1.133-1.164 4.789-.571 5.51-.015 3.347 2.564 7.528 9.654 7.528 9.654a3.216 3.216 0 0 1-.752 4.49l-3.764 2.673c-1.442 1.05-3.465.7-4.506-.757z"/></g></g></g><g><g><g><path fill="#fff9ea" d="M419.176 147.204c.85 10.896-1.57 19.896-7.013 25.802-7.512 8.146-20.035 10.788-37.207 7.848-8.61-1.489-18.1-4.274-28.207-8.337a6.48 6.48 0 0 1 4.83-12.023c9.258 3.728 17.857 6.282 25.57 7.6 8.656 1.473 20.066 2.008 25.509-3.872 3.533-3.826 4.64-11.673 2.95-20.993-2.481-13.81-18.928-34.283-18.928-34.283l9.176-7.58s19.819 24.655 22.502 39.556c.386 2.158.659 4.248.818 6.282z"/></g></g></g></g></g></g></g></svg>