<svg xmlns="http://www.w3.org/2000/svg" width="231" height="232" viewBox="0 0 231 232"><g><g><g><g><path fill="#49d6cb" d="M115.873.482a.482.482 0 0 0-.482-.482h-.01a.478.478 0 0 0-.477.482.485.485 0 0 0 .969 0zm7.671.36a.483.483 0 0 0-.35-.585c-.291-.071-.61.161-.61.467a.483.483 0 0 0 .492.483.482.482 0 0 0 .468-.365zm-15.849.383a.484.484 0 0 0 .478-.6.478.478 0 0 0-.524-.362.482.482 0 0 0 .046.962zm23.501.37a.483.483 0 0 0-.351-.585c-.292-.073-.609.161-.609.467a.483.483 0 0 0 .492.483.481.481 0 0 0 .468-.365zm-31.025.384a.484.484 0 0 0-.172-.948.483.483 0 1 0 .172.948zm38.626.76a.484.484 0 0 0-.397-.475.482.482 0 1 0-.086.957.482.482 0 0 0 .483-.482zm-46.237.525a.483.483 0 0 0 .394-.475c0-.318-.344-.555-.644-.456a.483.483 0 0 0 .25.931zm53.705 1.358a.483.483 0 0 0-.35-.585l-.235.937a.481.481 0 0 0 .585-.352zm-61.155.419a.484.484 0 0 0-.234-.937l-.045.013a.48.48 0 0 0-.306.592.486.486 0 0 0 .585.332zm68.504 1.848a.483.483 0 0 0-.35-.585l-.235.936a.483.483 0 0 0 .585-.351zm-75.847.435a.483.483 0 1 0-.279-.923.478.478 0 0 0-.306.592.485.485 0 0 0 .585.331zm82.567 2.692a.483.483 0 0 0 .145-.944.483.483 0 1 0-.347.899c.065.03.134.045.202.045zm-89.855.093a.48.48 0 0 0 .276-.085.482.482 0 0 0-.47-.839.483.483 0 0 0 .194.924zm96.841 3.143c.201 0 .39-.128.458-.329a.485.485 0 0 0-.232-.579.482.482 0 1 0-.379.884.479.479 0 0 0 .153.024zm-103.57.041a.484.484 0 0 0-.378-.885.59.59 0 0 0-.123.062.481.481 0 0 0 .501.823zm110.32 3.657a.48.48 0 0 0 .226-.908.482.482 0 1 0-.378.883.475.475 0 0 0 .152.025zm-117.284.106c.08 0 .16-.02.233-.061a.482.482 0 1 0-.502-.822.484.484 0 0 0-.134.669.484.484 0 0 0 .403.214zm123.77 4.033a.481.481 0 0 0 .26-.889c-.221-.149-.555-.116-.702.106-.147.222-.12.494.101.642a.482.482 0 0 0 .341.141zM50.315 21.2a.477.477 0 0 0 .347-.147.481.481 0 0 0-.636-.722.483.483 0 0 0 .289.869zm136.437 4.45a.481.481 0 0 0 .26-.889c-.221-.149-.555-.116-.702.107-.148.221-.12.493.101.641a.481.481 0 0 0 .341.141zM44.4 25.688a.483.483 0 0 0-.557-.787.483.483 0 0 0 .557.787zm148.498 4.844a.483.483 0 0 0-.008-.809.484.484 0 1 0-.585.765.487.487 0 0 0 .593.044zm-154.632.207a.478.478 0 0 0 .267-.081.482.482 0 0 0-.584-.765.483.483 0 0 0 .317.846zm159.898 5.215a.482.482 0 0 0 .341-.823l-.007-.006a.48.48 0 0 0-.679.002.489.489 0 0 0 .004.686.482.482 0 0 0 .341.141zm-165.075-.013a.483.483 0 0 0-.682-.682l-.007.007a.48.48 0 0 0 .343.819.49.49 0 0 0 .346-.144zm170.643 5.495a.482.482 0 0 0-.044-.592.483.483 0 1 0-.624.726.48.48 0 0 0 .668-.134zm-175.786.194a.482.482 0 1 0-.765-.585.483.483 0 0 0 .765.585zm180.16 6.045a.482.482 0 0 0 .382-.778.483.483 0 1 0-.723.637.482.482 0 0 0 .34.141zm-185.298.202a.418.418 0 0 0 .354-.193.483.483 0 1 0-.748-.601c-.148.221-.115.554.106.702a.522.522 0 0 0 .288.092zM212.62 53.98a.485.485 0 0 0 .244-.734.481.481 0 0 0-.822.502.483.483 0 0 0 .578.232zm-194.164.195a.482.482 0 0 0 .401-.214.484.484 0 0 0-.244-.734.48.48 0 0 0-.579.233.482.482 0 0 0 .422.715zM216.4 60.607a.484.484 0 0 0 .397-.759.484.484 0 1 0-.824.502c.085.16.251.257.427.257zm-201.867.188a.482.482 0 0 0 .463-.338.483.483 0 1 0-.884-.379.483.483 0 0 0 .421.717zm205.346 6.661a.482.482 0 0 0 .437-.685.483.483 0 1 0-.838.47.48.48 0 0 0 .401.215zm-208.819.209c.188 0 .363-.11.441-.287a.482.482 0 0 0-.838-.471.483.483 0 0 0 .397.758zm211.831 6.857a.483.483 0 0 0 .445-.668c-.092-.235-.344-.326-.587-.245-.252.085-.374.394-.29.646a.483.483 0 0 0 .432.267zM8.489 74.478a.483.483 0 1 0-.893-.359c-.084.253.042.553.294.637a.534.534 0 0 0 .169.028c.192 0 .364-.11.43-.306zm-2.835 6.593a.482.482 0 0 0-.585.352l.936.234a.484.484 0 0 0-.35-.586zm219.886.696a.484.484 0 0 0 .351-.585l-.013-.045a.477.477 0 0 0-.592-.307.487.487 0 0 0 .254.937zm1.921 7.429a.483.483 0 0 0 .456-.645.483.483 0 1 0-.93.25.483.483 0 0 0 .474.395zm-223.949.255a.484.484 0 0 0 .485-.492.482.482 0 0 0-.957-.087.484.484 0 0 0 .472.579zm225.485 7.278a.482.482 0 0 0 .456-.644.483.483 0 0 0-.931.249.482.482 0 0 0 .475.395zm-226.546-.07a.482.482 0 0 0-.931-.248.483.483 0 0 0 .931.248zm227.69 7.675a.482.482 0 0 0 .363-.523.483.483 0 1 0-.948.172.483.483 0 0 0 .585.351zm-228.677-.159a.483.483 0 1 0-.963-.046c0 .267.215.482.482.482a.484.484 0 0 0 .481-.436zm229.562 7.363v-.009a.478.478 0 0 0-.482-.478.486.486 0 0 0-.483.487.482.482 0 1 0 .965 0zm-230.062.253a.482.482 0 1 0-.964 0v.01c0 .266.215.477.482.477s.482-.22.482-.487zm230.075 7.438v-.01a.478.478 0 0 0-.482-.477.485.485 0 0 0 0 .969.482.482 0 0 0 .482-.482zm-230.071.253a.482.482 0 0 0-.965 0v.01c0 .266.216.477.483.477.266 0 .482-.22.482-.487zm229.095 7.902a.481.481 0 0 0 .483-.492.482.482 0 0 0-.962-.045.482.482 0 0 0 .479.537zm-229.066.262a.482.482 0 0 0 .467-.609.482.482 0 1 0-.947.171.482.482 0 0 0 .48.438zm228.54 6.966a.485.485 0 0 0-.322-.555.486.486 0 0 0-.636.468.482.482 0 0 0 .957.087zm-227.52.655a.484.484 0 0 0 .472-.578.482.482 0 1 0-.93.248c.068.202.255.33.458.33zm226.01 6.885a.482.482 0 0 0-.931-.249.482.482 0 0 0 .931.249zm-224.483.65a.482.482 0 0 0 .472-.578.483.483 0 1 0-.93.249.483.483 0 0 0 .458.329zm221.993 7.167a.483.483 0 0 0 .468-.365l-.936-.234a.483.483 0 0 0 .468.599zm-219.828.226a.486.486 0 0 0 .332-.584.482.482 0 1 0-.923.278.476.476 0 0 0 .591.306zm217.747 6.788a.933.933 0 0 0 .03-.073c.084-.252-.042-.553-.294-.636-.251-.083-.514.025-.599.277a.483.483 0 0 0 .863.432zM8.1 157.482a.484.484 0 0 0 .398-.758.484.484 0 0 0-.839.471.484.484 0 0 0 .441.287zm211.929 6.859a.48.48 0 0 0 .461-.338.483.483 0 0 0-.305-.611.486.486 0 0 0-.593.263.482.482 0 0 0 .437.686zm-208.926.209a.483.483 0 0 0 .398-.758.482.482 0 0 0-.839.47.482.482 0 0 0 .441.288zm205.887 6.407a.483.483 0 1 0-.885-.378.484.484 0 0 0 .458.635.485.485 0 0 0 .427-.257zm-202.414.446a.484.484 0 0 0 .422-.716.482.482 0 1 0-.823.501.482.482 0 0 0 .401.215zm198.07 6.437a.482.482 0 0 0 .426-.257.483.483 0 1 0-.884-.378.484.484 0 0 0 .458.635zm-194.147.17a.48.48 0 0 0 .422-.716.483.483 0 0 0-.884.378.64.64 0 0 0 .061.123.48.48 0 0 0 .401.215zm189.798 6.175a.483.483 0 0 0 .406-.222c.148-.222.115-.554-.106-.702-.22-.149-.494-.121-.641.101a.481.481 0 0 0 .341.823zm-185.173.077a.483.483 0 0 0 .068-.75.481.481 0 0 0-.721.637.478.478 0 0 0 .653.113zm180.677 5.885a.495.495 0 0 0 .14-.141.483.483 0 0 0-.764-.584.482.482 0 0 0 .624.725zm-175.909.144a.481.481 0 0 0 .134-.668.483.483 0 0 0-.764.585.483.483 0 0 0 .63.083zm170.49 5.649a.483.483 0 0 0 .341-.141l.006-.007a.478.478 0 0 0-.003-.679.486.486 0 0 0-.685.686.48.48 0 0 0 .341.141zm-165.259-.009a.489.489 0 0 0-.004-.686.481.481 0 0 0-.682 0 .481.481 0 0 0 0 .682l.006.006c.094.094.215.14.337.14a.489.489 0 0 0 .343-.142zm159.74 5.364a.477.477 0 0 0 .325-.126.481.481 0 0 0-.585-.764.482.482 0 0 0 .26.89zm-154.551.128a.482.482 0 0 0 .319-.845.483.483 0 1 0-.585.764.485.485 0 0 0 .266.081zm148.69 4.848a.48.48 0 0 0 .296-.102.482.482 0 1 0-.637-.721.481.481 0 0 0 .341.823zM44.22 206.4c.156 0 .31-.065.397-.197.148-.221.121-.493-.1-.641a.483.483 0 1 0-.601.748c.089.06.197.09.304.09zm136.604 4.448a.481.481 0 0 0 .296-.102.483.483 0 1 0-.637-.722.481.481 0 0 0 .341.824zm-130.413.121c.156 0 .31-.065.397-.197.148-.221.121-.493-.1-.641a.481.481 0 0 0-.682 0 .481.481 0 0 0 .081.748c.089.06.197.09.304.09zm124.097 4.007a.574.574 0 0 0 .124-.062.482.482 0 0 0-.503-.822.482.482 0 0 0 .38.884zm-117.653.13a.483.483 0 0 0 .145-.945.482.482 0 1 0-.378.883.465.465 0 0 0 .233.062zm110.774 3.605a.475.475 0 0 0 .276-.086.482.482 0 0 0-.5-.823.482.482 0 0 0 .224.909zm-104.027.101a.482.482 0 0 0 .269-.884.484.484 0 0 0-.734.244.482.482 0 0 0 .232.578.465.465 0 0 0 .233.062zm97.068 3.15a.484.484 0 0 0 .203-.045.484.484 0 0 0-.347-.899.483.483 0 0 0 .144.944zm-90.085.093a.483.483 0 0 0 .195-.923.482.482 0 1 0-.348.9.48.48 0 0 0 .153.023zm83.042 2.668l.045-.013a.48.48 0 0 0 .307-.592.488.488 0 0 0-.585-.332.484.484 0 0 0 .233.937zm-75.749-.853a.482.482 0 0 0-.234.937zm68.409 3.146l.045-.013a.478.478 0 0 0 .306-.592.484.484 0 1 0-.468.619.521.521 0 0 0 .117-.014zm-61.064-.871a.483.483 0 0 0-.234.937zm53.47 2.677a.482.482 0 0 0-.088-.957.482.482 0 0 0 .088.957zm-46.096.052c.202 0 .39-.128.458-.329a.484.484 0 0 0-.305-.611c-.299-.096-.645.139-.645.456a.483.483 0 0 0 .492.484zm38.515 1.235a.483.483 0 0 0 .492-.484c0-.305-.313-.538-.608-.467a.483.483 0 1 0 .116.951zm-30.931.034a.482.482 0 0 0 .046-.962.482.482 0 1 0-.046.962zm23.338.741a.483.483 0 0 0 .436-.481c.001-.306-.316-.539-.609-.467a.483.483 0 0 0 .173.948zm-15.686.02a.482.482 0 0 0 .046-.963.483.483 0 1 0-.046.963zm7.816.234a.45.45 0 0 0 .128.017h.01a.478.478 0 0 0 .477-.482c0-.314-.334-.548-.624-.463a.496.496 0 0 0-.615.464c0 .266.216.482.483.482h.009a.48.48 0 0 0 .132-.018z"/></g></g><g><g><path fill="#49d6cb" d="M119.222 9.895a.604.604 0 0 0 .019-1.206.617.617 0 0 0-.627.579.605.605 0 0 0 .588.627zm-8.277-.569c.01.318.28.579.6.579h.017a.611.611 0 0 0 .59-.627.615.615 0 0 0-.628-.578.59.59 0 0 0-.579.626zm15.936 1.11a.613.613 0 0 0 .598-.55.59.59 0 0 0-.54-.656.59.59 0 0 0-.656.53.599.599 0 0 0 .531.666c.028 0 .048.01.067.01zm-23.595-.512c.038.309.299.53.607.53h.059a.604.604 0 0 0 .539-.665.605.605 0 0 0-.665-.531.595.595 0 0 0-.54.666zm31.081 1.582c.038.01.077.01.115.01a.604.604 0 0 0 .107-1.196.61.61 0 0 0-.704.491.598.598 0 0 0 .482.695zm-38.075.058c.04 0 .068 0 .106-.009a.611.611 0 0 0 .492-.705.609.609 0 0 0-.704-.482.596.596 0 0 0-.482.704.59.59 0 0 0 .588.492zm45.686 1.582c.27 0 .511-.173.589-.453a.614.614 0 0 0-.435-.733.62.62 0 0 0-.743.433.604.604 0 0 0 .444.734.382.382 0 0 0 .145.019zm-53.18.068c.047 0 .095 0 .154-.02a.6.6 0 0 0 .423-.733.6.6 0 0 0-.732-.434.6.6 0 0 0-.425.734.599.599 0 0 0 .58.453zm60.54 2.112a.618.618 0 0 0 .578-.415.605.605 0 0 0-1.147-.385.601.601 0 0 0 .385.761.427.427 0 0 0 .184.039zm-68.471-.328a.6.6 0 0 0 .57.405.624.624 0 0 0 .192-.028.598.598 0 0 0 .377-.762.597.597 0 0 0-.762-.377.596.596 0 0 0-.377.762zm75.436 2.981a.607.607 0 0 0 .791-.318.608.608 0 0 0-.328-.791.61.61 0 0 0-.791.328.6.6 0 0 0 .328.781zm-82.594-.222a.62.62 0 0 0 .56.367.608.608 0 0 0 .56-.84.598.598 0 0 0-.79-.318.607.607 0 0 0-.33.791zm89.53 3.425a.598.598 0 0 0 .81-.26.61.61 0 0 0-.27-.812.596.596 0 0 0-.801.261.607.607 0 0 0 .261.82zm-96.465-.155a.595.595 0 0 0 .54.328.533.533 0 0 0 .27-.067.607.607 0 0 0 .271-.81.599.599 0 0 0-.811-.261.605.605 0 0 0-.27.81zm103.458 3.945a.61.61 0 0 0 .319-1.128v.01a.598.598 0 0 0-.83.203.61.61 0 0 0 .202.829.602.602 0 0 0 .309.086zm-109.623.107a.595.595 0 0 0 .309-.087.587.587 0 0 0 .203-.82.598.598 0 0 0-.829-.203v-.009a.61.61 0 0 0-.203.83.598.598 0 0 0 .52.289zm116.058 4.081a.626.626 0 0 0 .501-.252c.183-.28.126-.656-.154-.839a.603.603 0 0 0-.839.145.597.597 0 0 0 .154.839h-.01a.591.591 0 0 0 .348.107zm-122.974-.136a.593.593 0 0 0 .493.261.63.63 0 0 0 .346-.107.613.613 0 0 0 .145-.848.591.591 0 0 0-.839-.135v-.01a.604.604 0 0 0-.145.839zm129.089 4.785a.601.601 0 0 0 .473-.222.6.6 0 0 0-.086-.849.599.599 0 0 0-.849.087.587.587 0 0 0 .086.839v.01a.641.641 0 0 0 .376.135zm-134.703.125c.135 0 .27-.039.386-.135a.599.599 0 0 0 .086-.849.608.608 0 0 0-.848-.077.6.6 0 0 0-.087.849.583.583 0 0 0 .463.212zm140.472 4.939a.61.61 0 0 0 .444-.183.62.62 0 0 0-.029-.859.607.607 0 0 0-.849.029.597.597 0 0 0 .434 1.013zm-146.22.145a.63.63 0 0 0 .414-.164.609.609 0 0 0 .018-.859.596.596 0 0 0-.848-.019.607.607 0 0 0-.019.858c.116.126.27.184.434.184zM193.5 44.15c.115.135.279.192.443.192a.598.598 0 0 0 .405-.153.6.6 0 0 0 .038-.85.61.61 0 0 0-.859-.038.597.597 0 0 0-.028.849zm-156.554.347a.605.605 0 0 0 .444-.193h.009a.605.605 0 0 0-.896-.81.604.604 0 0 0 .038.848c.116.107.26.155.405.155zm161.501 5.46a.609.609 0 0 0 .849.106.609.609 0 0 0 .096-.848.591.591 0 0 0-.849-.097.589.589 0 0 0-.096.839zm-166.845.27a.63.63 0 0 0 .376.126.597.597 0 0 0 .473-.232.602.602 0 0 0-.096-.849.61.61 0 0 0-.753.955zm171.862 6.145a.564.564 0 0 0 .346-.106.61.61 0 0 0 .155-.84.603.603 0 1 0-.501.946zm-176.02.174a.582.582 0 0 0 .493-.261.606.606 0 0 0-.155-.839.604.604 0 1 0-.675 1.004.606.606 0 0 0 .337.096zm179.588 6.019a.611.611 0 0 0 .521.299.696.696 0 0 0 .309-.077.601.601 0 0 0 .212-.829.586.586 0 0 0-.819-.213.6.6 0 0 0-.223.82zm-183.968.415a.61.61 0 0 0 .821-.222.6.6 0 0 0-.222-.82.597.597 0 0 0-.82.212.606.606 0 0 0 .221.83zm188.107 6.656c.087 0 .174-.02.261-.058a.61.61 0 0 0 .279-.81.612.612 0 0 0-.81-.28.61.61 0 0 0-.28.81.609.609 0 0 0 .55.338zm-191.406.212a.597.597 0 0 0 .541-.348.599.599 0 0 0-.28-.8.61.61 0 0 0-.81.28.597.597 0 0 0 .28.8.536.536 0 0 0 .27.068zm193.953 6.415a.59.59 0 0 0 .559.386.61.61 0 0 0 .56-.83.613.613 0 0 0-.79-.338.597.597 0 0 0-.329.782zm-197.28.569a.649.649 0 0 0 .221.048.592.592 0 0 0 .56-.386.597.597 0 0 0-.328-.781.608.608 0 0 0-.79.338c-.117.309.028.666.337.781zm200.434 7.042a.626.626 0 0 0 .183-.029.61.61 0 0 0 .386-.762.59.59 0 0 0-.752-.386.6.6 0 0 0-.396.752.6.6 0 0 0 .579.425zm-202.788.241a.619.619 0 0 0 .578-.414.614.614 0 0 0-.394-.762.614.614 0 0 0-.762.394.614.614 0 0 0 .394.763c.059.01.116.019.184.019zm204.842 7.149c.05 0 .097 0 .145-.02a.601.601 0 0 0 .444-.724.604.604 0 0 0-.723-.443.603.603 0 0 0-.453.723h.01c.056.28.308.464.577.464zm-206.887.25c.27 0 .521-.184.59-.463a.605.605 0 1 0-.735.454.79.79 0 0 0 .145.009zm207.813 6.771a.61.61 0 0 0 .599.503c.029 0 .067 0 .097-.01a.601.601 0 1 0-.194-1.187.617.617 0 0 0-.502.694zm-209.308.763a.6.6 0 0 0 .589-.502v-.009a.595.595 0 0 0-.503-.685.586.586 0 0 0-.684.492.595.595 0 0 0 .491.694.39.39 0 0 0 .107.01zm210.273 6.811c.029.308.3.55.61.55.017 0 .027-.011.047-.011a.598.598 0 0 0 .55-.655.604.604 0 0 0-.657-.54.605.605 0 0 0-.55.656zm-211.238.8a.608.608 0 0 0 .608-.55v.01a.607.607 0 0 0-.55-.656.597.597 0 0 0-.656.54.606.606 0 0 0 .55.656zm212.261 7.408h.019a.603.603 0 1 0-.019 0zm-212.666.261a.596.596 0 0 0 .608-.589.603.603 0 0 0-1.206-.029c0 .339.26.608.598.618zm212.55 7.418a.602.602 0 0 0 .598-.569.606.606 0 0 0-.569-.637.61.61 0 0 0-.636.569.605.605 0 0 0 .578.637zm-213.003-.309c.02.318.289.57.608.57h.028a.611.611 0 0 0 .57-.637.61.61 0 0 0-.637-.569.597.597 0 0 0-.569.636zm212.26 7.949c.02 0 .05.009.068.009a.603.603 0 0 0 .598-.53.595.595 0 0 0-.52-.675.612.612 0 0 0-.676.52.607.607 0 0 0 .53.676zm-210.968.261h.078a.609.609 0 0 0 .521-.676.614.614 0 0 0-.676-.521.596.596 0 0 0-.521.676.603.603 0 0 0 .598.521zm209.705 7.312c.038.009.077.009.116.009.28 0 .53-.193.588-.482a.606.606 0 0 0-.473-.714.604.604 0 0 0-.704.482v-.009a.606.606 0 0 0 .473.714zm-209.058-.213c.057.28.308.482.587.482a.51.51 0 0 0 .116-.018.592.592 0 0 0 .473-.705.599.599 0 0 0-.703-.472.603.603 0 0 0-.473.713zm207.408 7.698c.26 0 .512-.183.58-.443a.602.602 0 0 0-.416-.744.598.598 0 0 0-.742.425.591.591 0 0 0 .424.733.42.42 0 0 0 .154.029zm-205.035.251c.048 0 .105-.009.164-.019a.61.61 0 0 0 .414-.743.6.6 0 1 0-1.158.318.589.589 0 0 0 .58.444zm202.527 7.032a.502.502 0 0 0 .203.039.6.6 0 0 0 .57-.405.601.601 0 0 0-.367-.772.62.62 0 0 0-.773.367.614.614 0 0 0 .367.771zm-200.782-.116a.623.623 0 0 0 .772.367.603.603 0 0 0 .367-.772.594.594 0 0 0-.772-.366.61.61 0 0 0-.367.771zm198.149 7.294a.59.59 0 0 0 .56-.357.606.606 0 0 0-1.11-.483.607.607 0 0 0 .308.791.579.579 0 0 0 .242.049zm-194.734.23a.516.516 0 0 0 .241-.057c.309-.135.444-.492.309-.791a.596.596 0 0 0-.791-.308c-.308.134-.444.491-.308.79a.59.59 0 0 0 .549.366zm191.396 6.695a.59.59 0 0 0 .53-.327.595.595 0 0 0-.25-.81.593.593 0 0 0-.81.25.609.609 0 0 0 .25.82.715.715 0 0 0 .28.067zm-188.569-.115a.59.59 0 0 0 .531.318.58.58 0 0 0 .28-.077.603.603 0 1 0-.81-.241zm184.412 6.675a.575.575 0 0 0 .318.097.619.619 0 0 0 .52-.29h-.009a.595.595 0 0 0-.183-.829.605.605 0 0 0-.83.192.595.595 0 0 0 .184.83zm-180.553 0c.115.184.308.28.51.28a.59.59 0 0 0 .328-.096.594.594 0 0 0 .184-.83.606.606 0 0 0-.83-.193.616.616 0 0 0-.192.839zm176.221 6.338a.596.596 0 0 0 .84-.136v.011a.614.614 0 0 0-.136-.849.6.6 0 1 0-.704.974zm-171.398.289a.597.597 0 0 0 .356-.116.614.614 0 0 0 .136-.849v.01a.615.615 0 0 0-.849-.135.611.611 0 0 0-.125.84c.115.164.298.25.482.25zm166.604 5.72a.603.603 0 0 0 .85-.067h.008a.6.6 0 0 0-.077-.849.59.59 0 0 0-.849.067.607.607 0 0 0 .068.849zm-161.839.3a.58.58 0 0 0 .386-.145.598.598 0 0 0 .067-.849.607.607 0 0 0-.849-.068.608.608 0 0 0-.067.849.6.6 0 0 0 .463.213zm157.488 5.334a.597.597 0 0 0 0-.849.608.608 0 0 0-.858.01.605.605 0 0 0 .01.849.597.597 0 0 0 .848-.01zm0 0v.01l.01-.01zm-152.308.338a.62.62 0 0 0 .425-.174.619.619 0 0 0 0-.859.607.607 0 0 0-.85-.009.608.608 0 0 0 .425 1.042zm145.864 4.939c.126.135.29.202.453.202.146 0 .29-.048.406-.154a.6.6 0 1 0-.801-.897.598.598 0 0 0-.058.849zm-140.693.183a.59.59 0 0 0 .405.154.619.619 0 0 0 .453-.202.608.608 0 0 0-.057-.849.599.599 0 0 0-.85.048.598.598 0 0 0 .049.849zm134.742 4.659a.606.606 0 0 0 .482.241c.125 0 .25-.048.366-.125a.61.61 0 0 0 .107-.849.593.593 0 0 0-.84-.116.602.602 0 0 0-.115.849zm-128.762.241a.556.556 0 0 0 .357.125.604.604 0 0 0 .482-.241.588.588 0 0 0-.116-.839v-.009a.597.597 0 0 0-.838.115.602.602 0 0 0 .115.849zm122.983 4.428a.596.596 0 0 0 .502-.926.604.604 0 0 0-1.013.656c.115.183.309.27.511.27zm-116.674.029a.594.594 0 0 0 .83-.183.597.597 0 0 0-.174-.83.606.606 0 0 0-.839.173.618.618 0 0 0 .183.84zm109.584 3.647a.595.595 0 0 0 .521.308.603.603 0 0 0 .53-.897.605.605 0 0 0-.819-.241.611.611 0 0 0-.232.83zm-102.966.337a.618.618 0 0 0 .29.077.622.622 0 0 0 .529-.309.61.61 0 0 0-.24-.819.603.603 0 0 0-.589 1.051h.01zm96.657 3.453a.598.598 0 0 0 .55-.849.605.605 0 0 0-.8-.298.595.595 0 0 0-.29.801.588.588 0 0 0 .54.346zm-89.77.048a.558.558 0 0 0 .251.059.62.62 0 0 0 .55-.348.6.6 0 0 0-.299-.801.603.603 0 0 0-.8.29.607.607 0 0 0 .298.8zm82.14 2.557a.614.614 0 0 0 .781.348.607.607 0 0 0 .348-.782.606.606 0 0 0-.78-.347h.008a.603.603 0 0 0-.357.781zm-75.02.434a.598.598 0 0 0 .221.039.593.593 0 0 0 .56-.386.602.602 0 1 0-1.129-.424.6.6 0 0 0 .347.771zm68.315 2.412c.06 0 .116 0 .174-.02a.606.606 0 0 0 .406-.752.607.607 0 0 0-.753-.406.606.606 0 0 0-.405.753.607.607 0 0 0 .578.425zm-60.82.077c.26 0 .501-.174.578-.434a.598.598 0 0 0-.405-.743.601.601 0 0 0-.752.405.595.595 0 0 0 .405.743v.009c.058.01.116.02.174.02zm52.805 1.389a.607.607 0 0 0 .588.473c.048 0 .087-.01.135-.019a.596.596 0 0 0 .453-.714.604.604 0 0 0-.714-.464.613.613 0 0 0-.462.724zm-45.503.511c.048.01.087.01.135.01.27 0 .521-.193.589-.473a.598.598 0 0 0-.464-.713.612.612 0 0 0-.723.462.603.603 0 0 0 .463.714zm37.949.83a.595.595 0 0 0 .599.511h.086a.6.6 0 0 0 .501-.685.6.6 0 1 0-1.186.174zm-30.261.549a.6.6 0 1 0-.598-.684.6.6 0 0 0 .512.684zm22.621.252a.61.61 0 0 0 .608.559c.01 0 .03 0 .039-.01a.599.599 0 1 0-.087-1.196.6.6 0 0 0-.56.647zm-15.038.569c.02 0 .028.009.038.009.318 0 .588-.25.608-.569a.589.589 0 0 0-.56-.636.601.601 0 0 0-.646.55.605.605 0 0 0 .56.646zm7.717.28a.594.594 0 0 0 .125-.02c.04.009.087.02.126.02a.619.619 0 0 0 .607-.608.59.59 0 0 0-.607-.598c-.048 0-.087 0-.126.009-.049-.009-.086-.009-.125-.009a.603.603 0 1 0 0 1.206z"/></g></g><g><g><path fill="#49d6cb" d="M115.392 18.693a.716.716 0 0 0 .723-.724.721.721 0 0 0-.723-.723.732.732 0 0 0-.724.733c0 .395.33.714.724.714zm7.659.289a.725.725 0 0 0 .724-.665.738.738 0 0 0-.666-.782.727.727 0 0 0-.115 1.447zm-16.032-.646a.726.726 0 0 0 .723.666h.059a.718.718 0 0 0 .655-.782.72.72 0 1 0-1.437.116zm23.643 1.524a.723.723 0 0 0 .714-.608.734.734 0 0 0-.607-.83.721.721 0 0 0-.82.609.72.72 0 0 0 .597.829zm-30.53.038c.038 0 .077 0 .116-.009a.708.708 0 0 0 .598-.82.731.731 0 0 0-.83-.608.722.722 0 1 0 .116 1.437zm37.881 1.429c.058.009.106.018.164.018a.73.73 0 0 0 .164-1.437.732.732 0 0 0-.868.541.735.735 0 0 0 .54.878zm-45.396.066c.057 0 .116 0 .173-.018a.714.714 0 0 0 .531-.869.725.725 0 0 0-.868-.54v.01a.72.72 0 0 0-.541.868.73.73 0 0 0 .705.549zm52.717 1.979a.623.623 0 0 0 .223.038.727.727 0 0 0 .221-1.418.721.721 0 0 0-.906.472.716.716 0 0 0 .462.908zm-60.772-.386a.725.725 0 0 0 .685.501c.077 0 .145-.019.222-.038a.719.719 0 0 0 .462-.917.72.72 0 1 0-1.369.454zm67.921 3.009a.67.67 0 0 0 .27.058.72.72 0 0 0 .666-.453.723.723 0 0 0-.386-.945v.009a.724.724 0 0 0-.946.386.724.724 0 0 0 .386.945zm-75.088-.299c.115.28.386.443.675.443a.723.723 0 1 0-.28-1.388.729.729 0 0 0-.395.945zm81.995 3.482a.727.727 0 0 0 .974-.318.724.724 0 0 0-.319-.974.709.709 0 0 0-.964.318.72.72 0 0 0 .309.974zm-88.266.174a.675.675 0 0 0 .328-.077.728.728 0 0 0 .31-.974.719.719 0 0 0-.975-.309v-.01a.723.723 0 0 0-.309.975.714.714 0 0 0 .646.395zm94.912 3.54a.657.657 0 0 0 .377.106.707.707 0 0 0 .617-.347.722.722 0 1 0-1.235-.752.715.715 0 0 0 .241.993zm-102.204-.125a.707.707 0 0 0 .617.338.72.72 0 0 0 .608-1.1.731.731 0 0 0-.994-.242.731.731 0 0 0-.231 1.004zm108.956 4.486a.713.713 0 0 0 .59-.299.738.738 0 0 0-.165-1.014v.011a.723.723 0 0 0-1.013.153.728.728 0 0 0 .164 1.014.68.68 0 0 0 .424.135zm-114.705.125a.704.704 0 0 0 .424-.145.714.714 0 0 0 .164-1.002.727.727 0 0 0-1.013-.165.724.724 0 0 0 .425 1.312zm120.725 4.621a.716.716 0 0 0 .55-.26.713.713 0 0 0-.087-1.014h.01a.73.73 0 0 0-1.022.077.73.73 0 0 0 .076 1.023.736.736 0 0 0 .473.174zm-127.286-.126a.74.74 0 0 0 .551.251.755.755 0 0 0 .473-.173.733.733 0 0 0 .077-1.024.732.732 0 0 0-1.023-.077.731.731 0 0 0-.078 1.023zm132.919 5.315a.715.715 0 0 0 .512-.212.728.728 0 0 0 0-1.023.729.729 0 0 0-1.022 0 .74.74 0 0 0 0 1.033.743.743 0 0 0 .51.202zm-137.992.145a.683.683 0 0 0 .511-.212.712.712 0 0 0 0-1.023.73.73 0 0 0-1.023 0 .728.728 0 0 0 0 1.023.717.717 0 0 0 .512.212zm143.202 5.479a.722.722 0 0 0 .55-1.196.73.73 0 0 0-1.023-.077.73.73 0 0 0-.077 1.023c.145.164.347.25.55.25zm-148.401.155a.71.71 0 0 0 .549-.261.729.729 0 0 0-.077-1.022.73.73 0 0 0-1.023.086c-.26.3-.22.763.087 1.023.136.115.3.174.464.174zm153.156 5.845c.145 0 .3-.038.425-.135a.713.713 0 0 0 .154-1.012h.01a.734.734 0 0 0-1.013-.155.725.725 0 0 0-.164 1.013.73.73 0 0 0 .588.289zm-158.318.029a.674.674 0 0 0 .416.135.727.727 0 0 0 .587-.289.732.732 0 0 0-.153-1.013.732.732 0 0 0-1.014.155v.009a.706.706 0 0 0 .164 1.003zm161.974 5.991a.717.717 0 0 0 .994.241.722.722 0 0 0 .232-.994.72.72 0 0 0-1.226.753zm-165.813.521a.726.726 0 0 0 .617-.348.731.731 0 0 0-.241-.993.73.73 0 0 0-.993.241.714.714 0 0 0 .241.993.65.65 0 0 0 .376.107zm170.183 6.492a.725.725 0 0 0 .647-1.052.72.72 0 0 0-.975-.308.722.722 0 0 0-.318.974.726.726 0 0 0 .646.386zm-173.935.192c.27 0 .52-.144.646-.385a.718.718 0 0 0-.318-.974.729.729 0 0 0-.975.308c-.173.357-.039.801.318.974a.675.675 0 0 0 .329.077zm176.492 6.309c.115.28.385.454.665.454a.723.723 0 0 0 .666-1.003.72.72 0 1 0-1.33.549zm-179.975.608a.679.679 0 0 0 .28.049c.28 0 .55-.164.665-.444a.728.728 0 0 0-.394-.946.72.72 0 0 0-.946.396.727.727 0 0 0 .395.945zm183.302 7.023a.808.808 0 0 0 .223-.039.719.719 0 0 0 .462-.916.72.72 0 1 0-1.37.454.713.713 0 0 0 .685.501zm-185.897.193a.838.838 0 0 0 .222.029.725.725 0 0 0 .685-.493.725.725 0 0 0-.463-.915.716.716 0 0 0-.906.462.72.72 0 0 0 .462.917zM210.4 93.347c.058 0 .116-.01.174-.019a.743.743 0 0 0 .54-.878h-.009a.72.72 0 0 0-1.399.338.717.717 0 0 0 .694.559zm-189.833.231a.722.722 0 0 0 .705-.549v-.011a.718.718 0 0 0-.53-.867.73.73 0 0 0-.879.54.729.729 0 0 0 .704.887zm191.338 7.274h.116a.721.721 0 0 0 .598-.829.733.733 0 0 0-.829-.608.72.72 0 0 0-.599.829.724.724 0 0 0 .714.608zm-192.813.241a.723.723 0 0 0 .713-.608.734.734 0 0 0-.608-.829.719.719 0 0 0-.819.608.71.71 0 0 0 .598.819c.039.01.077.01.116.01zm192.996 6.704a.726.726 0 0 0 .724.666h.058a.718.718 0 0 0 .656-.782.722.722 0 0 0-.772-.665.724.724 0 0 0-.666.781zm-193.884.907a.725.725 0 1 0-.724-.781.726.726 0 0 0 .666.781zm194.917 7.418a.722.722 0 1 0-.724-.723c0 .395.328.723.724.723zm-195.207.241a.723.723 0 1 0 0-1.447.717.717 0 0 0-.723.724c0 .395.318.723.723.723zm194.927 7.409c.376 0 .685-.29.714-.666a.709.709 0 0 0-.666-.771.71.71 0 0 0-.772.665.724.724 0 0 0 .665.772zm-195.351-.425a.726.726 0 0 0 .724.666h.057a.722.722 0 0 0 .666-.772.723.723 0 0 0-.781-.665.721.721 0 0 0-.666.771zm194.357 8.027a.725.725 0 0 0 .83-.599.736.736 0 0 0-.608-.83.726.726 0 0 0-.82.608.708.708 0 0 0 .598.821zm-192.736.25c.038 0 .068 0 .106-.009a.732.732 0 0 0 .608-.83.728.728 0 0 0-.83-.598.716.716 0 0 0-.598.83.723.723 0 0 0 .714.607zm191.376 7.283a.73.73 0 0 0 .704-.56.714.714 0 0 0-.53-.867.723.723 0 0 0-.878.53.738.738 0 0 0 .54.878c.058.01.116.019.164.019zm-189.891.232c.058 0 .116-.01.174-.02a.718.718 0 0 0 .53-.868.72.72 0 0 0-.868-.54.738.738 0 0 0-.54.878.73.73 0 0 0 .704.55zm187.827 7.148a.728.728 0 0 0 .222-1.419.728.728 0 0 0-.907.473.72.72 0 0 0 .473.907.545.545 0 0 0 .212.039zm-186.428-.27a.715.715 0 0 0 .685.491.838.838 0 0 0 .221-.029.727.727 0 0 0 .464-.916.722.722 0 1 0-1.37.454zm183.515 7.408a.72.72 0 0 0 .945-.385.714.714 0 0 0-.396-.946.72.72 0 0 0-.945.395v-.009a.728.728 0 0 0 .396.945zm-180.843-.183c.116.28.386.453.666.453a.69.69 0 0 0 .27-.057.721.721 0 0 0 .395-.946.736.736 0 0 0-.945-.396.724.724 0 0 0-.386.946zm177.592 7.128a.665.665 0 0 0 .328.078c.26 0 .511-.145.646-.396a.71.71 0 0 0-.318-.965.72.72 0 1 0-.656 1.283zm-174.36-.125a.725.725 0 0 0 .974.318.731.731 0 0 0 .318-.974.731.731 0 0 0-.974-.318.725.725 0 0 0-.318.974zm170.945 6.898a.715.715 0 0 0 .617-.348.72.72 0 0 0-.232-.994.734.734 0 0 0-1.003.241.731.731 0 0 0 .241.994.767.767 0 0 0 .377.107zm-166.547.173a.718.718 0 0 0 .608-1.099.717.717 0 0 0-.994-.232.716.716 0 0 0-.231.993.707.707 0 0 0 .617.338zm162.302 6.202a.707.707 0 0 0 .579-.298.725.725 0 0 0-.154-1.013.734.734 0 0 0-1.014.164.726.726 0 0 0 .165 1.013c.126.096.27.134.424.134zm-158.038.164a.72.72 0 0 0 .425-.134.723.723 0 0 0 .154-1.013.722.722 0 0 0-1.167.849.688.688 0 0 0 .588.298zm153.302 5.866a.737.737 0 0 0 .55-.251.73.73 0 0 0-1.11-.946.723.723 0 0 0 .087 1.023.715.715 0 0 0 .473.174zm-149.105-.106c.135.173.337.26.549.26a.67.67 0 0 0 .464-.184.718.718 0 1 0-.937-1.09.721.721 0 0 0-.087 1.014h.011zm143.906 5.739a.701.701 0 0 0 .511-.212.719.719 0 0 0 0-1.022.728.728 0 0 0-1.023 0 .727.727 0 0 0 0 1.022.715.715 0 0 0 .512.212zm-138.668-.067a.736.736 0 0 0 .511.212.756.756 0 0 0 .511-.212.73.73 0 0 0 0-1.023.71.71 0 0 0-1.022 0 .728.728 0 0 0 0 1.023zm133.053 5.286a.68.68 0 0 0 .473-.183.72.72 0 0 0 .077-1.014.71.71 0 0 0-1.013-.076h-.01a.728.728 0 0 0-.076 1.022.732.732 0 0 0 .55.251zm-127.391-.048a.75.75 0 0 0 .473.173.734.734 0 0 0 .55-.25.729.729 0 0 0-.078-1.023.728.728 0 0 0-1.022.078.728.728 0 0 0 .077 1.022zm121.391 4.804a.717.717 0 0 0 .579-1.148.705.705 0 0 0-1.004-.155.717.717 0 0 0-.164 1.004.741.741 0 0 0 .59.299zm-114.899.115a.715.715 0 0 0 .589-.299.716.716 0 0 0-.164-1.003.725.725 0 0 0-1.013.155.726.726 0 0 0 .164 1.012.675.675 0 0 0 .424.135zm107.924 3.811a.73.73 0 0 0 .618.347.76.76 0 0 0 .376-.106.74.74 0 0 0 .241-1.003.732.732 0 0 0-1.003-.232.722.722 0 0 0-.232.994zm-101.934.347a.674.674 0 0 0 .377.106.715.715 0 0 0 .617-.338.73.73 0 0 0-.232-1.003.743.743 0 0 0-1.003.241.733.733 0 0 0 .241.994zm95.231 3.367a.734.734 0 0 0 .983.318.73.73 0 0 0 .309-.974.723.723 0 0 0-.974-.319.732.732 0 0 0-.318.975zm-88.169.492a.727.727 0 0 0 .337-1.37.72.72 0 0 0-.974.319.72.72 0 0 0 .309.974.686.686 0 0 0 .328.077zm81.203 2.682c.116.28.387.444.676.444.086 0 .183-.02.27-.059a.72.72 0 0 0 .396-.945.725.725 0 0 0-.946-.386.72.72 0 0 0-.396.946zm-74.519.482a.986.986 0 0 0 .28.048.723.723 0 0 0 .28-1.389.716.716 0 0 0-.945.395.724.724 0 0 0 .385.946zm67.323 2.132a.734.734 0 0 0 .695.501.729.729 0 0 0 .685-.955.737.737 0 0 0-.916-.463.74.74 0 0 0-.464.917zm-59.847.569a.711.711 0 0 0 .685-.502.72.72 0 0 0-1.369-.444.72.72 0 0 0 .463.917.826.826 0 0 0 .221.029zm53.172 2.025a.822.822 0 0 0 .164-.019v-.01a.72.72 0 0 0 .54-.867.728.728 0 0 0-.877-.531.713.713 0 0 0-.531.868.719.719 0 0 0 .704.559zm-45.965.03a.535.535 0 0 0 .164.018.722.722 0 0 0 .704-.549.714.714 0 0 0-.53-.868.73.73 0 0 0-.879.53.73.73 0 0 0 .541.869zm38.45 1.476c.039 0 .077-.011.116-.011a.719.719 0 0 0 .598-.829.721.721 0 0 0-.83-.598v-.009a.721.721 0 0 0-.598.829.727.727 0 0 0 .714.618zm-30.762.038a.733.733 0 0 0 .714-.618.736.736 0 0 0-.608-.829.736.736 0 0 0-.83.608.733.733 0 0 0 .608.829c.039 0 .077.01.116.01zm22.437.203c.03.376.348.665.714.665h.058a.725.725 0 1 0-.116-1.447.713.713 0 0 0-.656.782zm-14.893.674c.028.011.048.011.067.011a.724.724 0 0 0 .048-1.447.721.721 0 0 0-.772.665.72.72 0 0 0 .666.782zm7.958.3a.724.724 0 0 0 .724-.724.73.73 0 0 0-.724-.723.477.477 0 0 0-.126.019c-.039-.01-.076-.01-.115-.01a.717.717 0 0 0-.724.724c0 .395.318.714.724.714.04 0 .076 0 .115-.009.05.009.088.009.126.009z"/></g></g><g><g><path fill="#49d6cb" d="M119.202 27.645v-.01a.84.84 0 1 0 .068-1.678v-.01a.849.849 0 0 0-.878.81.858.858 0 0 0 .81.888zm-8.45-.801a.833.833 0 0 0 .84.801h.038a.842.842 0 0 0 .801-.878.836.836 0 0 0-.878-.801.823.823 0 0 0-.8.878zm15.994 1.428c.039.01.068.01.107.01a.858.858 0 0 0 .838-.744.845.845 0 1 0-.945.734zm-23.605-.704a.852.852 0 0 0 .84.742c.038 0 .067-.009.105-.009a.85.85 0 0 0 .733-.945.857.857 0 0 0-.945-.734h-.009a.84.84 0 0 0-.724.946zm31.061 1.986a.843.843 0 0 0 1.004-.646.828.828 0 0 0-.647-1.003.837.837 0 0 0-1.003.646.838.838 0 0 0 .646.994v.009zm-38.586-.607a.856.856 0 0 0 .83.666c.06 0 .126 0 .184-.02a.847.847 0 0 0 .646-1.003.858.858 0 0 0-1.012-.647.85.85 0 0 0-.648 1.004zm46.159 2.556a.848.848 0 0 0 .811-.588.859.859 0 0 0-.56-1.061.843.843 0 0 0-1.051.559.85.85 0 0 0 .56 1.061h-.01c.086.02.173.029.25.029zm-52.718.068c.087 0 .164-.01.251-.038a.858.858 0 0 0 .56-1.062.844.844 0 0 0-1.062-.549.831.831 0 0 0-.55 1.051.835.835 0 0 0 .801.598zm59.606 2.451a.936.936 0 0 0 .318.057.841.841 0 0 0 .318-1.62.832.832 0 0 0-1.099.462.849.849 0 0 0 .463 1.101zm-67.574-.387a.823.823 0 0 0 .772.521c.116 0 .222-.02.328-.068a.837.837 0 0 0 .454-1.099.838.838 0 0 0-1.1-.453.838.838 0 0 0-.454 1.099zm74.462 3.54a.859.859 0 0 0 1.138-.366.847.847 0 0 0-1.506-.772.846.846 0 0 0 .368 1.138zm-81.378-.279a.847.847 0 0 0 .753.453c.134 0 .26-.029.385-.087a.845.845 0 1 0-1.138-.366zm88.41 4.147a.843.843 0 0 0 .713-.395.838.838 0 0 0-.26-1.167.846.846 0 0 0-1.167.27.835.835 0 0 0 .27 1.158.839.839 0 0 0 .444.134zm-94.294.097a.871.871 0 0 0 .453-.125.852.852 0 0 0 .26-1.167.843.843 0 0 0-1.167-.261v-.009a.843.843 0 0 0-.26 1.167c.154.26.434.395.714.395zm100.091 4.062a.827.827 0 0 0 .502.163.848.848 0 0 0 .675-.327.846.846 0 0 0-.164-1.187.841.841 0 0 0-1.176.164.836.836 0 0 0 .163 1.187zM62 45.481a.842.842 0 1 0-.512-1.514.844.844 0 0 0 .512 1.514zm112.227 4.524a.86.86 0 0 0 .569.222.821.821 0 0 0 .627-.289.84.84 0 1 0-1.254-1.119.83.83 0 0 0 .058 1.186zm-118.121.338a.845.845 0 0 0 .627-1.408.85.85 0 0 0-1.196-.058.83.83 0 0 0-.058 1.186c.164.193.385.28.627.28zm124.159 5.218a.85.85 0 0 0 .58-.231.831.831 0 0 0 .029-1.187h.009a.85.85 0 0 0-1.196-.038.851.851 0 0 0-.039 1.196c.164.174.396.26.617.26zm-129.619.136a.867.867 0 0 0 .617-.261.85.85 0 0 0-.038-1.196.842.842 0 0 0-1.197.039.851.851 0 0 0 .039 1.196.869.869 0 0 0 .579.222zm133.951 5.335a.835.835 0 0 0 .666.317.817.817 0 0 0 .521-.183.832.832 0 0 0 .134-1.176.843.843 0 0 0-1.186-.145.844.844 0 0 0-.135 1.187zm-139.459.289a.864.864 0 0 0 1.186-.145.842.842 0 0 0-.145-1.186.832.832 0 0 0-1.176.144.844.844 0 0 0 .135 1.187zm143.897 5.845a.857.857 0 0 0 .703.377.83.83 0 0 0 .464-.136.852.852 0 0 0 .241-1.167.834.834 0 0 0-1.167-.241.831.831 0 0 0-.24 1.167zm-148.305.396a.82.82 0 0 0 .462.145.846.846 0 0 0 .705-.386.834.834 0 0 0-.24-1.168.841.841 0 0 0-1.169.242.84.84 0 0 0 .242 1.167zm152.935 6.54a.84.84 0 0 0 .405-.106.842.842 0 0 0 .337-1.148.847.847 0 0 0-1.485.811.852.852 0 0 0 .743.443zm-156.794.067c.135.068.27.097.405.097a.842.842 0 0 0 .405-1.582.842.842 0 0 0-1.148.338.85.85 0 0 0 .338 1.147zm159.37 6.29a.86.86 0 0 0 .78.512.844.844 0 0 0 .338-.078.847.847 0 0 0 .435-1.109.848.848 0 0 0-1.11-.434.837.837 0 0 0-.434 1.109zm-162.64.617a.824.824 0 0 0 .337.068.84.84 0 0 0 .338-1.611.845.845 0 0 0-1.119.435.85.85 0 0 0 .443 1.108zm166.16 7.023a.833.833 0 0 0 .27-.048.844.844 0 1 0-.27.048zm-168.823.155c.087.019.174.038.261.038a.857.857 0 0 0 .81-.579.854.854 0 0 0-.541-1.07.838.838 0 0 0-1.06.54.84.84 0 0 0 .53 1.071zm170.945 7.187a.744.744 0 0 0 .203-.03.836.836 0 0 0 .618-1.012.857.857 0 0 0-1.023-.628.857.857 0 0 0-.617 1.023.852.852 0 0 0 .819.647zm-172.98.173a.743.743 0 0 0 .203.029.852.852 0 0 0 .819-.646.85.85 0 0 0-.627-1.023.842.842 0 0 0-1.013.627.829.829 0 0 0 .618 1.013zm174.456 7.321c.039 0 .087 0 .126-.009a.832.832 0 0 0 .704-.955.841.841 0 0 0-.955-.714.854.854 0 0 0-.714.964.85.85 0 0 0 .839.714zm-175.72.212a.84.84 0 0 0 .839-.723.854.854 0 0 0-.703-.965.85.85 0 0 0-.965.714.854.854 0 0 0 .713.965c.039 0 .077.009.116.009zm175.701 6.599a.85.85 0 0 0 .839.791h.058a.858.858 0 0 0 .792-.897.852.852 0 0 0-.898-.792.851.851 0 0 0-.791.898zm-176.502.993c.444 0 .81-.337.84-.781v-.009a.841.841 0 0 0-.792-.888.833.833 0 0 0-.887.781.835.835 0 0 0 .782.897zm177.525 7.438c.453 0 .83-.367.84-.83v.01a.853.853 0 0 0-.831-.869.848.848 0 0 0-.858.83.848.848 0 0 0 .829.859zm-177.679.212h.01a.85.85 0 0 0 .829-.868.833.833 0 0 0-.858-.82.842.842 0 0 0-.83.859c.01.462.386.829.85.829zm177.206 7.418a.829.829 0 0 0 .83-.753h.009a.834.834 0 0 0-.753-.926.84.84 0 0 0-.935.744.858.858 0 0 0 .753.935zm-177.562-.55a.845.845 0 0 0 .838.753h.097a.834.834 0 0 0 .743-.936.838.838 0 0 0-.927-.743.83.83 0 0 0-.742.926zm176.433 8.113a.848.848 0 0 0 .164-1.678.844.844 0 1 0-.318 1.659.9.9 0 0 0 .154.019zm-174.446.202c.057 0 .106-.009.163-.019a.846.846 0 0 0 .666-.993.856.856 0 0 0-.993-.665.85.85 0 0 0-.666.992.845.845 0 0 0 .83.685zm172.44 7.196a.844.844 0 0 0 1.041-.578.83.83 0 0 0-.578-1.042.83.83 0 0 0-1.042.579.847.847 0 0 0 .579 1.041zm-171.466-.375a.844.844 0 0 0 .81.607c.077 0 .154-.009.241-.029a.857.857 0 0 0 .579-1.051h-.009a.845.845 0 0 0-1.042-.579.859.859 0 0 0-.579 1.052zm169.286 7.659a.842.842 0 0 0 .298-1.63.854.854 0 0 0-1.09.491h.011a.839.839 0 0 0 .482 1.09.802.802 0 0 0 .299.049zm-166.045.193c.096 0 .203-.019.299-.049a.856.856 0 0 0 .492-1.09.845.845 0 0 0-1.09-.491.841.841 0 0 0 .3 1.63zm162.65 6.752a.808.808 0 0 0 .366.077.84.84 0 0 0 .366-1.601.834.834 0 0 0-1.119.396h-.009a.851.851 0 0 0 .395 1.128zm-160.364-.212a.836.836 0 0 0 1.129.386.847.847 0 0 0 .385-1.128.836.836 0 0 0-1.128-.386.846.846 0 0 0-.386 1.128zm157.102 7.023a.838.838 0 0 0 .435-1.563.848.848 0 0 0-1.158.289.85.85 0 0 0 .299 1.158c.135.077.28.116.424.116zm-152.703.173a.776.776 0 0 0 .425-.125.848.848 0 0 0 .298-1.158.857.857 0 0 0-1.167-.289.845.845 0 0 0-.289 1.158c.164.26.444.414.733.414zm148.517 6.222a.83.83 0 0 0 .685-.347.847.847 0 0 0-.193-1.177.847.847 0 0 0-1.177.193.847.847 0 0 0 .193 1.177.85.85 0 0 0 .492.154zm-144.32.155a.82.82 0 0 0 .491-.155.847.847 0 0 0 .193-1.176.83.83 0 0 0-1.177-.193.845.845 0 0 0-.192 1.176.832.832 0 0 0 .685.348zm139.053 5.663a.83.83 0 0 0 .55.202.849.849 0 0 0 .55-1.485.842.842 0 0 0-1.196.086.853.853 0 0 0 .096 1.197zm-134.954.048a.823.823 0 0 0 .636.289.844.844 0 0 0 .55-.203.831.831 0 0 0 .087-1.186.832.832 0 0 0-1.186-.087.832.832 0 0 0-.087 1.187zm130.285 5.739a.865.865 0 0 0 .589-.241.85.85 0 0 0 .01-1.196.842.842 0 0 0-1.197-.009.838.838 0 0 0-.009 1.186c.163.174.385.26.607.26zm-124.42.126a.842.842 0 0 0 .608-.251.848.848 0 0 0-.02-1.196.841.841 0 0 0-1.196.019.84.84 0 0 0 .02 1.187.828.828 0 0 0 .588.241zm118.74 4.996a.82.82 0 0 0 .539-.202.843.843 0 1 0-1.187-.107.832.832 0 0 0 .647.309zm-113.049.116a.832.832 0 0 0 .647-.309.833.833 0 0 0-.116-1.186.834.834 0 0 0-1.186.116.85.85 0 0 0 .116 1.186.879.879 0 0 0 .539.193zm106.257 4.129a.855.855 0 0 0 1.176.222.841.841 0 0 0 .212-1.177.84.84 0 0 0-1.167-.222.851.851 0 0 0-.22 1.177zm-100.633.328a.855.855 0 0 0 1.177-.222.84.84 0 0 0-.22-1.168.843.843 0 0 0-1.179.213.852.852 0 0 0 .222 1.177zm94.864 4.109a.84.84 0 0 0 .424-.106.855.855 0 0 0 .308-1.157.844.844 0 0 0-1.147-.309.84.84 0 0 0 .415 1.572zm-87.909.097c.29 0 .58-.154.733-.425a.838.838 0 0 0-.318-1.148.834.834 0 0 0-1.148.318.845.845 0 0 0 .32 1.149.804.804 0 0 0 .413.106zM152 196.631a.824.824 0 0 0 .762.483.78.78 0 0 0 .357-.078.843.843 0 0 0 .415-1.119.858.858 0 0 0-1.129-.414v.009a.84.84 0 0 0-.405 1.119zm-73.554.569a.844.844 0 1 0-.347-.077.739.739 0 0 0 .347.077zm66.455 2.268a.854.854 0 0 0 1.08.501.84.84 0 1 0-.569-1.582.842.842 0 0 0-.51 1.081zm-59.654.569a.776.776 0 0 0 .279.057.861.861 0 0 0 .801-.559.848.848 0 0 0-.511-1.08.841.841 0 0 0-1.08.511.847.847 0 0 0 .511 1.08v-.009zm52.342 1.64a.832.832 0 0 0 .81.626.849.849 0 0 0 .82-1.06.84.84 0 0 0-1.032-.599.834.834 0 0 0-.598 1.033zm-44.972.656c.067.019.144.019.212.019a.846.846 0 0 0 .82-.627.851.851 0 0 0-.608-1.032.84.84 0 0 0-1.022.607.844.844 0 0 0 .598 1.033zm38.316 1.611c.048 0 .096 0 .154-.01a.86.86 0 0 0 .685-.984.859.859 0 0 0-.985-.685.859.859 0 0 0-.684.984.855.855 0 0 0 .83.695zm-30.773.029a.855.855 0 0 0 .975-.695.85.85 0 0 0-.695-.975.849.849 0 0 0-.974.696.853.853 0 0 0 .694.974zm23.2.964h.078a.85.85 0 0 0 .762-.916.853.853 0 0 0-.917-.772.849.849 0 0 0-.762.917.84.84 0 0 0 .84.771zm-15.483.019a.84.84 0 0 0 .84-.771.837.837 0 0 0-.763-.917.85.85 0 0 0-.915.773.85.85 0 0 0 .771.915zm7.641.319h.212a.84.84 0 0 0 .839-.84.85.85 0 0 0-.848-.849c-.039 0-.078.011-.107.011h-.096v-.011a.858.858 0 0 0-.85.849c0 .464.386.84.85.84z"/></g></g><g><g><path fill="#49d6cb" d="M119.183 36.509a.957.957 0 0 0 .956-.915.965.965 0 0 0-.917-1.014.969.969 0 0 0-1.003.927.953.953 0 0 0 .916 1.002zm-7.514.011h.048a.957.957 0 0 0 .916-1.013.969.969 0 0 0-1.012-.917h.01a.976.976 0 0 0-.927 1.013.971.971 0 0 0 .965.917zm14.855.665a.966.966 0 0 0 1.091-.82.981.981 0 0 0-.82-1.09h-.01a.966.966 0 0 0-1.081.829.951.951 0 0 0 .82 1.081zm-22.33.038c.047 0 .095 0 .133-.009a.961.961 0 0 0 .821-1.09.956.956 0 0 0-1.09-.82.973.973 0 0 0-.82 1.09.963.963 0 0 0 .955.829zm29.614 1.331zm0 0c.077.02.153.03.23.03a.967.967 0 0 0 .223-1.91h-.01a.973.973 0 0 0-1.157.724c-.126.51.202 1.031.723 1.156zm-36.986.068a.854.854 0 0 0 .223-.029.956.956 0 0 0 .714-1.157.961.961 0 0 0-1.158-.714.976.976 0 0 0-.724 1.158.985.985 0 0 0 .945.742zm44.123 1.978a.844.844 0 0 0 .309.048.962.962 0 0 0 .31-1.871.962.962 0 0 0-1.226.598.956.956 0 0 0 .607 1.225zm-52.254-.54a.97.97 0 0 0 .916.656.92.92 0 0 0 .319-.058.963.963 0 1 0-.628-1.824.972.972 0 0 0-.607 1.226zm59.548 3.338a.98.98 0 0 0 .887-.569.962.962 0 0 0-.493-1.274.962.962 0 0 0-1.272.482.97.97 0 0 0 .878 1.361zm-66.494-.492a.968.968 0 0 0 1.283.482c.482-.222.695-.791.482-1.274-.221-.491-.79-.704-1.283-.491-.482.221-.694.79-.482 1.283zm72.715 3.761c.154.078.318.116.482.116a.97.97 0 0 0 .84-.482.975.975 0 0 0-.367-1.322.964.964 0 0 0-1.31.367.976.976 0 0 0 .365 1.321zm-79.36-.279a.957.957 0 0 0 .838.482c.164 0 .328-.039.473-.116a.978.978 0 0 0 .367-1.322.968.968 0 0 0-1.322-.356.952.952 0 0 0-.357 1.312zm85.641 4.225a.927.927 0 0 0 .549.174.978.978 0 0 0 .8-.415.97.97 0 0 0-.24-1.341.967.967 0 0 0-1.341.241.957.957 0 0 0 .232 1.341zm-91.942-.135a.977.977 0 0 0 1.351.241h-.009a.954.954 0 0 0 .241-1.34.954.954 0 0 0-1.341-.242.964.964 0 0 0-.242 1.341zm97.825 4.659a.966.966 0 0 0 1.361-.106.975.975 0 0 0-.116-1.361.958.958 0 0 0-1.36.116.953.953 0 0 0 .115 1.351zm-103.708.01a.97.97 0 0 0 .732.338.963.963 0 0 0 .733-1.592.952.952 0 0 0-1.35-.107h-.01a.964.964 0 0 0-.105 1.361zm109.834 5.334a.969.969 0 0 0 .675-.27.98.98 0 0 0 .01-1.37.96.96 0 0 0-1.36-.009.952.952 0 0 0-.02 1.36.983.983 0 0 0 .695.289zm-115.256-.145a.934.934 0 0 0 .666.271.961.961 0 0 0 .675-1.65.962.962 0 1 0-1.34 1.379zm119.5 5.393a.973.973 0 0 0 1.361.145.965.965 0 0 0 .134-1.361.96.96 0 0 0-1.349-.144.966.966 0 0 0-.146 1.36zm-123.822.492c.28 0 .56-.125.753-.357a.963.963 0 1 0-1.495-1.215.972.972 0 0 0 .134 1.359.974.974 0 0 0 .608.213zM181.403 71.7a.948.948 0 0 0 1.331.271.968.968 0 0 0 .271-1.342.965.965 0 0 0-1.342-.26.95.95 0 0 0-.26 1.331zm-133.198.415a.977.977 0 0 0 .53.164.967.967 0 1 0-.81-1.505v.01a.964.964 0 0 0 .28 1.331zm137.018 5.942a.952.952 0 0 0 1.302.396.973.973 0 0 0 .396-1.313.958.958 0 0 0-1.313-.385.964.964 0 0 0-.385 1.302zm-140.347.666a.964.964 0 0 0 .454-1.813.956.956 0 0 0-1.302.385.968.968 0 0 0 .848 1.428zm143.56 6.019a.962.962 0 0 0 1.263.511.956.956 0 0 0 .511-1.263.96.96 0 0 0-1.264-.511.958.958 0 0 0-.51 1.263zm-147.168.675a.968.968 0 0 0 1.265-.51.975.975 0 0 0-.52-1.265.975.975 0 0 0-1.266.521.962.962 0 0 0 .521 1.254zm150.65 6.955a.997.997 0 0 0 .289-.038.964.964 0 0 0 .627-1.216.948.948 0 0 0-1.206-.626.956.956 0 0 0-.626 1.206c.125.414.51.674.915.674zm-152.859.175a.959.959 0 0 0 .917-.676.954.954 0 0 0-.627-1.206.956.956 0 0 0-1.205.627.963.963 0 0 0 .626 1.216c.097.028.193.039.29.039zm154.778 7.089c.068 0 .135-.009.203-.019a.975.975 0 0 0 .743-1.148.967.967 0 0 0-1.891.405.967.967 0 0 0 .945.762zm-156.678.174c.444 0 .84-.308.936-.762a.967.967 0 0 0-.743-1.148.959.959 0 0 0-1.138.753v-.011a.965.965 0 0 0 .945 1.168zm157.904 7.225h.125a.981.981 0 0 0 .839-1.081v.01a.967.967 0 0 0-1.07-.849.973.973 0 0 0-.85 1.071h.01a.95.95 0 0 0 .946.849zm-159.235.173c.039.011.077.011.116.011a.96.96 0 0 0 .955-.849.965.965 0 0 0-.849-1.071.964.964 0 0 0-1.071.849.961.961 0 0 0 .849 1.06zm158.81 6.377a.97.97 0 0 0 .965.946h.029a.975.975 0 0 0 .935-.994.955.955 0 0 0-.994-.935.958.958 0 0 0-.935.983zm-159.215 1.129a.97.97 0 0 0 .965-.945.957.957 0 0 0-.946-.985.96.96 0 0 0-.984.936.983.983 0 0 0 .945.994zm159.958 7.312c.019.009.038.009.067.009a.959.959 0 0 0 .955-.897.963.963 0 1 0-1.92-.134.95.95 0 0 0 .898 1.022zm-160.74-.704a.963.963 0 0 0 .965.897h.068a.963.963 0 0 0 .887-1.033.963.963 0 0 0-1.92.136zm159.794 8.161c.048 0 .096.009.155.009a.963.963 0 0 0 .945-.81.963.963 0 0 0-1.9-.309.97.97 0 0 0 .8 1.11zm-157.96.192a.82.82 0 0 0 .154-.019.963.963 0 0 0 .801-1.109.968.968 0 1 0-1.911.318.97.97 0 0 0 .955.81zm156.561 7.158a.946.946 0 0 0 .926-.713.963.963 0 1 0-1.167.684c.077.019.164.029.241.029zm-154.989.183a.993.993 0 0 0 .241-.029.973.973 0 0 0 .694-1.186.976.976 0 0 0-1.186-.685.967.967 0 0 0 .251 1.9zm152.414 6.926a.977.977 0 0 0 1.244-.569.972.972 0 0 0-.578-1.244.963.963 0 0 0-1.235.579.964.964 0 0 0 .57 1.234zm-151.063-.394c.134.385.51.626.896.626a.962.962 0 0 0 .908-1.292.962.962 0 0 0-1.235-.579.966.966 0 0 0-.569 1.245zm148.487 7.379a.965.965 0 0 0 .425-1.833.97.97 0 0 0-1.293.453.981.981 0 0 0 .463 1.293c.135.057.271.087.405.087zm-144.668.163c.145 0 .28-.029.415-.096a.957.957 0 0 0 .453-1.283.957.957 0 0 0-1.283-.453.957.957 0 0 0-.453 1.283.961.961 0 0 0 .868.549zm141.128 6.464a.968.968 0 0 0 .501-1.795.965.965 0 0 0-1.32.329.97.97 0 0 0 .327 1.331c.155.087.328.135.492.135zm-138.397-.319c.182.3.501.473.829.473a.935.935 0 0 0 .492-.145.962.962 0 0 0 .337-1.322.97.97 0 0 0-1.33-.327.959.959 0 0 0-.328 1.321zm134.249 6.58a.966.966 0 0 0 .781-.396.966.966 0 1 0-1.35.202.984.984 0 0 0 .569.194zm-129.262.144a.945.945 0 0 0 .57-.192.97.97 0 0 0 .211-1.351.969.969 0 0 0-1.35-.203.96.96 0 0 0-.203 1.351.958.958 0 0 0 .772.395zm123.91 5.46c.191.154.413.241.645.241a.962.962 0 0 0 .636-1.688.96.96 0 0 0-1.359.077.972.972 0 0 0 .077 1.37zm-119.908.048a.966.966 0 0 0 .724.318.937.937 0 0 0 .637-.241.962.962 0 0 0 .086-1.36.973.973 0 0 0-1.369-.077.971.971 0 0 0-.078 1.36zm114.611 5.267a.957.957 0 0 0 .703.299.941.941 0 0 0 .657-.261v.011a.965.965 0 0 0-1.312-1.419.964.964 0 0 0-.048 1.37zm-109.295.165a.953.953 0 0 0 1.36-.049.954.954 0 0 0-.048-1.361.963.963 0 1 0-1.312 1.41zm103.526 4.639a.963.963 0 0 0 .762.376.982.982 0 0 0 .588-.203.986.986 0 0 0 .174-1.36.987.987 0 0 0-1.361-.173.976.976 0 0 0-.163 1.36zm-97.141.482c.291 0 .57-.134.763-.375a.974.974 0 0 0-.174-1.351.969.969 0 0 0-1.36.173.968.968 0 0 0 .184 1.351.942.942 0 0 0 .587.202zm90.938 3.753c.184.29.501.454.82.454a.906.906 0 0 0 .511-.155.957.957 0 0 0 .3-1.331.977.977 0 0 0-1.332-.3v.01a.956.956 0 0 0-.299 1.322zm-85.303.395a.93.93 0 0 0 .521.155.963.963 0 0 0 .81-.453.958.958 0 0 0-.3-1.331.977.977 0 0 0-1.33.298.964.964 0 0 0 .299 1.331zm79.602 3.782a.974.974 0 0 0 .858-1.409.97.97 0 0 0-1.302-.414.95.95 0 0 0-.414 1.292.947.947 0 0 0 .858.531zm-72.551.077a.974.974 0 0 0 .858-.521.97.97 0 0 0-.424-1.302.976.976 0 0 0-1.303.424.978.978 0 0 0 .425 1.303v-.01a.914.914 0 0 0 .444.106zm64.805 2.402a.983.983 0 0 0 .907.608.872.872 0 0 0 .347-.068.951.951 0 0 0 .54-1.254.96.96 0 0 0-1.244-.54.972.972 0 0 0-.55 1.254zm-58.313.608a.903.903 0 0 0 .357.067.979.979 0 0 0 .897-.607.965.965 0 0 0-.55-1.255.959.959 0 0 0-1.244.55.953.953 0 0 0 .54 1.245zM137 192.782a.977.977 0 0 0 .926.695c.087 0 .184-.019.271-.038a.959.959 0 0 0 .655-1.197.965.965 0 0 0-1.852.54zm-43.727.743c.425 0 .81-.27.935-.694a.971.971 0 0 0-.665-1.196.957.957 0 0 0-1.187.655.96.96 0 0 0 .917 1.235zm36.406.917a.969.969 0 0 0 1.128.772.978.978 0 0 0 .772-1.129.978.978 0 0 0-1.129-.772.977.977 0 0 0-.771 1.129zm-29.278.801a.963.963 0 0 0 .357-1.891.969.969 0 0 0-1.128.772.976.976 0 0 0 .771 1.128zm21.831.173a.972.972 0 0 0 .965.878c.028 0 .057-.009.096-.009a.965.965 0 0 0 .868-1.053.979.979 0 0 0-1.062-.867.97.97 0 0 0-.867 1.051zm-14.21.887a.97.97 0 0 0 .955-.877.964.964 0 1 0-1.051.877zm7.496.348h.183c.53 0 .964-.434.964-.965a.967.967 0 0 0-.964-.964h-.01c-.029 0-.058 0-.086.009-.03-.009-.059-.009-.087-.009a.967.967 0 0 0-.965.964c0 .531.434.965.965.965z"/></g></g><g><g><path fill="#49d6cb" d="M115.441 45.298a1.08 1.08 0 0 0 1.08-1.09c0-.598-.482-1.081-1.08-1.081h-.011a1.08 1.08 0 0 0-1.079 1.09c0 .598.492 1.081 1.09 1.081zm7.34.366c.04.01.077.01.116.01a1.083 1.083 0 0 0 .106-2.161 1.077 1.077 0 0 0-1.187.965 1.07 1.07 0 0 0 .965 1.186zm-14.807.029c.04 0 .077-.009.116-.009a1.09 1.09 0 0 0 .974-1.187 1.098 1.098 0 0 0-1.196-.974 1.085 1.085 0 0 0-.965 1.196c.058.56.53.974 1.071.974zm22.303 1.129c.501 0 .955-.348 1.061-.858a1.076 1.076 0 0 0-.84-1.283 1.075 1.075 0 0 0-1.283.839 1.087 1.087 0 0 0 .84 1.283c.067.009.145.019.222.019zm-29.672.039c.076 0 .153-.01.221-.03h.009a1.084 1.084 0 1 0-1.292-.829c.106.502.56.859 1.062.859zm36.887 1.881c.463 0 .887-.289 1.032-.753a1.077 1.077 0 0 0-.694-1.36 1.084 1.084 0 1 0-.666 2.065h-.009c.116.038.231.048.337.048zm-45.126-.694c.145.453.57.742 1.023.742.115 0 .231-.019.337-.048.57-.184.887-.801.695-1.37a1.078 1.078 0 0 0-1.37-.695c-.57.184-.878.801-.685 1.371zm52.101 3.365c.414 0 .81-.241.994-.646.241-.549 0-1.186-.551-1.427-.55-.241-1.186 0-1.437.549-.24.55.01 1.187.56 1.428a.97.97 0 0 0 .434.096zm-58.043.068c.144 0 .299-.029.444-.096.549-.251.79-.888.549-1.437a1.091 1.091 0 0 0-1.437-.551c-.55.251-.791.888-.55 1.438.184.405.579.646.994.646zm64.16 3.174a1.09 1.09 0 0 0 1.485-.396 1.094 1.094 0 0 0-.397-1.485 1.089 1.089 0 0 0-1.485.405 1.078 1.078 0 0 0 .396 1.476zm-71.742-.318c.193.347.559.539.935.539a1.086 1.086 0 1 0-.549-2.025 1.083 1.083 0 0 0-.386 1.486zm77.915 4.322a1.065 1.065 0 0 0 1.513-.242 1.09 1.09 0 0 0-.24-1.514 1.088 1.088 0 0 0-1.515.241 1.072 1.072 0 0 0 .242 1.515zm-84.118-.145c.212.289.549.443.878.443.222 0 .444-.068.636-.212h.01a1.08 1.08 0 0 0 .231-1.515 1.08 1.08 0 0 0-1.514-.231 1.09 1.09 0 0 0-.241 1.515zm89.838 4.775c.202.182.462.28.723.28.299 0 .59-.126.81-.367a1.096 1.096 0 0 0-.086-1.535 1.095 1.095 0 0 0-1.534.088 1.085 1.085 0 0 0 .087 1.534zm-95.559.019c.213.231.512.357.801.357.261 0 .521-.096.734-.28a1.086 1.086 0 1 0-1.535-.077zm100.767 5.17c.213.242.512.357.801.357.261 0 .521-.086.734-.279.443-.396.472-1.081.077-1.534a1.094 1.094 0 0 0-1.535-.077 1.084 1.084 0 0 0-.077 1.533zm-105.242.473c.299 0 .598-.126.81-.357v-.01a1.08 1.08 0 0 0-.077-1.523 1.086 1.086 0 1 0-1.457 1.611c.212.182.464.279.724.279zm110.761 5.682c.221 0 .443-.068.636-.203a1.092 1.092 0 0 0 .231-1.524 1.08 1.08 0 0 0-1.514-.232 1.08 1.08 0 0 0-.231 1.515c.212.289.539.444.878.444zm-116.096-.087c.193.144.415.212.637.212.338 0 .666-.154.878-.453a1.083 1.083 0 0 0-.242-1.515 1.092 1.092 0 0 0-1.514.241 1.091 1.091 0 0 0 .241 1.515zm119.231 5.797c.202.348.569.54.945.54a1.087 1.087 0 0 0 .936-1.63 1.085 1.085 0 0 0-1.486-.386c-.52.3-.695.965-.395 1.476zm-123.206.531a1.091 1.091 0 0 0 1.486-.396 1.086 1.086 0 1 0-1.88-1.09c-.3.521-.126 1.187.394 1.486zm126.562 6.019c.184.396.58.637.994.637.145 0 .299-.029.444-.097.54-.241.781-.877.54-1.427-.242-.55-.888-.791-1.428-.55-.55.241-.8.887-.55 1.437zm-129.407.781c.415 0 .811-.241.984-.646.25-.549 0-1.186-.55-1.437a1.089 1.089 0 0 0-1.427.55v.01c-.242.54 0 1.186.55 1.427.144.068.289.096.443.096zm132.051 6.078c.154.453.578.752 1.032.752.116 0 .221-.019.337-.057.569-.184.888-.801.695-1.37a1.086 1.086 0 0 0-2.064.675zm-134.733.897c.463 0 .888-.289 1.033-.752a1.085 1.085 0 0 0-.695-1.37 1.098 1.098 0 0 0-1.37.704 1.099 1.099 0 0 0 .705 1.37c.105.028.221.048.327.048zm137.704 7.062c.077 0 .154-.011.232-.02.587-.125.954-.704.829-1.293a1.075 1.075 0 0 0-1.284-.829 1.088 1.088 0 0 0-.838 1.283 1.09 1.09 0 0 0 1.061.859zm-139.845.134c.077.01.144.019.222.019.502 0 .955-.347 1.061-.858a1.075 1.075 0 0 0-.839-1.283 1.085 1.085 0 0 0-1.283.83 1.09 1.09 0 0 0 .84 1.292zm139.941 6.271c.058.559.531.974 1.08.974.039 0 .078 0 .116-.01a1.092 1.092 0 0 0 .965-1.196 1.1 1.1 0 0 0-1.196-.965 1.085 1.085 0 0 0-.965 1.197zm-140.983 1.119a.509.509 0 0 0 .116.009c.54 0 1.013-.414 1.07-.974a1.07 1.07 0 0 0-.964-1.187 1.084 1.084 0 0 0-1.196.965 1.085 1.085 0 0 0 .974 1.187zm142.459 7.312c.598 0 1.09-.492 1.081-1.09 0-.598-.483-1.09-1.081-1.081-.608 0-1.09.483-1.09 1.081.01.608.492 1.09 1.09 1.09zm-143.819-.926c0 .598.492 1.08 1.09 1.08a1.08 1.08 0 0 0 1.08-1.091c0-.597-.482-1.079-1.08-1.079-.598 0-1.09.482-1.09 1.09zm143.443 8.382c.55 0 1.022-.415 1.081-.974a1.092 1.092 0 0 0-.965-1.196 1.098 1.098 0 0 0-1.196.975 1.083 1.083 0 0 0 .974 1.186c.038.009.077.009.106.009zm-143.047-.819c.057.559.53.974 1.08.974.039 0 .077 0 .116-.01a1.079 1.079 0 0 0 .965-1.187 1.077 1.077 0 0 0-1.187-.964 1.083 1.083 0 0 0-.974 1.187zm141.677 8.179a1.11 1.11 0 0 0 1.293-.849h-.009a1.087 1.087 0 0 0-.84-1.283 1.09 1.09 0 0 0-.444 2.132zm-140.49-.685c.105.512.558.86 1.06.86a.966.966 0 0 0 .222-.03 1.08 1.08 0 0 0 .84-1.283 1.09 1.09 0 0 0-1.293-.839 1.09 1.09 0 0 0-.83 1.292zm138.464 7.872c.116.039.222.048.338.048.453 0 .877-.289 1.032-.752a1.075 1.075 0 0 0-.704-1.36 1.077 1.077 0 0 0-1.36.694 1.088 1.088 0 0 0 .694 1.37zm-136.507-.549c.145.453.579.752 1.033.752.105 0 .221-.019.337-.058.57-.184.878-.801.694-1.37a1.09 1.09 0 0 0-1.37-.695 1.089 1.089 0 0 0-.694 1.371zm133.738 7.485c.146.058.291.096.435.096a1.088 1.088 0 0 0 .443-2.083 1.081 1.081 0 0 0-1.427.559c-.251.541 0 1.187.55 1.428zm-131.017-.415c.183.406.578.647.993.647.145 0 .3-.029.443-.088.541-.25.792-.887.551-1.436a1.092 1.092 0 0 0-1.438-.55c-.549.241-.79.887-.549 1.437v-.01zm127.525 7.023a1.087 1.087 0 0 0 1.486-.396c.3-.521.116-1.186-.395-1.486a1.087 1.087 0 0 0-1.09 1.882zm-123.136.27a.994.994 0 0 0 .54-.145c.52-.299.695-.965.395-1.475a1.077 1.077 0 0 0-1.476-.396 1.066 1.066 0 0 0-.395 1.475c.192.348.56.541.936.541zm118.979 5.932c.193.145.415.213.637.213a1.09 1.09 0 0 0 .646-1.968 1.101 1.101 0 0 0-1.524.241 1.088 1.088 0 0 0 .241 1.514zm-114.909.329a1.084 1.084 0 0 0 .878-1.727 1.08 1.08 0 0 0-1.515-.232 1.092 1.092 0 0 0-.24 1.515 1.1 1.1 0 0 0 .877.444zm110.134 5.411c.202.193.463.28.723.28.3 0 .59-.116.811-.357a1.093 1.093 0 0 0-.087-1.534 1.086 1.086 0 0 0-1.534.077 1.093 1.093 0 0 0 .087 1.534zm-106.227.029c.213.241.502.357.801.357.261 0 .521-.086.723-.27.444-.405.482-1.09.077-1.534a1.073 1.073 0 0 0-1.524-.086 1.083 1.083 0 0 0-.077 1.533zm100.873 5.19c.212.232.512.357.801.357.26 0 .521-.096.733-.28.444-.405.473-1.09.077-1.534a1.084 1.084 0 0 0-1.533-.077 1.084 1.084 0 0 0-.078 1.534zm-94.795.453c.299 0 .597-.125.81-.366a1.073 1.073 0 0 0-.077-1.525 1.085 1.085 0 0 0-1.534.078 1.084 1.084 0 0 0 .801 1.813zm89.808 4.611c.222 0 .444-.068.637-.202a1.105 1.105 0 0 0 .241-1.525 1.083 1.083 0 0 0-1.515-.231 1.075 1.075 0 0 0-.24 1.514c.211.29.54.444.877.444zm-84.638-.116c.193.136.415.203.637.203a1.08 1.08 0 0 0 .636-1.958 1.073 1.073 0 0 0-1.514.242 1.09 1.09 0 0 0 .241 1.513zm77.451 3.666a1.078 1.078 0 0 0 1.486.386c.512-.299.694-.965.386-1.476a1.079 1.079 0 0 0-1.476-.396c-.521.3-.694.965-.396 1.486zm-70.554.618c.376 0 .743-.203.945-.55.3-.521.116-1.177-.395-1.477a1.079 1.079 0 0 0-1.485.396c-.3.512-.126 1.178.395 1.476v.01c.174.097.357.145.54.145zm63.86 2.691a1.075 1.075 0 0 0 1.427.54c.551-.241.792-.888.551-1.438a1.089 1.089 0 0 0-1.438-.539c-.54.241-.791.887-.54 1.437zm-57.204.704c.415 0 .811-.241.994-.646.241-.55 0-1.186-.55-1.438-.55-.241-1.186 0-1.437.55-.24.55 0 1.187.55 1.438.144.057.3.096.443.096zm50.191 1.881c.154.453.58.743 1.032.743.116 0 .232-.019.338-.049.569-.192.877-.8.694-1.369a1.08 1.08 0 0 0-1.37-.695 1.085 1.085 0 0 0-.694 1.37zm-43.553.743c.114.029.221.048.337.048.453 0 .887-.289 1.032-.752a1.08 1.08 0 0 0-.695-1.361 1.082 1.082 0 0 0-1.37.695c-.182.57.126 1.177.696 1.37zm37.38 1.948a.896.896 0 0 0 .221-.029 1.083 1.083 0 1 0-.453-2.121 1.075 1.075 0 0 0-.83 1.292c.106.511.56.858 1.062.858zm-30.05.01c.078.01.146.02.222.02.502 0 .955-.348 1.062-.859a1.09 1.09 0 0 0-.84-1.293 1.09 1.09 0 0 0-.444 2.132zm22.67 1.158h.116a1.085 1.085 0 0 0 .964-1.197 1.079 1.079 0 0 0-1.196-.964 1.093 1.093 0 0 0-.965 1.196c.058.55.531.965 1.081.965zm-15.184.009a.414.414 0 0 0 .116.011 1.084 1.084 0 0 0 .106-2.162 1.072 1.072 0 0 0-1.187.965 1.07 1.07 0 0 0 .965 1.186zm7.573.396h.164c.598 0 1.08-.492 1.08-1.09a1.094 1.094 0 0 0-1.09-1.081h-.154a1.09 1.09 0 0 0-1.09 1.09c0 .598.492 1.081 1.09 1.081z"/></g></g><g><g><path fill="#49d6cb" d="M119.125 54.269c.637 0 1.167-.502 1.206-1.138a1.209 1.209 0 0 0-1.138-1.274h.009a1.207 1.207 0 0 0-1.272 1.139c-.049.656.472 1.225 1.128 1.263.028.01.048.01.067.01zm-8.614-1.129a1.207 1.207 0 0 0 1.206 1.139h.068a1.23 1.23 0 0 0 1.138-1.283 1.221 1.221 0 0 0-1.283-1.129 1.201 1.201 0 0 0-1.129 1.273zm15.985 1.978a1.2 1.2 0 0 0 1.186-.994 1.21 1.21 0 0 0-.975-1.398 1.21 1.21 0 0 0-.424 2.382c.077.01.145.01.213.01zm-23.336-.955c.107.588.617.993 1.187.993.078 0 .144-.009.222-.019a1.198 1.198 0 0 0 .964-1.399 1.205 1.205 0 1 0-2.373.425zm30.194 2.633c.125.029.241.048.357.048.521 0 .993-.337 1.148-.858a1.195 1.195 0 0 0-.801-1.495 1.206 1.206 0 0 0-.704 2.305zm-37.361-.742c.155.51.637.849 1.148.849.116 0 .241-.02.357-.048a1.22 1.22 0 0 0 .8-1.515 1.2 1.2 0 0 0-1.504-.791 1.192 1.192 0 0 0-.801 1.505zm44.673 3.366c.463 0 .907-.27 1.109-.724a1.198 1.198 0 0 0-.627-1.581 1.19 1.19 0 0 0-1.582.617c-.27.608.01 1.312.617 1.582.155.068.32.106.483.106zm-50.47.077c.164 0 .328-.039.482-.105.617-.271.888-.985.617-1.593a1.21 1.21 0 0 0-1.592-.617c-.607.271-.887.984-.607 1.592.193.454.637.723 1.1.723zm57.078 3.309c.405 0 .81-.212 1.032-.598a1.19 1.19 0 0 0-.424-1.649 1.209 1.209 0 0 0-1.65.424 1.208 1.208 0 0 0 .424 1.649c.193.116.405.174.618.174zm-64.709-.502c.231.377.627.589 1.042.589.212 0 .424-.058.617-.173a1.196 1.196 0 0 0 .415-1.65 1.195 1.195 0 0 0-1.65-.415 1.206 1.206 0 0 0-.424 1.649zm70.863 4.641c.367 0 .724-.164.956-.483a1.202 1.202 0 1 0-1.911-1.457 1.2 1.2 0 0 0 .222 1.688c.222.165.472.252.733.252zm-75.966.105a1.211 1.211 0 0 0 .965-1.938 1.214 1.214 0 0 0-1.697-.232 1.211 1.211 0 0 0 .732 2.17zm80.751 4.39c.232.221.54.337.84.337.318 0 .626-.125.867-.366a1.206 1.206 0 1 0-1.736-1.679 1.206 1.206 0 0 0 .03 1.708zm-86.356.453c.3 0 .608-.106.84-.338a1.213 1.213 0 0 0 .019-1.707 1.203 1.203 0 0 0-1.698-.02h-.009a1.213 1.213 0 0 0-.019 1.708c.231.241.549.357.867.357zm91.275 4.901c.241.289.59.444.936.444.27 0 .541-.087.762-.271a1.2 1.2 0 0 0 .174-1.697 1.2 1.2 0 0 0-1.697-.175 1.219 1.219 0 0 0-.175 1.699zm-97.043.308c.222.183.492.27.762.27a1.206 1.206 0 1 0-.762-.27zm101.307 5.585c.222.367.618.56 1.013.56.222 0 .444-.058.647-.183.56-.357.733-1.1.376-1.669h-.01a1.202 1.202 0 1 0-2.026 1.292zm-104.867.714c.396 0 .792-.202 1.023-.559h-.01a1.211 1.211 0 0 0-.366-1.669 1.214 1.214 0 0 0-1.669.376 1.215 1.215 0 0 0 .376 1.67c.203.125.425.182.646.182zm108.388 5.644a1.209 1.209 0 0 0 1.611.569 1.22 1.22 0 0 0 .569-1.611 1.206 1.206 0 0 0-1.611-.559 1.198 1.198 0 0 0-.569 1.601zm-111.967.849c.444 0 .878-.252 1.081-.685a1.19 1.19 0 0 0-.569-1.602 1.19 1.19 0 0 0-1.601.569 1.19 1.19 0 0 0 .57 1.602c.162.086.346.116.519.116zm115.865 6.703c.125 0 .26-.019.385-.067.627-.212.964-.897.753-1.524a1.195 1.195 0 0 0-1.534-.752 1.203 1.203 0 0 0-.753 1.524c.174.502.646.819 1.15.819zm-118.652.175a1.205 1.205 0 0 0 .385-2.345 1.211 1.211 0 0 0-1.533.752 1.216 1.216 0 0 0 .762 1.534c.125.039.261.059.386.059zm119.433 6.019c.115.569.617.955 1.177.955.087 0 .173 0 .251-.019a1.214 1.214 0 0 0 .935-1.428 1.218 1.218 0 0 0-1.437-.936 1.208 1.208 0 0 0-.926 1.428zm-121.372 1.148c.549 0 1.052-.396 1.177-.965a1.219 1.219 0 0 0-.936-1.427 1.21 1.21 0 0 0-1.428.935c-.134.656.28 1.293.936 1.427.077.02.164.03.251.03zm123.658 7.148c.03 0 .068-.01.106-.01a1.204 1.204 0 0 0 1.09-1.312 1.21 1.21 0 0 0-1.312-1.09 1.208 1.208 0 1 0 .116 2.412zm-124.749.183c.628 0 1.149-.472 1.206-1.1a1.2 1.2 0 0 0-1.099-1.302 1.202 1.202 0 0 0-1.302 1.1 1.2 1.2 0 0 0 1.09 1.302zm124.981 7.225c.646 0 1.186-.521 1.205-1.177a1.207 1.207 0 1 0-1.244 1.177zm-126.398-.974a1.218 1.218 0 0 0 1.205 1.167h.04a1.205 1.205 0 0 0 1.166-1.244 1.2 1.2 0 0 0-1.235-1.168 1.215 1.215 0 0 0-1.176 1.245zm125.587 8.354c.058.009.116.009.174.009.59 0 1.11-.434 1.196-1.032a1.215 1.215 0 0 0-1.023-1.37 1.216 1.216 0 0 0-1.37 1.023 1.216 1.216 0 0 0 1.023 1.37zm-124.912-.83a1.203 1.203 0 0 0 1.187 1.032c.067 0 .125-.009.183-.019a1.202 1.202 0 0 0 1.012-1.37 1.207 1.207 0 0 0-1.369-1.013 1.208 1.208 0 0 0-1.013 1.37zm123.581 8.103c.531 0 1.022-.357 1.168-.897a1.212 1.212 0 0 0-.849-1.476 1.2 1.2 0 0 0-1.476.849 1.19 1.19 0 0 0 .848 1.476c.107.029.212.048.309.048zm-122.028-.704c.145.53.627.887 1.157.887.107 0 .213-.019.32-.048a1.197 1.197 0 0 0 .847-1.476 1.202 1.202 0 0 0-1.475-.849 1.214 1.214 0 0 0-.849 1.486zm119.221 7.65c.144.057.3.087.453.087.473 0 .926-.289 1.12-.753a1.207 1.207 0 1 0-1.573.666zm-116.799-.493a1.208 1.208 0 1 0 2.238-.91 1.208 1.208 0 0 0-2.238.91zm113.49 7.139c.183.096.386.145.58.145.423 0 .838-.222 1.06-.627a1.199 1.199 0 0 0-.483-1.631 1.186 1.186 0 0 0-1.629.473 1.2 1.2 0 0 0 .472 1.64zm-109.169.299c.193 0 .395-.048.579-.144a1.22 1.22 0 0 0 .473-1.64 1.208 1.208 0 0 0-1.64-.473 1.195 1.195 0 0 0-.473 1.64c.222.395.637.617 1.061.617zm105.792 6.126c.377 0 .753-.175.985-.502h.009a1.207 1.207 0 0 0-.289-1.688 1.205 1.205 0 0 0-1.679.279 1.22 1.22 0 0 0 .28 1.689c.212.145.453.222.694.222zm-101.827.144c.241 0 .482-.077.694-.231a1.204 1.204 0 0 0 .28-1.679 1.213 1.213 0 0 0-1.688-.279 1.222 1.222 0 0 0-.27 1.688c.231.328.608.501.984.501zm96.358 5.305c.232.213.521.319.811.319.328 0 .656-.135.897-.396a1.203 1.203 0 0 0-.077-1.697 1.208 1.208 0 0 0-1.708.077 1.194 1.194 0 0 0 .077 1.697zm-92.577.059c.241.26.569.385.887.385.3 0 .59-.105.821-.317a1.195 1.195 0 0 0 .067-1.699 1.196 1.196 0 0 0-1.698-.077 1.217 1.217 0 0 0-.077 1.708zm88.082 5.44c.28 0 .559-.096.791-.289v-.009a1.206 1.206 0 0 0 .125-1.698 1.207 1.207 0 0 0-1.707-.116 1.197 1.197 0 0 0-.116 1.698c.232.27.57.414.907.414zm-81.869.116a1.21 1.21 0 0 0 .79-2.122 1.216 1.216 0 0 0-1.707.125 1.211 1.211 0 0 0 .135 1.708v-.01c.222.203.502.299.782.299zm74.991 3.878c.231.338.618.521 1.003.521.232 0 .463-.058.675-.203a1.208 1.208 0 1 0-1.678-.318zm-69.772.415c.212.144.443.212.674.212a1.24 1.24 0 0 0 1.003-.531 1.217 1.217 0 0 0-.327-1.678 1.19 1.19 0 0 0-1.669.328 1.196 1.196 0 0 0 .32 1.669zm63.328 3.251c.222.414.637.655 1.081.655.183 0 .376-.047.55-.134a1.21 1.21 0 1 0-1.11-2.152 1.225 1.225 0 0 0-.521 1.631zm-56.817.598c.173.096.366.135.55.135a1.19 1.19 0 0 0 1.07-.656 1.195 1.195 0 0 0-.521-1.621 1.212 1.212 0 0 0-1.62.521 1.191 1.191 0 0 0 .521 1.621zm51.116 3.067c.136 0 .28-.029.425-.077.617-.232.935-.926.704-1.553a1.21 1.21 0 0 0-1.553-.704 1.204 1.204 0 0 0-.705 1.553c.175.483.637.781 1.13.781zm-43.776.068c.483 0 .946-.309 1.129-.791a1.208 1.208 0 0 0-.714-1.554 1.202 1.202 0 0 0-1.543.714 1.196 1.196 0 0 0 .704 1.554c.145.048.28.077.424.077zm35.52 1.196c.134.55.625.916 1.166.916.096 0 .193-.009.289-.029a1.212 1.212 0 0 0 .888-1.456 1.213 1.213 0 0 0-1.457-.888h-.009a1.195 1.195 0 0 0-.878 1.457zm-28.419.964c.539 0 1.031-.376 1.167-.926a1.212 1.212 0 0 0-.888-1.456 1.205 1.205 0 0 0-1.456.897 1.212 1.212 0 0 0 .887 1.457v-.01a.989.989 0 0 0 .29.038zm21.086.223c.077.607.598 1.06 1.206 1.06.049 0 .097-.009.145-.009a1.216 1.216 0 0 0 1.051-1.341 1.215 1.215 0 0 0-1.34-1.061 1.221 1.221 0 0 0-1.062 1.351zm-13.929 1.071c.048.009.087.009.135.009.607 0 1.128-.453 1.206-1.062a1.206 1.206 0 0 0-1.061-1.34 1.213 1.213 0 0 0-1.342 1.051 1.209 1.209 0 0 0 1.062 1.342zm7.64.433c.029.01.058.01.096.01a1.208 1.208 0 0 0 1.197-1.216c0-.665-.54-1.195-1.206-1.195h-.183a1.206 1.206 0 0 0 0 2.411c.028 0 .067 0 .096-.01z"/></g></g><g><g><path fill="#49d6cb" d="M116.733 61.706c0-.733-.598-1.331-1.321-1.331-.733 0-1.332.598-1.332 1.331.01.734.599 1.322 1.332 1.322.732 0 1.321-.598 1.321-1.322zm5.836 1.795c.058.009.116.009.173.009.657 0 1.226-.482 1.313-1.147a1.335 1.335 0 0 0-1.138-1.496 1.328 1.328 0 1 0-.348 2.634zm-14.488.038c.057 0 .125 0 .182-.009a1.326 1.326 0 0 0 1.129-1.495 1.325 1.325 0 0 0-2.624.356 1.321 1.321 0 0 0 1.313 1.148zm21.511 1.399a1.33 1.33 0 0 0 1.63-.926 1.328 1.328 0 0 0-.926-1.63 1.312 1.312 0 0 0-1.63.926 1.317 1.317 0 0 0 .926 1.63zm-29.981-.868c.164.588.694.974 1.272.974.127 0 .242-.019.368-.058l-.01.01a1.334 1.334 0 0 0 .925-1.64 1.328 1.328 0 0 0-1.639-.916 1.314 1.314 0 0 0-.916 1.63zm37.264 3.357c.511 0 1.003-.299 1.215-.791a1.314 1.314 0 0 0-.685-1.746 1.326 1.326 0 0 0-1.745.694 1.32 1.32 0 0 0 1.215 1.843zm-44.123-.705c.212.492.704.792 1.215.792.184 0 .357-.039.531-.107a1.33 1.33 0 1 0-1.061-2.44 1.337 1.337 0 0 0-.685 1.755zm49.968 3.888c.213.135.454.193.685.193.454 0 .888-.222 1.14-.636a1.332 1.332 0 0 0-.445-1.824 1.337 1.337 0 0 0-1.823.444 1.32 1.32 0 0 0 .443 1.823zm-56.402-.338c.25.406.684.637 1.138.637a1.325 1.325 0 0 0 1.128-2.016 1.323 1.323 0 0 0-1.823-.444 1.332 1.332 0 0 0-.443 1.823zm63.097 4.766a1.334 1.334 0 0 0 .84-2.364 1.331 1.331 0 0 0-1.863.203 1.321 1.321 0 0 0 .193 1.862c.242.203.541.299.83.299zm-67.95.116c.29 0 .589-.096.84-.3a1.327 1.327 0 0 0 .183-1.861 1.321 1.321 0 0 0-1.862-.193 1.33 1.33 0 0 0-.192 1.871c.26.319.646.483 1.031.483zm72.368 4.466c.26.28.618.425.975.425.318 0 .646-.127.907-.368a1.328 1.328 0 1 0-1.882-.057zm-78.638.202c.251.242.579.357.898.357.357 0 .713-.145.974-.424a1.316 1.316 0 0 0-.068-1.871 1.324 1.324 0 0 0-1.87.068 1.315 1.315 0 0 0 .066 1.87zm84.262 5.904c.27 0 .531-.077.772-.241a1.336 1.336 0 0 0 .309-1.852 1.33 1.33 0 0 0-1.852-.318 1.327 1.327 0 0 0-.309 1.852c.26.366.665.559 1.08.559zm-88.756-.086c.23.163.501.25.761.25.415 0 .83-.203 1.08-.569a1.315 1.315 0 0 0-.318-1.842 1.316 1.316 0 0 0-1.842.318 1.316 1.316 0 0 0 .32 1.843zm91.42 5.642c.24.444.693.705 1.175.705.203 0 .416-.048.618-.145a1.34 1.34 0 0 0 .56-1.795 1.338 1.338 0 0 0-1.795-.558 1.323 1.323 0 0 0-.559 1.784zm-94.479.888c.482 0 .946-.26 1.177-.713v-.011a1.318 1.318 0 0 0-.569-1.784 1.328 1.328 0 0 0-1.785.569 1.319 1.319 0 0 0 .57 1.784c.192.107.404.155.607.155zm97.353 5.672c.192.54.703.878 1.254.878.144 0 .298-.019.443-.078a1.327 1.327 0 0 0 .801-1.697 1.337 1.337 0 0 0-1.698-.801 1.33 1.33 0 0 0-.8 1.698zm-100.719.994c.144.058.298.077.444.077.549 0 1.06-.337 1.253-.878a1.34 1.34 0 0 0-.81-1.698 1.332 1.332 0 0 0-1.697.81 1.323 1.323 0 0 0 .81 1.689zm103.969 6.955c.087 0 .174-.01.27-.03a1.319 1.319 0 0 0 1.023-1.572c-.145-.713-.85-1.167-1.573-1.022a1.328 1.328 0 0 0-1.022 1.572 1.328 1.328 0 0 0 1.302 1.052zm-105.503.212a1.33 1.33 0 0 0 1.302-1.061 1.322 1.322 0 0 0-1.032-1.572 1.328 1.328 0 0 0-1.563 1.032v.009c-.154.714.318 1.409 1.032 1.563.087.019.174.029.261.029zm105.184 5.836a1.342 1.342 0 0 0 1.322 1.235c.04 0 .068 0 .097-.01a1.325 1.325 0 0 0 1.234-1.408 1.335 1.335 0 0 0-1.418-1.235 1.33 1.33 0 0 0-1.235 1.418zm-106.159 1.447a1.326 1.326 0 0 0 .087-2.652 1.328 1.328 0 0 0-1.418 1.234 1.328 1.328 0 0 0 1.244 1.408c.03 0 .059.01.087.01zm107.51 7.138a1.328 1.328 0 0 0 .087-2.652 1.326 1.326 0 0 0-1.408 1.235 1.32 1.32 0 0 0 1.235 1.408c.029 0 .057.009.086.009zm-108.832-1.031a1.322 1.322 0 0 0 1.322 1.234h.097a1.32 1.32 0 0 0 1.225-1.418h.01a1.327 1.327 0 0 0-1.419-1.225 1.321 1.321 0 0 0-1.235 1.409zm107.597 8.286a1.328 1.328 0 0 0 1.563-1.033 1.338 1.338 0 0 0-1.031-1.572 1.339 1.339 0 0 0-1.574 1.042 1.329 1.329 0 0 0 1.042 1.563zm-105.281.231a1.4 1.4 0 0 0 .28-.029 1.314 1.314 0 0 0 1.022-1.562 1.314 1.314 0 0 0-1.562-1.033 1.32 1.32 0 0 0-1.032 1.563 1.333 1.333 0 0 0 1.292 1.061zm103.149 6.811c.145.048.291.077.435.077.55 0 1.061-.348 1.254-.888a1.329 1.329 0 0 0-.811-1.697 1.327 1.327 0 0 0-1.688.81c-.25.694.116 1.447.81 1.698zm-101.162.26c.154 0 .3-.019.454-.078a1.318 1.318 0 0 0 .801-1.688 1.322 1.322 0 0 0-1.699-.8 1.316 1.316 0 0 0-.801 1.689c.193.539.705.877 1.245.877zm98.076 6.415a1.342 1.342 0 0 0 1.794-.569 1.327 1.327 0 0 0-.578-1.785 1.32 1.32 0 0 0-1.786.57 1.327 1.327 0 0 0 .57 1.784zm-96.311-.386c.232.454.695.714 1.178.714.202 0 .414-.048.607-.155a1.318 1.318 0 0 0 .569-1.784 1.335 1.335 0 0 0-1.794-.569 1.335 1.335 0 0 0-.56 1.794zm93.118 6.82c.414 0 .83-.193 1.08-.56a1.316 1.316 0 0 0-.318-1.842 1.33 1.33 0 0 0-1.852.318 1.327 1.327 0 0 0 1.09 2.084zm-88.12.164c.27 0 .539-.077.771-.241a1.339 1.339 0 0 0 .319-1.852 1.33 1.33 0 0 0-2.171 1.533c.26.367.665.56 1.081.56zm83.49 5.556c.357 0 .714-.144.974-.424a1.316 1.316 0 0 0-.068-1.872 1.317 1.317 0 0 0-1.87.068 1.317 1.317 0 0 0 .067 1.872c.25.241.578.356.897.356zm-78.841.136c.318 0 .646-.116.907-.357.53-.492.559-1.341.057-1.872a1.334 1.334 0 0 0-1.87-.067 1.327 1.327 0 0 0-.068 1.88c.26.28.617.416.974.416zm73.496 4.9c.29 0 .589-.097.84-.299a1.34 1.34 0 0 0 .183-1.871 1.331 1.331 0 0 0-1.871-.184 1.328 1.328 0 0 0 .848 2.354zm-68.123.116c.386 0 .762-.165 1.022-.482a1.338 1.338 0 0 0-.183-1.872h-.009a1.32 1.32 0 0 0-1.862.193 1.32 1.32 0 0 0 .193 1.861c.241.203.54.3.84.3zm62.133 4.138a1.319 1.319 0 0 0 1.129-2.016 1.326 1.326 0 0 0-2.257 1.389c.25.405.684.627 1.128.627zm-56.827-.087c.222.136.453.193.694.193.444 0 .887-.221 1.128-.637a1.322 1.322 0 0 0-.443-1.823 1.312 1.312 0 0 0-1.814.444 1.33 1.33 0 0 0 .435 1.823zm49.11 2.702c.212.501.704.79 1.215.79.173 0 .357-.028.53-.105a1.329 1.329 0 0 0-1.07-2.432 1.326 1.326 0 0 0-.675 1.747zm-41.894.877c.51 0 1.003-.299 1.224-.791a1.328 1.328 0 0 0-.694-1.746v-.01a1.333 1.333 0 0 0-1.747.695 1.33 1.33 0 0 0 .696 1.746c.164.067.346.106.521.106zm34.91 1.437c.173.589.704.965 1.283.965.116 0 .241-.01.357-.048a1.323 1.323 0 1 0-.724-2.546 1.32 1.32 0 0 0-.916 1.629zm-27.975 1.023a1.327 1.327 0 0 0 .357-2.605 1.342 1.342 0 0 0-1.64.927 1.327 1.327 0 0 0 .926 1.629c.116.039.241.049.357.049zm22.061 1.457c.068 0 .126 0 .184-.01h.01a1.333 1.333 0 0 0 1.128-1.496 1.335 1.335 0 0 0-1.505-1.128 1.328 1.328 0 0 0-1.129 1.496 1.328 1.328 0 0 0 1.312 1.138zm-15.048.018c.067.011.126.011.183.011.646 0 1.226-.483 1.312-1.148a1.318 1.318 0 0 0-1.139-1.486 1.326 1.326 0 0 0-1.495 1.129 1.334 1.334 0 0 0 1.139 1.494zm7.62.503c.04.009.068.009.107.009a1.34 1.34 0 0 0 1.322-1.341c0-.723-.599-1.321-1.33-1.312h-.204c-.734 0-1.332.589-1.332 1.322 0 .733.598 1.331 1.332 1.331.04 0 .067 0 .105-.009z"/></g></g><g><g><path fill="#49d6cb" d="M116.868 70.446c0-.8-.656-1.447-1.447-1.437-.8 0-1.447.646-1.447 1.447s.646 1.447 1.447 1.447a1.46 1.46 0 0 0 1.447-1.457zm5.981 2.045c.694 0 1.302-.502 1.427-1.216a1.444 1.444 0 0 0-1.195-1.659 1.438 1.438 0 0 0-1.66 1.197c-.135.781.406 1.524 1.196 1.659h-.009c.086.009.164.019.241.019zm-14.856.029c.088 0 .164-.01.241-.019a1.445 1.445 0 0 0 1.187-1.669 1.444 1.444 0 0 0-2.846.482 1.438 1.438 0 0 0 1.418 1.206zm21.608 1.698a1.456 1.456 0 0 0 1.843-.898 1.455 1.455 0 0 0-.907-1.842 1.433 1.433 0 0 0-1.832.907 1.443 1.443 0 0 0 .896 1.833zm-28.823.144c.154 0 .318-.028.473-.086a1.445 1.445 0 1 0-.946-2.73 1.45 1.45 0 0 0-.897 1.842c.212.599.772.974 1.37.974zm35.441 2.74c.212.116.444.174.675.174.521 0 1.023-.28 1.283-.762a1.445 1.445 0 0 0-.588-1.958 1.437 1.437 0 0 0-1.959.588 1.438 1.438 0 0 0 .59 1.958zm-43.525-.492c.26.482.762.753 1.273.753.232 0 .473-.059.695-.174a1.449 1.449 0 0 0-1.38-2.547 1.451 1.451 0 0 0-.588 1.968zm49.564 4.428c.26.202.578.299.887.299a1.43 1.43 0 0 0 1.148-.559 1.456 1.456 0 0 0-.26-2.027 1.456 1.456 0 0 0-2.036.252 1.462 1.462 0 0 0 .261 2.035zm-55.65-.145c.279.367.703.56 1.138.56.308 0 .626-.097.887-.309a1.446 1.446 0 1 0-1.785-2.277 1.443 1.443 0 0 0-.24 2.026zm60.965 5.017a1.45 1.45 0 0 0 2.045.076c.589-.54.627-1.456.087-2.044a1.468 1.468 0 0 0-2.055-.077 1.457 1.457 0 0 0-.077 2.045zm-65.297.597c.386 0 .781-.153 1.061-.472a1.438 1.438 0 0 0-.087-2.036 1.43 1.43 0 0 0-2.045.087 1.447 1.447 0 0 0 .087 2.045c.28.251.627.376.984.376zm69.744 5.075c.28.424.742.656 1.215.656.271 0 .55-.078.792-.242a1.445 1.445 0 1 0-1.592-2.411 1.444 1.444 0 0 0-.415 1.997zm-75.108.569c.241.164.512.241.792.241a1.449 1.449 0 0 0 .781-2.662 1.447 1.447 0 0 0-1.997.424 1.439 1.439 0 0 0 .424 1.997zm78.562 5.758a1.45 1.45 0 0 0 1.331.859c.193 0 .385-.039.578-.115a1.458 1.458 0 0 0 .743-1.911 1.457 1.457 0 0 0-1.91-.742 1.455 1.455 0 0 0-.742 1.909zm-81.321 1.033c.56 0 1.091-.318 1.332-.859a1.456 1.456 0 0 0-.753-1.91 1.44 1.44 0 0 0-1.9.743 1.45 1.45 0 0 0 .743 1.91c.193.077.386.116.578.116zm83.683 5.779a1.442 1.442 0 0 0 1.766 1.04 1.443 1.443 0 0 0 1.041-1.755 1.449 1.449 0 0 0-2.807.715zm-86.441 1.233c.116.03.232.049.346.049.657 0 1.245-.444 1.41-1.1a1.452 1.452 0 0 0-1.053-1.756 1.452 1.452 0 0 0-1.755 1.053 1.45 1.45 0 0 0 1.052 1.754zm89.085 7.197h.125a1.446 1.446 0 0 0 1.312-1.563 1.441 1.441 0 0 0-1.563-1.321 1.454 1.454 0 0 0-1.321 1.562 1.455 1.455 0 0 0 1.447 1.322zm-89.944.193a1.45 1.45 0 0 0 1.447-1.331v.009a1.451 1.451 0 0 0-1.331-1.563 1.44 1.44 0 0 0-1.553 1.322 1.442 1.442 0 0 0 1.322 1.563zm89.963 7.264c.752 0 1.39-.579 1.447-1.341a1.446 1.446 0 1 0-2.884-.222 1.44 1.44 0 0 0 1.331 1.553c.04 0 .077.01.106.01zm-89.953.193c.039 0 .077-.01.116-.01a1.442 1.442 0 0 0 1.321-1.563 1.442 1.442 0 1 0-2.875.241 1.449 1.449 0 0 0 1.438 1.332zm88.766 7.158a1.45 1.45 0 0 0 .348-2.856 1.447 1.447 0 0 0-1.756 1.052v.009a1.44 1.44 0 0 0 1.062 1.746c.115.029.231.049.346.049zm-88.94-.907a1.44 1.44 0 0 0 1.4 1.089c.115 0 .23-.009.356-.038a1.45 1.45 0 0 0 1.042-1.766 1.44 1.44 0 0 0-1.756-1.042 1.436 1.436 0 0 0-1.042 1.757zm86.538 7.967c.56 0 1.091-.328 1.332-.877a1.446 1.446 0 0 0-.752-1.901 1.44 1.44 0 0 0-1.901.743c-.318.743.01 1.592.752 1.91.184.077.377.125.569.125zm-82.718.164c.193 0 .395-.038.588-.115a1.45 1.45 0 0 0 .733-1.91 1.44 1.44 0 0 0-1.9-.743 1.454 1.454 0 0 0-.742 1.91c.241.541.771.858 1.321.858zm78.406 6.155c.242.164.512.242.782.242a1.448 1.448 0 0 0 .791-2.663 1.437 1.437 0 0 0-1.996.424 1.43 1.43 0 0 0 .423 1.997zm-74.846.395c.27 0 .539-.077.791-.241a1.446 1.446 0 0 0 .414-2.007 1.454 1.454 0 0 0-2.006-.414 1.456 1.456 0 0 0-.415 2.007c.28.424.743.655 1.216.655zm70.1 5.355c.271.26.628.385.975.385.386 0 .781-.164 1.061-.473h.01a1.45 1.45 0 0 0-.096-2.044 1.448 1.448 0 0 0-2.046.087 1.44 1.44 0 0 0 .096 2.045zm-65.518.51c.347 0 .694-.125.974-.376a1.447 1.447 0 1 0-2.045-.086c.29.308.675.462 1.071.462zm59.895 4.38a1.438 1.438 0 0 0 2.026.251 1.448 1.448 0 1 0-1.785-2.277 1.442 1.442 0 0 0-.24 2.026zm-55.304.366a1.46 1.46 0 0 0 2.027-.25 1.455 1.455 0 0 0-.252-2.035 1.44 1.44 0 0 0-2.025.251 1.435 1.435 0 0 0 .25 2.034zm50.23 4.293a1.442 1.442 0 0 0 1.263-2.141 1.446 1.446 0 1 0-2.537 1.388c.261.483.762.753 1.274.753zm-43.796-.086c.213.115.454.173.685.173a1.448 1.448 0 0 0 .695-2.72 1.458 1.458 0 0 0-1.967.588 1.452 1.452 0 0 0 .587 1.959zm36.985 3.105c.154 0 .318-.028.473-.077a1.446 1.446 0 0 0 .897-1.842 1.45 1.45 0 0 0-1.842-.897 1.458 1.458 0 0 0-.898 1.842c.213.599.773.974 1.37.974zm-29.943-.009c.155.048.318.077.473.077.598 0 1.158-.386 1.37-.983a1.448 1.448 0 0 0-.907-1.833 1.436 1.436 0 0 0-1.833.896c-.26.753.145 1.583.897 1.843zm21.3.656a1.447 1.447 0 0 0 1.428 1.205c.077 0 .164 0 .241-.018a1.444 1.444 0 0 0 1.186-1.67 1.451 1.451 0 0 0-1.668-1.186 1.45 1.45 0 0 0-1.187 1.669zm-13.602 1.244c.695 0 1.302-.511 1.418-1.215a1.45 1.45 0 0 0-1.186-1.668 1.458 1.458 0 0 0-1.669 1.195 1.445 1.445 0 0 0 1.196 1.66c.078.019.164.028.241.028zm5.972-.839c0 .791.646 1.447 1.447 1.447v-.01h.192c.801 0 1.447-.646 1.447-1.447a1.46 1.46 0 0 0-1.456-1.447c-.029 0-.068.01-.107.01h-.076c-.801 0-1.447.647-1.447 1.447z"/></g></g><g><g><path fill="#49d6cb" d="M113.868 79.195c0 .869.704 1.573 1.573 1.573a1.572 1.572 0 0 0 1.563-1.573c0-.868-.705-1.572-1.574-1.562-.858 0-1.562.704-1.562 1.562zm8.672 2.248c.734 0 1.389-.521 1.534-1.273a1.56 1.56 0 0 0-1.235-1.833h-.01a1.553 1.553 0 0 0-1.832 1.235 1.574 1.574 0 0 0 1.543 1.871zm-14.199.029a1.57 1.57 0 0 0 1.543-1.881 1.561 1.561 0 0 0-1.842-1.225 1.575 1.575 0 0 0-1.235 1.843c.154.742.81 1.263 1.534 1.263zm20.421 1.9a1.57 1.57 0 0 0 2.045-.849 1.565 1.565 0 0 0-.849-2.045 1.558 1.558 0 0 0-2.045.85c-.337.8.048 1.716.849 2.044zm-28.678-.79c.25.607.829.964 1.447.964.202 0 .405-.038.597-.116a1.58 1.58 0 0 0 .85-2.054 1.568 1.568 0 0 0-2.056-.84 1.556 1.556 0 0 0-.838 2.046zm35.565 4.263c.512 0 1.004-.25 1.313-.704a1.571 1.571 0 0 0-.444-2.171 1.565 1.565 0 0 0-1.736 2.605 1.6 1.6 0 0 0 .867.27zm-40.399.078c.3 0 .608-.087.878-.261a1.577 1.577 0 0 0 .425-2.18 1.567 1.567 0 0 0-2.171-.425h-.01a1.578 1.578 0 0 0-.424 2.181c.309.443.801.685 1.302.685zm44.817 3.974a1.572 1.572 0 0 0 2.22-.01 1.569 1.569 0 1 0-2.229-2.209 1.57 1.57 0 0 0 .009 2.219zm-50.315.56c.395 0 .8-.155 1.109-.454a1.578 1.578 0 0 0 0-2.219 1.56 1.56 0 0 0-2.218 0 1.57 1.57 0 0 0 0 2.219c.309.308.703.454 1.11.454zm55.96 5.392a1.567 1.567 0 1 0-.878-2.866 1.555 1.555 0 0 0-.415 2.171h-.011a1.57 1.57 0 0 0 1.303.695zm-60.484.125c.511 0 1.003-.241 1.312-.694a1.58 1.58 0 0 0-.434-2.181 1.578 1.578 0 0 0-2.18.434 1.587 1.587 0 0 0 .433 2.18c.27.174.57.261.87.261zm62.422 5.19c.251.598.83.955 1.447.955.202 0 .405-.039.598-.116a1.579 1.579 0 0 0 .85-2.054 1.566 1.566 0 0 0-2.056-.84 1.565 1.565 0 0 0-.839 2.055zm-66.368.983c.194.078.396.116.588.116.618 0 1.206-.366 1.458-.964a1.59 1.59 0 0 0-.849-2.055 1.585 1.585 0 0 0-2.056.859 1.57 1.57 0 0 0 .859 2.044zm68.365 5.528a1.556 1.556 0 0 0 1.534 1.263c.105 0 .202-.009.309-.028a1.585 1.585 0 0 0 1.234-1.852h-.01a1.556 1.556 0 0 0-1.842-1.225 1.565 1.565 0 0 0-1.225 1.842zm-69.821 1.418c.733 0 1.38-.521 1.534-1.273a1.562 1.562 0 0 0-1.235-1.833 1.564 1.564 0 1 0-.608 3.067c.106.03.203.039.31.039zm72.078 6.936c.858 0 1.563-.704 1.563-1.572a1.577 1.577 0 0 0-1.572-1.563c-.869 0-1.573.704-1.563 1.572 0 .868.704 1.563 1.572 1.563zm-72.763.155c.858 0 1.562-.705 1.562-1.574a1.57 1.57 0 0 0-1.572-1.561c-.868 0-1.563.703-1.563 1.572 0 .858.705 1.563 1.573 1.563zm71.789 6.906c.096.029.203.038.3.038.732 0 1.388-.521 1.532-1.272a1.561 1.561 0 0 0-1.235-1.834 1.563 1.563 0 1 0-.597 3.068zm-72.639-1.07a1.579 1.579 0 0 0 1.852 1.224 1.556 1.556 0 0 0 1.226-1.842 1.57 1.57 0 0 0-1.843-1.234 1.575 1.575 0 0 0-1.235 1.842v.01zm70.893 7.938c.618 0 1.205-.366 1.456-.974h-.009a1.565 1.565 0 0 0-.849-2.045 1.557 1.557 0 0 0-2.045.849c-.338.8.048 1.717.848 2.045.203.086.405.125.599.125zm-67.275.136c.193 0 .405-.039.598-.116a1.57 1.57 0 0 0 .849-2.045v-.01a1.567 1.567 0 0 0-2.055-.839 1.553 1.553 0 0 0-.839 2.045c.251.598.83.965 1.447.965zm63.928 6.154a1.56 1.56 0 0 0 1.312-.705 1.571 1.571 0 0 0-.445-2.17 1.571 1.571 0 0 0-2.17.444 1.56 1.56 0 0 0 .444 2.17c.26.174.559.261.859.261zm-61.863-.569c.298.453.801.694 1.302.694.299 0 .607-.086.878-.261a1.575 1.575 0 0 0 .425-2.179 1.577 1.577 0 0 0-2.181-.424 1.566 1.566 0 0 0-.424 2.17zm56.257 5.643c.31.299.705.453 1.101.453a1.568 1.568 0 0 0 1.108-2.681 1.57 1.57 0 0 0-2.209 2.228zm-50.42.56a1.564 1.564 0 0 0 1.098-2.673 1.56 1.56 0 0 0-2.218 0 1.57 1.57 0 0 0 1.12 2.673zm44.73 3.752c.309.443.8.685 1.301.685.31 0 .608-.087.878-.27a1.565 1.565 0 1 0-1.756-2.595 1.576 1.576 0 0 0-.423 2.18zm-39.223.772a1.57 1.57 0 0 0 1.302-.695 1.557 1.557 0 0 0-.434-2.171c-.714-.482-1.698-.298-2.17.425a1.576 1.576 0 0 0 .424 2.18c.27.174.569.261.878.261zm32.807 2.344c.251.598.84.964 1.447.964.203 0 .405-.047.608-.125a1.566 1.566 0 0 0 .839-2.054 1.566 1.566 0 0 0-2.054-.84 1.575 1.575 0 0 0-.84 2.055zm-26.528 1.022c.618 0 1.206-.366 1.447-.974a1.56 1.56 0 0 0-.839-2.045 1.567 1.567 0 1 0-1.206 2.894c.193.086.396.125.598.125zm19.632.771c.144.744.8 1.265 1.533 1.265.096 0 .203-.01.308-.039a1.557 1.557 0 0 0 1.226-1.842 1.561 1.561 0 0 0-1.843-1.225 1.558 1.558 0 0 0-1.224 1.841zm-12.802 1.294c.733 0 1.39-.521 1.534-1.264a1.57 1.57 0 0 0-1.234-1.843 1.564 1.564 0 0 0-1.843 1.235 1.575 1.575 0 0 0 1.543 1.872zm7.091.685h.154c.868 0 1.573-.705 1.562-1.572 0-.869-.703-1.563-1.572-1.563-.029 0-.057 0-.096.009h-.048v-.009c-.869 0-1.573.703-1.573 1.572 0 .868.704 1.563 1.573 1.563z"/></g></g><g><g><path fill="#49d6cb" d="M113.771 87.945a1.688 1.688 0 1 0 3.377 0 1.688 1.688 0 0 0-3.377 0zm8.412 2.547c.136.038.28.057.425.057a1.7 1.7 0 0 0 1.64-1.254 1.692 1.692 0 0 0-3.27-.868c-.242.907.299 1.824 1.205 2.065zm-15.5-1.158a1.688 1.688 0 0 0 2.072 1.186 1.684 1.684 0 0 0 1.187-2.064 1.688 1.688 0 1 0-3.26.878zm21.751 3.743c.271.144.56.221.84.221.587 0 1.157-.308 1.465-.848a1.685 1.685 0 0 0-.617-2.306 1.695 1.695 0 0 0-2.305.617 1.71 1.71 0 0 0 .617 2.316zm-28.235-.569c.318.54.878.849 1.457.849.29 0 .588-.078.85-.232a1.69 1.69 0 1 0-1.699-2.923 1.689 1.689 0 0 0-.608 2.306zm33.618 4.678a1.686 1.686 0 0 0 2.392-.009 1.689 1.689 0 0 0-.01-2.383 1.698 1.698 0 0 0-2.391 0 1.69 1.69 0 0 0 .009 2.392zm-39.059.077a1.681 1.681 0 0 0 2.383-.009 1.68 1.68 0 0 0 0-2.383 1.7 1.7 0 0 0-2.392 0 1.691 1.691 0 0 0 .01 2.392zm44.663 6.116c.28 0 .58-.068.84-.221a1.702 1.702 0 0 0 .618-2.316 1.697 1.697 0 0 0-2.316-.607 1.695 1.695 0 0 0-.608 2.305c.319.54.878.839 1.466.839zm-48.704-.125c.269.154.56.222.838.222a1.68 1.68 0 0 0 1.467-.839 1.678 1.678 0 0 0-.617-2.306 1.678 1.678 0 0 0-2.306.618 1.688 1.688 0 0 0 .618 2.305zm49.853 5.537a1.678 1.678 0 0 0 2.064 1.186 1.683 1.683 0 0 0 1.187-2.073 1.686 1.686 0 0 0-2.065-1.187 1.69 1.69 0 0 0-1.186 2.074zm-51.754 1.35c.743 0 1.428-.501 1.621-1.254a1.683 1.683 0 0 0-1.196-2.064 1.687 1.687 0 1 0-.425 3.318zm52.65 5.355c0 .935.753 1.688 1.689 1.688a1.706 1.706 0 0 0 1.688-1.699 1.69 1.69 0 0 0-1.698-1.678c-.935 0-1.688.763-1.679 1.689zm-53.586 1.793c.936 0 1.689-.752 1.689-1.688a1.69 1.69 0 0 0-1.689-1.688 1.69 1.69 0 0 0-1.688 1.688 1.69 1.69 0 0 0 1.688 1.688zm53.925 6.984a1.68 1.68 0 0 0 2.064-1.196 1.687 1.687 0 1 0-3.261-.858 1.675 1.675 0 0 0 1.197 2.054zm-52.98.164a1.691 1.691 0 0 0 1.631-2.122 1.695 1.695 0 0 0-2.074-1.195 1.689 1.689 0 0 0 .443 3.317zm49.834 6.348c.261.145.55.222.839.222a1.71 1.71 0 0 0 1.467-.85 1.69 1.69 0 1 0-2.306.628zm-48.53-.531c.308.54.877.849 1.456.849.289 0 .58-.077.848-.232a1.688 1.688 0 0 0-1.688-2.923c-.81.473-1.09 1.506-.617 2.306zm43.804 5.991a1.68 1.68 0 0 0 1.186.492 1.689 1.689 0 1 0-1.186-.492zm-37.949.569c.433 0 .867-.164 1.195-.492a1.699 1.699 0 0 0 0-2.393 1.69 1.69 0 1 0-1.195 2.885zm33.444 4.331c.289 0 .579-.067.849-.222a1.704 1.704 0 0 0 .607-2.315 1.705 1.705 0 0 0-2.315-.607 1.705 1.705 0 0 0-.608 2.314c.319.531.878.83 1.467.83zm-28.563-.164a1.702 1.702 0 0 0 2.305-.618 1.695 1.695 0 0 0-.617-2.305 1.677 1.677 0 0 0-2.305.617 1.682 1.682 0 0 0 .617 2.306zm20.276 1.707a1.689 1.689 0 0 0 2.074 1.187 1.685 1.685 0 0 0 1.187-2.065 1.693 1.693 0 0 0-2.074-1.195 1.699 1.699 0 0 0-1.187 2.073zm-12.77 1.274c.741 0 1.426-.492 1.63-1.254a1.691 1.691 0 0 0-1.197-2.065 1.692 1.692 0 0 0-2.065 1.197 1.678 1.678 0 0 0 1.197 2.064c.145.038.289.058.434.058zm7.147.936h.115a1.68 1.68 0 0 0 1.68-1.698 1.69 1.69 0 0 0-1.69-1.679h-.105a1.69 1.69 0 0 0 0 3.377z"/></g></g><g><g><path fill="#49d6cb" d="M115.48 98.498c1.003 0 1.802-.81 1.802-1.813a1.809 1.809 0 0 0-3.617.009c0 .994.82 1.804 1.814 1.804zm6.539 1.283a1.798 1.798 0 0 0 2.354-.984 1.805 1.805 0 1 0-3.338-1.379 1.805 1.805 0 0 0 .984 2.363zm-13.765.164c.232 0 .473-.048.694-.135a1.812 1.812 0 0 0-1.388-3.347 1.812 1.812 0 0 0-.975 2.373c.29.694.964 1.109 1.669 1.109zm20.585 4.052c.464 0 .926-.184 1.283-.531a1.823 1.823 0 0 0-.009-2.566 1.82 1.82 0 0 0-2.557.01 1.803 1.803 0 0 0 .01 2.556c.347.357.81.531 1.273.531zm-26.7.057c.462 0 .925-.183 1.282-.539a1.812 1.812 0 0 0 0-2.557 1.8 1.8 0 0 0-2.556.009h-.01a1.801 1.801 0 0 0 .01 2.557c.357.347.81.53 1.273.53zm29.141 4.94a1.817 1.817 0 0 0 1.668 1.119 1.815 1.815 0 0 0 1.67-2.509 1.802 1.802 0 0 0-2.364-.974 1.805 1.805 0 0 0-.974 2.364zm-33.917 1.051a1.819 1.819 0 0 0 2.364-.984 1.814 1.814 0 0 0-.985-2.363 1.812 1.812 0 0 0-2.363.983 1.815 1.815 0 0 0 .984 2.364zm35.228 5.479a1.82 1.82 0 0 0 1.824 1.804 1.808 1.808 0 0 0 1.794-1.814c0-1.003-.81-1.804-1.814-1.804-.992 0-1.804.811-1.804 1.814zm-35.96 1.881c1.002 0 1.803-.81 1.803-1.813a1.808 1.808 0 1 0-3.617.009c0 .994.81 1.804 1.813 1.804zm36.366 7.148c.704 0 1.38-.425 1.669-1.119a1.806 1.806 0 0 0-.985-2.364 1.818 1.818 0 0 0-2.362.994 1.807 1.807 0 0 0 .993 2.354c.222.097.454.135.685.135zm-36.599-1.042c.29.695.965 1.119 1.669 1.119.231 0 .463-.048.695-.145a1.797 1.797 0 0 0 .974-2.363 1.81 1.81 0 0 0-2.364-.974 1.804 1.804 0 0 0-.974 2.363zm31.245 6.657a1.818 1.818 0 0 0 2.557-.011 1.802 1.802 0 0 0-.01-2.555 1.8 1.8 0 0 0-2.556.009 1.811 1.811 0 0 0 .01 2.557zm-25.477.578c.464 0 .926-.173 1.284-.53a1.812 1.812 0 0 0 0-2.557 1.824 1.824 0 0 0-2.567 0 1.814 1.814 0 0 0 0 2.557c.357.357.821.53 1.283.53zm18.975 2.962c.29.685.965 1.109 1.669 1.109a1.81 1.81 0 1 0-1.669-1.109zm-13.543.993c.222.097.463.145.695.145.703 0 1.379-.425 1.668-1.119a1.807 1.807 0 1 0-3.338-1.389 1.798 1.798 0 0 0 .975 2.363zm8.007 1.573a1.807 1.807 0 0 0 1.793-1.814c0-1.004-.81-1.814-1.813-1.803h-.067c-1.003 0-1.814.81-1.814 1.813a1.81 1.81 0 0 0 1.814 1.804z"/></g></g><g><g><path fill="#49d6cb" d="M118.961 107.971a1.93 1.93 0 0 0 1.814-1.273 1.922 1.922 0 0 0-1.157-2.47 1.927 1.927 0 0 0-2.47 1.148 1.928 1.928 0 0 0 1.157 2.469c.222.087.444.126.656.126zm-8.739-1.254a1.919 1.919 0 0 0 1.813 1.264 1.93 1.93 0 0 0 1.804-2.595 1.923 1.923 0 0 0-2.47-1.148 1.93 1.93 0 0 0-1.147 2.479zm12.395 4.736a1.918 1.918 0 0 0 1.67.955 1.9 1.9 0 0 0 .974-.26 1.932 1.932 0 0 0 .694-2.633v-.01a1.944 1.944 0 0 0-2.644-.695c-.915.541-1.234 1.727-.694 2.643zm-16.852.733c.299.174.627.261.955.261a1.94 1.94 0 0 0 1.678-.965 1.927 1.927 0 0 0-.713-2.634 1.925 1.925 0 1 0-1.92 3.338zm19.418 7.023a1.932 1.932 0 0 0 2.228-1.582v.01a1.92 1.92 0 0 0-1.572-2.229 1.92 1.92 0 0 0-2.228 1.573 1.925 1.925 0 0 0 1.572 2.228zm-19.659.068a1.923 1.923 0 0 0 1.9-2.268 1.932 1.932 0 0 0-2.228-1.563 1.923 1.923 0 0 0-1.563 2.239 1.922 1.922 0 0 0 1.891 1.592zm15.068 5.295c.385.444.926.676 1.476.676.433 0 .877-.145 1.243-.454.812-.684.908-1.91.223-2.72a1.927 1.927 0 0 0-2.72-.222 1.935 1.935 0 0 0-.222 2.72zm-11.596.705c.55 0 1.101-.232 1.486-.685a1.938 1.938 0 0 0-.241-2.721 1.929 1.929 0 0 0-2.72.241 1.92 1.92 0 0 0 .241 2.712c.356.308.801.453 1.234.453zm6.57 2.373a1.93 1.93 0 0 0 1.92-1.939 1.918 1.918 0 0 0-1.94-1.92h-.105a1.925 1.925 0 0 0-1.852 1.929c0 1.061.858 1.93 1.93 1.93z"/></g></g></g></g></svg>