<svg xmlns="http://www.w3.org/2000/svg" width="279" height="280" viewBox="0 0 279 280"><g><g opacity=".25"><g opacity=".25"><path fill="#49d6cb" d="M12.058 82.209c-.149.327-.293.654-.438.981-1.193 2.715-.614 5.887 1.432 8.033l169.017 177.12c2.046 2.146 5.187 2.871 7.954 1.807l1-.391z"/></g><g opacity=".25"><path fill="#49d6cb" d="M21.39 64.942l-.028.048a7.172 7.172 0 0 0 .867 8.798l177.683 186.205a7.174 7.174 0 0 0 8.748 1.278l.05-.028z"/></g><g opacity=".25"><path fill="#49d6cb" d="M32.628 49.667a138.491 138.491 0 0 0-3.507 4.296l190.917 200.072a141.377 141.377 0 0 0 4.457-3.3z"/></g><g opacity=".25"><path fill="#49d6cb" d="M.59 124.293a143.525 143.525 0 0 0-.386 4.08c-.166 2.065.593 4.104 2.023 5.602l136.627 143.18c1.432 1.499 3.43 2.352 5.503 2.284 1.37-.048 2.735-.112 4.094-.197z"/></g><g opacity=".25"><path fill="#49d6cb" d="M7.388 185.51a137.482 137.482 0 0 0 5.202 12.845 7.59 7.59 0 0 0 1.394 2.038l59.075 61.91a7.608 7.608 0 0 0 1.973 1.488 137.637 137.637 0 0 0 12.586 5.797z"/></g><g opacity=".25"><path fill="#49d6cb" d="M4.927 101.785c-.216.77-.427 1.543-.628 2.316-.645 2.458.085 5.088 1.84 6.925l155.823 163.296c1.754 1.838 4.346 2.689 6.83 2.163.783-.166 1.565-.34 2.343-.52z"/></g><g opacity=".25"><path fill="#49d6cb" d="M.14 150.867c.178 2.248.425 4.474.716 6.688a7.361 7.361 0 0 0 1.99 4.116l108.371 113.571a7.37 7.37 0 0 0 4.019 2.177c2.198.396 4.41.746 6.648 1.03z"/></g><g opacity=".25"><path fill="#49d6cb" d="M60.302 24.572a141.958 141.958 0 0 0-4.51 3.246l191.612 200.798c1.178-1.43 2.33-2.876 3.451-4.35z"/></g><g opacity=".25"><path fill="#49d6cb" d="M170.44 4.747a7.388 7.388 0 0 0-3.91-2.162 139.21 139.21 0 0 0-6.867-1.161l118.969 124.673c-.228-2.32-.505-4.628-.842-6.915a7.363 7.363 0 0 0-1.977-4.007z"/></g><g opacity=".25"><path fill="#49d6cb" d="M210.421 19.598a7.687 7.687 0 0 0-1.752-1.375 140.037 140.037 0 0 0-13.655-6.802l75.284 78.894a140.07 140.07 0 0 0-6.156-13.96 7.676 7.676 0 0 0-1.29-1.811z"/></g><g opacity=".25"><path fill="#49d6cb" d="M142.282 2.289C140.876.814 138.92-.034 136.886.001c-1.425.026-2.843.074-4.258.142L278.644 153.16c.132-1.41.246-2.824.341-4.244.133-2.034-.626-4.025-2.032-5.498z"/></g><g opacity=".25"><path fill="#49d6cb" d="M98.567 10.577c-2.013-2.112-5.104-2.887-7.836-1.863-.377.142-.756.284-1.135.431l178.043 186.58c.163-.372.324-.744.483-1.116 1.15-2.68.52-5.804-1.493-7.914z"/></g><g opacity=".25"><path fill="#49d6cb" d="M80.546 18.74a7.19 7.19 0 0 0-8.696-1.323l-.111.062 186.739 195.693a7.356 7.356 0 0 0-.937-8.95z"/></g><g opacity=".25"><path fill="#49d6cb" d="M238.53 238.397L45.608 36.222a139.85 139.85 0 0 0-4.004 3.772l192.971 202.228a139.68 139.68 0 0 0 3.955-3.825z"/></g><g opacity=".25"><path fill="#49d6cb" d="M118.892 4.826c-1.733-1.816-4.284-2.672-6.743-2.181-.82.163-1.638.334-2.456.512l164.866 172.772c.216-.808.424-1.617.628-2.43.605-2.432-.133-5.021-1.863-6.835z"/></g></g></g></svg>