<svg xmlns="http://www.w3.org/2000/svg" width="1038" height="829" viewBox="0 0 1038 829"><g><g><path fill="#f4f6fc" d="M1037.404 828.077c-17.825-47.534-50.35-100.78-124.185-100.982-31.835-.088-85.005 7.43-116.744 4.958-43.958-3.423-85.393-10.777-137.479-100.067-52.085-89.29-216.426-114.726-316.877-92.403-100.45 22.322-179.78-40.724-179.78-40.724-33.875-25.537-73.99-102.613-74.668-142.9-7.888-65.19 66.756-144.573 73.247-182.836 10.672-62.906-7.027-116.131-65.359-141.986C94.962 30.872 35.614-2.277 0 .937l.396 825.858z"/></g></g></svg>