<svg xmlns="http://www.w3.org/2000/svg" width="1038" height="829" viewBox="0 0 1038 829"><g><g><path fill="#f4f6fc" d="M-.008.717c17.826 47.535 50.35 100.78 124.185 100.983 31.836.087 85.006-7.43 116.744-4.958 43.959 3.423 85.393 10.776 137.48 100.066 52.085 89.29 216.425 114.726 316.876 92.404 100.451-22.323 179.78 40.723 179.78 40.723 33.876 25.537 73.99 102.614 74.669 142.9 7.888 65.19-66.757 144.574-73.247 182.837-10.672 62.906 7.026 116.13 65.358 141.986.598.264 59.946 33.413 95.56 30.2L1037 2z"/></g></g></svg>